G04 #@! TF.GenerationSoftware,KiCad,Pcbnew,(5.99.0-8018-g9a0f685a75)*
G04 #@! TF.CreationDate,2021-09-12T19:48:39+09:30*
G04 #@! TF.ProjectId,ADE7763_Breakout,41444537-3736-4335-9f42-7265616b6f75,rev?*
G04 #@! TF.SameCoordinates,Original*
G04 #@! TF.FileFunction,Paste,Top*
G04 #@! TF.FilePolarity,Positive*
%FSLAX46Y46*%
G04 Gerber Fmt 4.6, Leading zero omitted, Abs format (unit mm)*
G04 Created by KiCad (PCBNEW (5.99.0-8018-g9a0f685a75)) date 2021-09-12 19:48:39*
%MOMM*%
%LPD*%
G01*
G04 APERTURE LIST*
G04 Aperture macros list*
%AMRoundRect*
0 Rectangle with rounded corners*
0 $1 Rounding radius*
0 $2 $3 $4 $5 $6 $7 $8 $9 X,Y pos of 4 corners*
0 Add a 4 corners polygon primitive as box body*
4,1,4,$2,$3,$4,$5,$6,$7,$8,$9,$2,$3,0*
0 Add four circle primitives for the rounded corners*
1,1,$1+$1,$2,$3,0*
1,1,$1+$1,$4,$5,0*
1,1,$1+$1,$6,$7,0*
1,1,$1+$1,$8,$9,0*
0 Add four rect primitives between the rounded corners*
20,1,$1+$1,$2,$3,$4,$5,0*
20,1,$1+$1,$4,$5,$6,$7,0*
20,1,$1+$1,$6,$7,$8,$9,0*
20,1,$1+$1,$8,$9,$2,$3,0*%
G04 Aperture macros list end*
%ADD10RoundRect,0.125000X0.125000X-0.825000X0.125000X0.825000X-0.125000X0.825000X-0.125000X-0.825000X0*%
%ADD11RoundRect,0.111125X-0.333375X0.333375X-0.333375X-0.333375X0.333375X-0.333375X0.333375X0.333375X0*%
%ADD12R,1.270000X1.270000*%
%ADD13RoundRect,0.111125X0.333375X-0.333375X0.333375X0.333375X-0.333375X0.333375X-0.333375X-0.333375X0*%
%ADD14R,5.334000X1.930400*%
G04 APERTURE END LIST*
D10*
X145207700Y-99898400D03*
X145857700Y-99898400D03*
X146507700Y-99898400D03*
X147157700Y-99898400D03*
X147807700Y-99898400D03*
X148457700Y-99898400D03*
X149107700Y-99898400D03*
X149757700Y-99898400D03*
X150407700Y-99898400D03*
X151057700Y-99898400D03*
X151057700Y-106898400D03*
X150407700Y-106898400D03*
X149757700Y-106898400D03*
X149107700Y-106898400D03*
X148457700Y-106898400D03*
X147807700Y-106898400D03*
X147157700Y-106898400D03*
X146507700Y-106898400D03*
X145857700Y-106898400D03*
X145207700Y-106898400D03*
D11*
X156286100Y-94711600D03*
X156286100Y-96235600D03*
X162788500Y-109596000D03*
X162788500Y-111120000D03*
D12*
X153746100Y-104363600D03*
X153746100Y-101823600D03*
D11*
X156286100Y-102331600D03*
X156286100Y-103855600D03*
D13*
X138506100Y-96235600D03*
X138506100Y-94711600D03*
D12*
X139776100Y-104363600D03*
X139776100Y-101823600D03*
D11*
X134696100Y-102331600D03*
X134696100Y-103855600D03*
D12*
X142316100Y-104363600D03*
X142316100Y-101823600D03*
D11*
X137236100Y-102331600D03*
X137236100Y-103855600D03*
D13*
X152628500Y-111120000D03*
X152628500Y-109596000D03*
X147548500Y-111120000D03*
X147548500Y-109596000D03*
D11*
X142468500Y-109596000D03*
X142468500Y-111120000D03*
D14*
X152222100Y-95473600D03*
X142570100Y-95473600D03*
D13*
X139928500Y-111120000D03*
X139928500Y-109596000D03*
X150088500Y-111120000D03*
X150088500Y-109596000D03*
X160248500Y-111120000D03*
X160248500Y-109596000D03*
X145008500Y-111120000D03*
X145008500Y-109596000D03*
D11*
X155295500Y-109596000D03*
X155295500Y-111120000D03*
X137388500Y-109596000D03*
X137388500Y-111120000D03*
D13*
X157835500Y-111120000D03*
X157835500Y-109596000D03*
X134848500Y-111120000D03*
X134848500Y-109596000D03*
M02*
