M48
INCH,TZ
T1C0.0130
T2C0.0350
%
G90
G05
T1
X5550Y-4203
X5550Y-4429
X5641Y-4426
X5644Y-4233
X5703Y-4109
X5715Y-4071
X5740Y-4046
X5790Y-4009
X5815Y-4121
X5828Y-4009
X5828Y-4534
X5853Y-4359
X5878Y-4409
X5958Y-4278
X5983Y-3895
X5987Y-3935
X6019Y-3895
X6079Y-3819
X6115Y-4484
X6150Y-4209
X6165Y-4418
X6172Y-4159
X6178Y-4346
T2
X5393Y-4589
X5493Y-4589
X5593Y-4589
X5693Y-4589
X5793Y-4589
X5893Y-4589
X5993Y-4589
X6093Y-4589
X6193Y-4589
X6293Y-4589
T0
M30
