G04 #@! TF.GenerationSoftware,KiCad,Pcbnew,(5.99.0-8018-g9a0f685a75)*
G04 #@! TF.CreationDate,2021-09-12T19:48:39+09:30*
G04 #@! TF.ProjectId,ADE7763_Breakout,41444537-3736-4335-9f42-7265616b6f75,rev?*
G04 #@! TF.SameCoordinates,Original*
G04 #@! TF.FileFunction,Legend,Bot*
G04 #@! TF.FilePolarity,Positive*
%FSLAX46Y46*%
G04 Gerber Fmt 4.6, Leading zero omitted, Abs format (unit mm)*
G04 Created by KiCad (PCBNEW (5.99.0-8018-g9a0f685a75)) date 2021-09-12 19:48:39*
%MOMM*%
%LPD*%
G01*
G04 APERTURE LIST*
%ADD10C,0.162560*%
%ADD11C,0.200000*%
G04 APERTURE END LIST*
D10*
X137170060Y-114083623D02*
X137206829Y-114157162D01*
X137206829Y-114267471D01*
X137170060Y-114377779D01*
X137096520Y-114451318D01*
X137022981Y-114488088D01*
X136875903Y-114524857D01*
X136765595Y-114524857D01*
X136618517Y-114488088D01*
X136544978Y-114451318D01*
X136471439Y-114377779D01*
X136434669Y-114267471D01*
X136434669Y-114193932D01*
X136471439Y-114083623D01*
X136508208Y-114046854D01*
X136765595Y-114046854D01*
X136765595Y-114193932D01*
X136434669Y-113715928D02*
X137206829Y-113715928D01*
X136434669Y-113274694D01*
X137206829Y-113274694D01*
X136434669Y-112906998D02*
X137206829Y-112906998D01*
X137206829Y-112723151D01*
X137170060Y-112612842D01*
X137096520Y-112539303D01*
X137022981Y-112502534D01*
X136875903Y-112465764D01*
X136765595Y-112465764D01*
X136618517Y-112502534D01*
X136544978Y-112539303D01*
X136471439Y-112612842D01*
X136434669Y-112723151D01*
X136434669Y-112906998D01*
X156072788Y-95741630D02*
X156072788Y-94969470D01*
X155741862Y-95741630D02*
X155741862Y-95337165D01*
X155778632Y-95263626D01*
X155852171Y-95226857D01*
X155962479Y-95226857D01*
X156036018Y-95263626D01*
X156072788Y-95300396D01*
X155484476Y-95226857D02*
X155190319Y-95226857D01*
X155374167Y-94969470D02*
X155374167Y-95631321D01*
X155337397Y-95704860D01*
X155263858Y-95741630D01*
X155190319Y-95741630D01*
X155043241Y-95226857D02*
X154749085Y-95226857D01*
X154932933Y-94969470D02*
X154932933Y-95631321D01*
X154896163Y-95704860D01*
X154822624Y-95741630D01*
X154749085Y-95741630D01*
X154491698Y-95226857D02*
X154491698Y-95999017D01*
X154491698Y-95263626D02*
X154418159Y-95226857D01*
X154271081Y-95226857D01*
X154197542Y-95263626D01*
X154160773Y-95300396D01*
X154124003Y-95373935D01*
X154124003Y-95594552D01*
X154160773Y-95668091D01*
X154197542Y-95704860D01*
X154271081Y-95741630D01*
X154418159Y-95741630D01*
X154491698Y-95704860D01*
X153793077Y-95668091D02*
X153756308Y-95704860D01*
X153793077Y-95741630D01*
X153829847Y-95704860D01*
X153793077Y-95668091D01*
X153793077Y-95741630D01*
X153793077Y-95263626D02*
X153756308Y-95300396D01*
X153793077Y-95337165D01*
X153829847Y-95300396D01*
X153793077Y-95263626D01*
X153793077Y-95337165D01*
X152873839Y-94932700D02*
X153535691Y-95925478D01*
X152064910Y-94932700D02*
X152726761Y-95925478D01*
X151881062Y-95226857D02*
X151733984Y-95741630D01*
X151586906Y-95373935D01*
X151439828Y-95741630D01*
X151292750Y-95226857D01*
X150998594Y-95741630D02*
X150998594Y-94969470D01*
X150667668Y-95741630D02*
X150667668Y-95337165D01*
X150704437Y-95263626D01*
X150777976Y-95226857D01*
X150888285Y-95226857D01*
X150961824Y-95263626D01*
X150998594Y-95300396D01*
X149969047Y-95741630D02*
X149969047Y-95337165D01*
X150005816Y-95263626D01*
X150079356Y-95226857D01*
X150226434Y-95226857D01*
X150299973Y-95263626D01*
X149969047Y-95704860D02*
X150042586Y-95741630D01*
X150226434Y-95741630D01*
X150299973Y-95704860D01*
X150336742Y-95631321D01*
X150336742Y-95557782D01*
X150299973Y-95484243D01*
X150226434Y-95447474D01*
X150042586Y-95447474D01*
X149969047Y-95410704D01*
X149711660Y-95226857D02*
X149417504Y-95226857D01*
X149601352Y-94969470D02*
X149601352Y-95631321D01*
X149564582Y-95704860D01*
X149491043Y-95741630D01*
X149417504Y-95741630D01*
X149160117Y-95226857D02*
X149160117Y-95741630D01*
X149160117Y-95300396D02*
X149123348Y-95263626D01*
X149049809Y-95226857D01*
X148939500Y-95226857D01*
X148865961Y-95263626D01*
X148829192Y-95337165D01*
X148829192Y-95741630D01*
X148461496Y-95741630D02*
X148461496Y-95226857D01*
X148461496Y-94969470D02*
X148498266Y-95006240D01*
X148461496Y-95043009D01*
X148424727Y-95006240D01*
X148461496Y-94969470D01*
X148461496Y-95043009D01*
X147762876Y-95704860D02*
X147836415Y-95741630D01*
X147983493Y-95741630D01*
X148057032Y-95704860D01*
X148093801Y-95668091D01*
X148130571Y-95594552D01*
X148130571Y-95373935D01*
X148093801Y-95300396D01*
X148057032Y-95263626D01*
X147983493Y-95226857D01*
X147836415Y-95226857D01*
X147762876Y-95263626D01*
X147431950Y-95741630D02*
X147431950Y-94969470D01*
X147358411Y-95447474D02*
X147137794Y-95741630D01*
X147137794Y-95226857D02*
X147431950Y-95521013D01*
X146696559Y-95741630D02*
X146770098Y-95704860D01*
X146806868Y-95631321D01*
X146806868Y-94969470D01*
X146402403Y-95741630D02*
X146402403Y-95226857D01*
X146402403Y-94969470D02*
X146439173Y-95006240D01*
X146402403Y-95043009D01*
X146365634Y-95006240D01*
X146402403Y-94969470D01*
X146402403Y-95043009D01*
X146145016Y-95226857D02*
X145850860Y-95226857D01*
X146034708Y-95741630D02*
X146034708Y-95079779D01*
X145997938Y-95006240D01*
X145924399Y-94969470D01*
X145850860Y-94969470D01*
X145299317Y-95704860D02*
X145372856Y-95741630D01*
X145519935Y-95741630D01*
X145593474Y-95704860D01*
X145630243Y-95631321D01*
X145630243Y-95337165D01*
X145593474Y-95263626D01*
X145519935Y-95226857D01*
X145372856Y-95226857D01*
X145299317Y-95263626D01*
X145262548Y-95337165D01*
X145262548Y-95410704D01*
X145630243Y-95484243D01*
X144931622Y-95668091D02*
X144894853Y-95704860D01*
X144931622Y-95741630D01*
X144968392Y-95704860D01*
X144931622Y-95668091D01*
X144931622Y-95741630D01*
X144563927Y-95741630D02*
X144563927Y-94969470D01*
X144563927Y-95263626D02*
X144490388Y-95226857D01*
X144343310Y-95226857D01*
X144269771Y-95263626D01*
X144233001Y-95300396D01*
X144196232Y-95373935D01*
X144196232Y-95594552D01*
X144233001Y-95668091D01*
X144269771Y-95704860D01*
X144343310Y-95741630D01*
X144490388Y-95741630D01*
X144563927Y-95704860D01*
X143754997Y-95741630D02*
X143828536Y-95704860D01*
X143865306Y-95631321D01*
X143865306Y-94969470D01*
X143350533Y-95741630D02*
X143424072Y-95704860D01*
X143460841Y-95668091D01*
X143497611Y-95594552D01*
X143497611Y-95373935D01*
X143460841Y-95300396D01*
X143424072Y-95263626D01*
X143350533Y-95226857D01*
X143240224Y-95226857D01*
X143166685Y-95263626D01*
X143129916Y-95300396D01*
X143093146Y-95373935D01*
X143093146Y-95594552D01*
X143129916Y-95668091D01*
X143166685Y-95704860D01*
X143240224Y-95741630D01*
X143350533Y-95741630D01*
X142431295Y-95226857D02*
X142431295Y-95851939D01*
X142468064Y-95925478D01*
X142504834Y-95962247D01*
X142578373Y-95999017D01*
X142688681Y-95999017D01*
X142762220Y-95962247D01*
X142431295Y-95704860D02*
X142504834Y-95741630D01*
X142651912Y-95741630D01*
X142725451Y-95704860D01*
X142762220Y-95668091D01*
X142798990Y-95594552D01*
X142798990Y-95373935D01*
X142762220Y-95300396D01*
X142725451Y-95263626D01*
X142651912Y-95226857D01*
X142504834Y-95226857D01*
X142431295Y-95263626D01*
X142100369Y-95704860D02*
X142026830Y-95741630D01*
X141879752Y-95741630D01*
X141806213Y-95704860D01*
X141769443Y-95631321D01*
X141769443Y-95594552D01*
X141806213Y-95521013D01*
X141879752Y-95484243D01*
X141990060Y-95484243D01*
X142063599Y-95447474D01*
X142100369Y-95373935D01*
X142100369Y-95337165D01*
X142063599Y-95263626D01*
X141990060Y-95226857D01*
X141879752Y-95226857D01*
X141806213Y-95263626D01*
X141438517Y-95226857D02*
X141438517Y-95999017D01*
X141438517Y-95263626D02*
X141364978Y-95226857D01*
X141217900Y-95226857D01*
X141144361Y-95263626D01*
X141107592Y-95300396D01*
X141070822Y-95373935D01*
X141070822Y-95594552D01*
X141107592Y-95668091D01*
X141144361Y-95704860D01*
X141217900Y-95741630D01*
X141364978Y-95741630D01*
X141438517Y-95704860D01*
X140629588Y-95741630D02*
X140703127Y-95704860D01*
X140739896Y-95668091D01*
X140776666Y-95594552D01*
X140776666Y-95373935D01*
X140739896Y-95300396D01*
X140703127Y-95263626D01*
X140629588Y-95226857D01*
X140519279Y-95226857D01*
X140445740Y-95263626D01*
X140408971Y-95300396D01*
X140372201Y-95373935D01*
X140372201Y-95594552D01*
X140408971Y-95668091D01*
X140445740Y-95704860D01*
X140519279Y-95741630D01*
X140629588Y-95741630D01*
X140151584Y-95226857D02*
X139857428Y-95226857D01*
X140041276Y-94969470D02*
X140041276Y-95631321D01*
X140004506Y-95704860D01*
X139930967Y-95741630D01*
X139857428Y-95741630D01*
X139600041Y-95668091D02*
X139563272Y-95704860D01*
X139600041Y-95741630D01*
X139636811Y-95704860D01*
X139600041Y-95668091D01*
X139600041Y-95741630D01*
X138901420Y-95704860D02*
X138974959Y-95741630D01*
X139122037Y-95741630D01*
X139195576Y-95704860D01*
X139232346Y-95668091D01*
X139269116Y-95594552D01*
X139269116Y-95373935D01*
X139232346Y-95300396D01*
X139195576Y-95263626D01*
X139122037Y-95226857D01*
X138974959Y-95226857D01*
X138901420Y-95263626D01*
X138460186Y-95741630D02*
X138533725Y-95704860D01*
X138570495Y-95668091D01*
X138607264Y-95594552D01*
X138607264Y-95373935D01*
X138570495Y-95300396D01*
X138533725Y-95263626D01*
X138460186Y-95226857D01*
X138349877Y-95226857D01*
X138276338Y-95263626D01*
X138239569Y-95300396D01*
X138202799Y-95373935D01*
X138202799Y-95594552D01*
X138239569Y-95668091D01*
X138276338Y-95704860D01*
X138349877Y-95741630D01*
X138460186Y-95741630D01*
X137871874Y-95741630D02*
X137871874Y-95226857D01*
X137871874Y-95300396D02*
X137835104Y-95263626D01*
X137761565Y-95226857D01*
X137651256Y-95226857D01*
X137577717Y-95263626D01*
X137540948Y-95337165D01*
X137540948Y-95741630D01*
X137540948Y-95337165D02*
X137504178Y-95263626D01*
X137430639Y-95226857D01*
X137320331Y-95226857D01*
X137246792Y-95263626D01*
X137210022Y-95337165D01*
X137210022Y-95741630D01*
X146721669Y-114665888D02*
X147493829Y-114665888D01*
X146942286Y-114408501D01*
X147493829Y-114151115D01*
X146721669Y-114151115D01*
X146721669Y-113783419D02*
X147493829Y-113783419D01*
X146758439Y-113452494D02*
X146721669Y-113342185D01*
X146721669Y-113158337D01*
X146758439Y-113084798D01*
X146795208Y-113048029D01*
X146868747Y-113011259D01*
X146942286Y-113011259D01*
X147015825Y-113048029D01*
X147052595Y-113084798D01*
X147089364Y-113158337D01*
X147126134Y-113305416D01*
X147162903Y-113378955D01*
X147199673Y-113415724D01*
X147273212Y-113452494D01*
X147346751Y-113452494D01*
X147420290Y-113415724D01*
X147457060Y-113378955D01*
X147493829Y-113305416D01*
X147493829Y-113121568D01*
X147457060Y-113011259D01*
X147493829Y-112533256D02*
X147493829Y-112386177D01*
X147457060Y-112312638D01*
X147383520Y-112239099D01*
X147236442Y-112202330D01*
X146979056Y-112202330D01*
X146831978Y-112239099D01*
X146758439Y-112312638D01*
X146721669Y-112386177D01*
X146721669Y-112533256D01*
X146758439Y-112606795D01*
X146831978Y-112680334D01*
X146979056Y-112717103D01*
X147236442Y-112717103D01*
X147383520Y-112680334D01*
X147457060Y-112606795D01*
X147493829Y-112533256D01*
X157450629Y-114776196D02*
X156678469Y-114518810D01*
X157450629Y-114261423D01*
X156678469Y-113599572D02*
X156678469Y-114040806D01*
X156678469Y-113820189D02*
X157450629Y-113820189D01*
X157340320Y-113893728D01*
X157266781Y-113967267D01*
X157230012Y-114040806D01*
X156678469Y-113268646D02*
X157450629Y-113268646D01*
X157450629Y-112974490D01*
X157413860Y-112900951D01*
X157377090Y-112864181D01*
X157303551Y-112827412D01*
X157193242Y-112827412D01*
X157119703Y-112864181D01*
X157082934Y-112900951D01*
X157046164Y-112974490D01*
X157046164Y-113268646D01*
X152008788Y-93989030D02*
X152008788Y-93216870D01*
X152008788Y-93511026D02*
X151935249Y-93474257D01*
X151788171Y-93474257D01*
X151714632Y-93511026D01*
X151677862Y-93547796D01*
X151641093Y-93621335D01*
X151641093Y-93841952D01*
X151677862Y-93915491D01*
X151714632Y-93952260D01*
X151788171Y-93989030D01*
X151935249Y-93989030D01*
X152008788Y-93952260D01*
X151383706Y-93474257D02*
X151199858Y-93989030D01*
X151016011Y-93474257D02*
X151199858Y-93989030D01*
X151273397Y-94172878D01*
X151310167Y-94209647D01*
X151383706Y-94246417D01*
X150243851Y-93216870D02*
X149802616Y-93216870D01*
X150023234Y-93989030D02*
X150023234Y-93216870D01*
X149545230Y-93989030D02*
X149545230Y-93474257D01*
X149545230Y-93216870D02*
X149581999Y-93253640D01*
X149545230Y-93290409D01*
X149508460Y-93253640D01*
X149545230Y-93216870D01*
X149545230Y-93290409D01*
X149214304Y-93952260D02*
X149140765Y-93989030D01*
X148993687Y-93989030D01*
X148920148Y-93952260D01*
X148883378Y-93878721D01*
X148883378Y-93841952D01*
X148920148Y-93768413D01*
X148993687Y-93731643D01*
X149103996Y-93731643D01*
X149177535Y-93694874D01*
X149214304Y-93621335D01*
X149214304Y-93584565D01*
X149177535Y-93511026D01*
X149103996Y-93474257D01*
X148993687Y-93474257D01*
X148920148Y-93511026D01*
X148552453Y-93989030D02*
X148552453Y-93216870D01*
X148221527Y-93989030D02*
X148221527Y-93584565D01*
X148258296Y-93511026D01*
X148331836Y-93474257D01*
X148442144Y-93474257D01*
X148515683Y-93511026D01*
X148552453Y-93547796D01*
X147522906Y-93989030D02*
X147522906Y-93584565D01*
X147559676Y-93511026D01*
X147633215Y-93474257D01*
X147780293Y-93474257D01*
X147853832Y-93511026D01*
X147522906Y-93952260D02*
X147596445Y-93989030D01*
X147780293Y-93989030D01*
X147853832Y-93952260D01*
X147890601Y-93878721D01*
X147890601Y-93805182D01*
X147853832Y-93731643D01*
X147780293Y-93694874D01*
X147596445Y-93694874D01*
X147522906Y-93658104D01*
X147155211Y-93989030D02*
X147155211Y-93474257D01*
X147155211Y-93547796D02*
X147118441Y-93511026D01*
X147044902Y-93474257D01*
X146934594Y-93474257D01*
X146861055Y-93511026D01*
X146824285Y-93584565D01*
X146824285Y-93989030D01*
X146824285Y-93584565D02*
X146787516Y-93511026D01*
X146713976Y-93474257D01*
X146603668Y-93474257D01*
X146530129Y-93511026D01*
X146493359Y-93584565D01*
X146493359Y-93989030D01*
X145537352Y-93989030D02*
X145537352Y-93216870D01*
X145353504Y-93216870D01*
X145243196Y-93253640D01*
X145169656Y-93327179D01*
X145132887Y-93400718D01*
X145096117Y-93547796D01*
X145096117Y-93658104D01*
X145132887Y-93805182D01*
X145169656Y-93878721D01*
X145243196Y-93952260D01*
X145353504Y-93989030D01*
X145537352Y-93989030D01*
X144765192Y-93989030D02*
X144765192Y-93216870D01*
X144434266Y-93989030D02*
X144434266Y-93584565D01*
X144471036Y-93511026D01*
X144544575Y-93474257D01*
X144654883Y-93474257D01*
X144728422Y-93511026D01*
X144765192Y-93547796D01*
X143735645Y-93989030D02*
X143735645Y-93584565D01*
X143772415Y-93511026D01*
X143845954Y-93474257D01*
X143993032Y-93474257D01*
X144066571Y-93511026D01*
X143735645Y-93952260D02*
X143809184Y-93989030D01*
X143993032Y-93989030D01*
X144066571Y-93952260D01*
X144103340Y-93878721D01*
X144103340Y-93805182D01*
X144066571Y-93731643D01*
X143993032Y-93694874D01*
X143809184Y-93694874D01*
X143735645Y-93658104D01*
X143367950Y-93989030D02*
X143367950Y-93474257D01*
X143367950Y-93621335D02*
X143331180Y-93547796D01*
X143294411Y-93511026D01*
X143220872Y-93474257D01*
X143147333Y-93474257D01*
X139251408Y-113919854D02*
X139214639Y-113956623D01*
X139177869Y-114066932D01*
X139177869Y-114140471D01*
X139214639Y-114250779D01*
X139288178Y-114324318D01*
X139361717Y-114361088D01*
X139508795Y-114397857D01*
X139619103Y-114397857D01*
X139766181Y-114361088D01*
X139839720Y-114324318D01*
X139913260Y-114250779D01*
X139950029Y-114140471D01*
X139950029Y-114066932D01*
X139913260Y-113956623D01*
X139876490Y-113919854D01*
X139214639Y-113625697D02*
X139177869Y-113515389D01*
X139177869Y-113331541D01*
X139214639Y-113258002D01*
X139251408Y-113221233D01*
X139324947Y-113184463D01*
X139398486Y-113184463D01*
X139472025Y-113221233D01*
X139508795Y-113258002D01*
X139545564Y-113331541D01*
X139582334Y-113478619D01*
X139619103Y-113552158D01*
X139655873Y-113588928D01*
X139729412Y-113625697D01*
X139802951Y-113625697D01*
X139876490Y-113588928D01*
X139913260Y-113552158D01*
X139950029Y-113478619D01*
X139950029Y-113294772D01*
X139913260Y-113184463D01*
X144105469Y-114538888D02*
X144877629Y-114538888D01*
X144326086Y-114281501D01*
X144877629Y-114024115D01*
X144105469Y-114024115D01*
X144877629Y-113509341D02*
X144877629Y-113362263D01*
X144840860Y-113288724D01*
X144767320Y-113215185D01*
X144620242Y-113178416D01*
X144362856Y-113178416D01*
X144215778Y-113215185D01*
X144142239Y-113288724D01*
X144105469Y-113362263D01*
X144105469Y-113509341D01*
X144142239Y-113582880D01*
X144215778Y-113656419D01*
X144362856Y-113693189D01*
X144620242Y-113693189D01*
X144767320Y-113656419D01*
X144840860Y-113582880D01*
X144877629Y-113509341D01*
X144142239Y-112884259D02*
X144105469Y-112773951D01*
X144105469Y-112590103D01*
X144142239Y-112516564D01*
X144179008Y-112479795D01*
X144252547Y-112443025D01*
X144326086Y-112443025D01*
X144399625Y-112479795D01*
X144436395Y-112516564D01*
X144473164Y-112590103D01*
X144509934Y-112737181D01*
X144546703Y-112810720D01*
X144583473Y-112847490D01*
X144657012Y-112884259D01*
X144730551Y-112884259D01*
X144804090Y-112847490D01*
X144840860Y-112810720D01*
X144877629Y-112737181D01*
X144877629Y-112553334D01*
X144840860Y-112443025D01*
X144105469Y-112112099D02*
X144877629Y-112112099D01*
X160041429Y-114120393D02*
X160041429Y-114488088D01*
X159673734Y-114524857D01*
X159710503Y-114488088D01*
X159747273Y-114414549D01*
X159747273Y-114230701D01*
X159710503Y-114157162D01*
X159673734Y-114120393D01*
X159600195Y-114083623D01*
X159416347Y-114083623D01*
X159342808Y-114120393D01*
X159306039Y-114157162D01*
X159269269Y-114230701D01*
X159269269Y-114414549D01*
X159306039Y-114488088D01*
X159342808Y-114524857D01*
X160041429Y-113863006D02*
X159269269Y-113605619D01*
X160041429Y-113348233D01*
X154986829Y-114776196D02*
X154214669Y-114518810D01*
X154986829Y-114261423D01*
X154214669Y-113599572D02*
X154214669Y-114040806D01*
X154214669Y-113820189D02*
X154986829Y-113820189D01*
X154876520Y-113893728D01*
X154802981Y-113967267D01*
X154766212Y-114040806D01*
X154214669Y-113268646D02*
X154986829Y-113268646D01*
X154214669Y-112827412D01*
X154986829Y-112827412D01*
X141602239Y-114677257D02*
X141565469Y-114566949D01*
X141565469Y-114383101D01*
X141602239Y-114309562D01*
X141639008Y-114272793D01*
X141712547Y-114236023D01*
X141786086Y-114236023D01*
X141859625Y-114272793D01*
X141896395Y-114309562D01*
X141933164Y-114383101D01*
X141969934Y-114530179D01*
X142006703Y-114603718D01*
X142043473Y-114640488D01*
X142117012Y-114677257D01*
X142190551Y-114677257D01*
X142264090Y-114640488D01*
X142300860Y-114603718D01*
X142337629Y-114530179D01*
X142337629Y-114346332D01*
X142300860Y-114236023D01*
X141639008Y-113463863D02*
X141602239Y-113500633D01*
X141565469Y-113610941D01*
X141565469Y-113684480D01*
X141602239Y-113794789D01*
X141675778Y-113868328D01*
X141749317Y-113905097D01*
X141896395Y-113941867D01*
X142006703Y-113941867D01*
X142153781Y-113905097D01*
X142227320Y-113868328D01*
X142300860Y-113794789D01*
X142337629Y-113684480D01*
X142337629Y-113610941D01*
X142300860Y-113500633D01*
X142264090Y-113463863D01*
X141565469Y-112765242D02*
X141565469Y-113132937D01*
X142337629Y-113132937D01*
X141565469Y-112507856D02*
X142337629Y-112507856D01*
X141565469Y-112066621D02*
X142006703Y-112397547D01*
X142337629Y-112066621D02*
X141896395Y-112507856D01*
X152361727Y-97233457D02*
X152177879Y-97748230D01*
X151994032Y-97233457D01*
X151368950Y-97233457D02*
X151368950Y-97748230D01*
X151552797Y-96939300D02*
X151736645Y-97490843D01*
X151258641Y-97490843D01*
X150964485Y-97674691D02*
X150927716Y-97711460D01*
X150964485Y-97748230D01*
X151001255Y-97711460D01*
X150964485Y-97674691D01*
X150964485Y-97748230D01*
X150449712Y-96976070D02*
X150376173Y-96976070D01*
X150302634Y-97012840D01*
X150265864Y-97049609D01*
X150229095Y-97123148D01*
X150192325Y-97270226D01*
X150192325Y-97454074D01*
X150229095Y-97601152D01*
X150265864Y-97674691D01*
X150302634Y-97711460D01*
X150376173Y-97748230D01*
X150449712Y-97748230D01*
X150523251Y-97711460D01*
X150560020Y-97674691D01*
X150596790Y-97601152D01*
X150633559Y-97454074D01*
X150633559Y-97270226D01*
X150596790Y-97123148D01*
X150560020Y-97049609D01*
X150523251Y-97012840D01*
X150449712Y-96976070D01*
X148868622Y-97748230D02*
X149309856Y-97748230D01*
X149089239Y-97748230D02*
X149089239Y-96976070D01*
X149162778Y-97086379D01*
X149236317Y-97159918D01*
X149309856Y-97196687D01*
X148133232Y-97748230D02*
X148574466Y-97748230D01*
X148353849Y-97748230D02*
X148353849Y-96976070D01*
X148427388Y-97086379D01*
X148500927Y-97159918D01*
X148574466Y-97196687D01*
X147250763Y-96939300D02*
X147912615Y-97932078D01*
X146846298Y-96976070D02*
X146772759Y-96976070D01*
X146699220Y-97012840D01*
X146662451Y-97049609D01*
X146625681Y-97123148D01*
X146588912Y-97270226D01*
X146588912Y-97454074D01*
X146625681Y-97601152D01*
X146662451Y-97674691D01*
X146699220Y-97711460D01*
X146772759Y-97748230D01*
X146846298Y-97748230D01*
X146919837Y-97711460D01*
X146956607Y-97674691D01*
X146993376Y-97601152D01*
X147030146Y-97454074D01*
X147030146Y-97270226D01*
X146993376Y-97123148D01*
X146956607Y-97049609D01*
X146919837Y-97012840D01*
X146846298Y-96976070D01*
X146294756Y-97049609D02*
X146257986Y-97012840D01*
X146184447Y-96976070D01*
X146000599Y-96976070D01*
X145927060Y-97012840D01*
X145890291Y-97049609D01*
X145853521Y-97123148D01*
X145853521Y-97196687D01*
X145890291Y-97306996D01*
X146331525Y-97748230D01*
X145853521Y-97748230D01*
X144971053Y-96939300D02*
X145632904Y-97932078D01*
X144750436Y-97049609D02*
X144713666Y-97012840D01*
X144640127Y-96976070D01*
X144456279Y-96976070D01*
X144382740Y-97012840D01*
X144345971Y-97049609D01*
X144309201Y-97123148D01*
X144309201Y-97196687D01*
X144345971Y-97306996D01*
X144787205Y-97748230D01*
X144309201Y-97748230D01*
X143831197Y-96976070D02*
X143757658Y-96976070D01*
X143684119Y-97012840D01*
X143647350Y-97049609D01*
X143610580Y-97123148D01*
X143573811Y-97270226D01*
X143573811Y-97454074D01*
X143610580Y-97601152D01*
X143647350Y-97674691D01*
X143684119Y-97711460D01*
X143757658Y-97748230D01*
X143831197Y-97748230D01*
X143904736Y-97711460D01*
X143941506Y-97674691D01*
X143978276Y-97601152D01*
X144015045Y-97454074D01*
X144015045Y-97270226D01*
X143978276Y-97123148D01*
X143941506Y-97049609D01*
X143904736Y-97012840D01*
X143831197Y-96976070D01*
X143279655Y-97049609D02*
X143242885Y-97012840D01*
X143169346Y-96976070D01*
X142985498Y-96976070D01*
X142911959Y-97012840D01*
X142875190Y-97049609D01*
X142838420Y-97123148D01*
X142838420Y-97196687D01*
X142875190Y-97306996D01*
X143316424Y-97748230D01*
X142838420Y-97748230D01*
X142360416Y-96976070D02*
X142286877Y-96976070D01*
X142213338Y-97012840D01*
X142176569Y-97049609D01*
X142139799Y-97123148D01*
X142103030Y-97270226D01*
X142103030Y-97454074D01*
X142139799Y-97601152D01*
X142176569Y-97674691D01*
X142213338Y-97711460D01*
X142286877Y-97748230D01*
X142360416Y-97748230D01*
X142433956Y-97711460D01*
X142470725Y-97674691D01*
X142507495Y-97601152D01*
X142544264Y-97454074D01*
X142544264Y-97270226D01*
X142507495Y-97123148D01*
X142470725Y-97049609D01*
X142433956Y-97012840D01*
X142360416Y-96976070D01*
X152573829Y-114699996D02*
X151801669Y-114442610D01*
X152573829Y-114185223D01*
X152500290Y-113964606D02*
X152537060Y-113927836D01*
X152573829Y-113854297D01*
X152573829Y-113670450D01*
X152537060Y-113596911D01*
X152500290Y-113560141D01*
X152426751Y-113523372D01*
X152353212Y-113523372D01*
X152242903Y-113560141D01*
X151801669Y-114001376D01*
X151801669Y-113523372D01*
X151801669Y-113192446D02*
X152573829Y-113192446D01*
X152573829Y-112898290D01*
X152537060Y-112824751D01*
X152500290Y-112787981D01*
X152426751Y-112751212D01*
X152316442Y-112751212D01*
X152242903Y-112787981D01*
X152206134Y-112824751D01*
X152169364Y-112898290D01*
X152169364Y-113192446D01*
X150008429Y-114725396D02*
X149236269Y-114468010D01*
X150008429Y-114210623D01*
X149934890Y-113990006D02*
X149971660Y-113953236D01*
X150008429Y-113879697D01*
X150008429Y-113695850D01*
X149971660Y-113622311D01*
X149934890Y-113585541D01*
X149861351Y-113548772D01*
X149787812Y-113548772D01*
X149677503Y-113585541D01*
X149236269Y-114026776D01*
X149236269Y-113548772D01*
X149236269Y-113217846D02*
X150008429Y-113217846D01*
X149236269Y-112776612D01*
X150008429Y-112776612D01*
D11*
X159334004Y-97299304D02*
X158534004Y-97299304D01*
X159334004Y-97680257D02*
X158534004Y-97680257D01*
X159334004Y-98137400D01*
X158534004Y-98137400D01*
X158534004Y-98404066D02*
X158534004Y-98861209D01*
X159334004Y-98632638D02*
X158534004Y-98632638D01*
X158483204Y-102379276D02*
X158483204Y-102912609D01*
X159283204Y-102379276D01*
X159283204Y-102912609D01*
X158483204Y-103141180D02*
X159283204Y-103674514D01*
X158483204Y-103674514D02*
X159283204Y-103141180D01*
X159245109Y-99813961D02*
X159283204Y-99928247D01*
X159283204Y-100118723D01*
X159245109Y-100194914D01*
X159207014Y-100233009D01*
X159130823Y-100271104D01*
X159054633Y-100271104D01*
X158978442Y-100233009D01*
X158940347Y-100194914D01*
X158902252Y-100118723D01*
X158864157Y-99966342D01*
X158826061Y-99890152D01*
X158787966Y-99852057D01*
X158711776Y-99813961D01*
X158635585Y-99813961D01*
X158559395Y-99852057D01*
X158521300Y-99890152D01*
X158483204Y-99966342D01*
X158483204Y-100156819D01*
X158521300Y-100271104D01*
X159054633Y-100575866D02*
X159054633Y-100956819D01*
X159283204Y-100499676D02*
X158483204Y-100766342D01*
X159283204Y-101033009D01*
X158521300Y-101718723D02*
X158483204Y-101642533D01*
X158483204Y-101528247D01*
X158521300Y-101413961D01*
X158597490Y-101337771D01*
X158673680Y-101299676D01*
X158826061Y-101261580D01*
X158940347Y-101261580D01*
X159092728Y-101299676D01*
X159168919Y-101337771D01*
X159245109Y-101413961D01*
X159283204Y-101528247D01*
X159283204Y-101604438D01*
X159245109Y-101718723D01*
X159207014Y-101756819D01*
X158940347Y-101756819D01*
X158940347Y-101604438D01*
X159232414Y-105643104D02*
X159270509Y-105605009D01*
X159308604Y-105490723D01*
X159308604Y-105414533D01*
X159270509Y-105300247D01*
X159194319Y-105224057D01*
X159118128Y-105185961D01*
X158965747Y-105147866D01*
X158851461Y-105147866D01*
X158699080Y-105185961D01*
X158622890Y-105224057D01*
X158546700Y-105300247D01*
X158508604Y-105414533D01*
X158508604Y-105490723D01*
X158546700Y-105605009D01*
X158584795Y-105643104D01*
X158889557Y-106252628D02*
X158889557Y-105985961D01*
X159308604Y-105985961D02*
X158508604Y-105985961D01*
X158508604Y-106366914D01*
G36*
X149103500Y-105584500D02*
G01*
X149374620Y-105671270D01*
X149627700Y-105801600D01*
X150256100Y-105289200D01*
X150686900Y-105720000D01*
X150174500Y-106348400D01*
X150391600Y-106872600D01*
X151198300Y-106954500D01*
X151198300Y-107563900D01*
X150391600Y-107645800D01*
X150174500Y-108170000D01*
X150686900Y-108798400D01*
X150256100Y-109229200D01*
X149627700Y-108716800D01*
X149503904Y-108787246D01*
X149374700Y-108847200D01*
X149015900Y-107981000D01*
X149212564Y-107863140D01*
X149366541Y-107693261D01*
X149464568Y-107485996D01*
X149498200Y-107259200D01*
X149475810Y-107073501D01*
X149409925Y-106898446D01*
X149304320Y-106744067D01*
X149165047Y-106619213D01*
X149000091Y-106531039D01*
X148818904Y-106484600D01*
X148631871Y-106482557D01*
X148449713Y-106525027D01*
X148282870Y-106609576D01*
X148140904Y-106731358D01*
X148031951Y-106883393D01*
X147962257Y-107056967D01*
X147935816Y-107242133D01*
X147954144Y-107428276D01*
X148016190Y-107604729D01*
X148118397Y-107761378D01*
X148417900Y-107981000D01*
X148059100Y-108847200D01*
X147806100Y-108716800D01*
X147177700Y-109229200D01*
X146746900Y-108798400D01*
X147259300Y-108170000D01*
X147042200Y-107645800D01*
X146235500Y-107563900D01*
X146235500Y-106954500D01*
X147042200Y-106872600D01*
X147128970Y-106601480D01*
X147259300Y-106348400D01*
X146746900Y-105720000D01*
X147177700Y-105289200D01*
X147806100Y-105801600D01*
X148059180Y-105671270D01*
X148330300Y-105584500D01*
X148412200Y-104777800D01*
X149021600Y-104777800D01*
X149103500Y-105584500D01*
G37*
M02*
