G04 #@! TF.GenerationSoftware,KiCad,Pcbnew,(5.99.0-8018-g9a0f685a75)*
G04 #@! TF.CreationDate,2021-09-12T19:48:39+09:30*
G04 #@! TF.ProjectId,ADE7763_Breakout,41444537-3736-4335-9f42-7265616b6f75,rev?*
G04 #@! TF.SameCoordinates,Original*
G04 #@! TF.FileFunction,Copper,L2,Bot*
G04 #@! TF.FilePolarity,Positive*
%FSLAX46Y46*%
G04 Gerber Fmt 4.6, Leading zero omitted, Abs format (unit mm)*
G04 Created by KiCad (PCBNEW (5.99.0-8018-g9a0f685a75)) date 2021-09-12 19:48:39*
%MOMM*%
%LPD*%
G01*
G04 APERTURE LIST*
G04 #@! TA.AperFunction,ComponentPad*
%ADD10R,1.651000X1.651000*%
G04 #@! TD*
G04 #@! TA.AperFunction,ComponentPad*
%ADD11C,1.651000*%
G04 #@! TD*
G04 #@! TA.AperFunction,SMDPad,CuDef*
%ADD12R,2.540000X1.270000*%
G04 #@! TD*
G04 #@! TA.AperFunction,ViaPad*
%ADD13C,0.685800*%
G04 #@! TD*
G04 #@! TA.AperFunction,Conductor*
%ADD14C,0.254000*%
G04 #@! TD*
G04 #@! TA.AperFunction,Conductor*
%ADD15C,0.406400*%
G04 #@! TD*
G04 APERTURE END LIST*
D10*
X159842100Y-116555600D03*
D11*
X157302100Y-116555600D03*
X154762100Y-116555600D03*
X152222100Y-116555600D03*
X149682100Y-116555600D03*
X147142100Y-116555600D03*
X144602100Y-116555600D03*
X142062100Y-116555600D03*
X139522100Y-116555600D03*
X136982100Y-116555600D03*
D12*
X162001100Y-98013600D03*
X162001100Y-103093600D03*
X162001100Y-100553600D03*
X162001100Y-105633600D03*
D13*
X156209900Y-106903600D03*
X156768700Y-105633600D03*
X140969900Y-112491600D03*
X143281300Y-112415400D03*
X143357500Y-107513200D03*
X151333100Y-108656200D03*
X148031100Y-101823600D03*
X156590900Y-112212200D03*
X140969900Y-106751200D03*
X148031100Y-115158600D03*
X148666100Y-110713600D03*
X147713600Y-104681100D03*
X149301100Y-111983600D03*
X145173600Y-103411100D03*
X147078600Y-101823600D03*
X144856100Y-104363600D03*
X145808600Y-102776100D03*
X155333600Y-113888600D03*
X156921100Y-110396100D03*
X154406500Y-96997600D03*
X152882500Y-98928000D03*
X151968100Y-98928000D03*
X152069700Y-99944000D03*
D14*
X156209900Y-106903600D02*
X156768700Y-106344800D01*
X156768700Y-106344800D02*
X156768700Y-105633600D01*
D15*
X148031100Y-110713600D02*
X148031100Y-115158600D01*
X148666100Y-110713600D02*
X148031100Y-110713600D01*
X152476100Y-104681100D02*
X159461100Y-111666100D01*
X159461100Y-111666100D02*
X159461100Y-116111100D01*
X159461100Y-116111100D02*
X159778600Y-116428600D01*
X159778600Y-116428600D02*
X159842100Y-116555600D01*
X147713600Y-104681100D02*
X152476100Y-104681100D01*
D14*
X149618600Y-112301100D02*
X149301100Y-111983600D01*
X149618600Y-116428600D02*
X149618600Y-112301100D01*
X149618600Y-116428600D02*
X149682100Y-116555600D01*
X144538600Y-116428600D02*
X144538600Y-115158600D01*
X144538600Y-116428600D02*
X144602100Y-116555600D01*
X144538600Y-115158600D02*
X145491100Y-114206100D01*
X145491100Y-114206100D02*
X145491100Y-103728600D01*
X145491100Y-103728600D02*
X145173600Y-103411100D01*
X139776100Y-116111100D02*
X140093600Y-115793600D01*
X139776100Y-116428600D02*
X139522100Y-116555600D01*
X140093600Y-115793600D02*
X140093600Y-101823600D01*
X140093600Y-101823600D02*
X147078600Y-101823600D01*
X139776100Y-116428600D02*
X139776100Y-116111100D01*
X141998600Y-116428600D02*
X141998600Y-107221100D01*
X141998600Y-116428600D02*
X142062100Y-116555600D01*
X141998600Y-107221100D02*
X144856100Y-104363600D01*
X146761100Y-116111100D02*
X146761100Y-103728600D01*
X147078600Y-116428600D02*
X146761100Y-116111100D01*
X146761100Y-103728600D02*
X145808600Y-102776100D01*
X147078600Y-116428600D02*
X147142100Y-116555600D01*
X157238600Y-115793600D02*
X155333600Y-113888600D01*
X157238600Y-116428600D02*
X157238600Y-115793600D01*
X157238600Y-116428600D02*
X157302100Y-116555600D01*
X154698600Y-112618600D02*
X156921100Y-110396100D01*
X154698600Y-116428600D02*
X154698600Y-112618600D01*
X154698600Y-116428600D02*
X154762100Y-116555600D01*
X155219300Y-97810400D02*
X154406500Y-96997600D01*
X161924900Y-98013600D02*
X161721700Y-97810400D01*
X161721700Y-97810400D02*
X155219300Y-97810400D01*
X161924900Y-98013600D02*
X162001100Y-98013600D01*
X160299300Y-98928000D02*
X152882500Y-98928000D01*
X161924900Y-100553600D02*
X162001100Y-100553600D01*
X161924900Y-100553600D02*
X160299300Y-98928000D01*
X161924900Y-103093600D02*
X161721700Y-102890400D01*
X161721700Y-102890400D02*
X155930500Y-102890400D01*
X161924900Y-103093600D02*
X162001100Y-103093600D01*
X155930500Y-102890400D02*
X151968100Y-98928000D01*
X152374500Y-99944000D02*
X152069700Y-99944000D01*
X158064100Y-105633600D02*
X152374500Y-99944000D01*
X162001100Y-105633600D02*
X158064100Y-105633600D01*
G04 #@! TA.AperFunction,Conductor*
G36*
X162273773Y-91879682D02*
G01*
X162274766Y-91879925D01*
X162281086Y-91881471D01*
X162403636Y-91883179D01*
X162408274Y-91883351D01*
X162472824Y-91887256D01*
X162478839Y-91887802D01*
X162694990Y-91914049D01*
X162700962Y-91914957D01*
X162751999Y-91924310D01*
X162757928Y-91925583D01*
X162969291Y-91977679D01*
X162975144Y-91979311D01*
X163024713Y-91994757D01*
X163030458Y-91996739D01*
X163233966Y-92073920D01*
X163239581Y-92076246D01*
X163286923Y-92097553D01*
X163292386Y-92100213D01*
X163485113Y-92201363D01*
X163490397Y-92204344D01*
X163534853Y-92231220D01*
X163539954Y-92234518D01*
X163719050Y-92358139D01*
X163723945Y-92361740D01*
X163764841Y-92393780D01*
X163769509Y-92397671D01*
X163932406Y-92541985D01*
X163936831Y-92546150D01*
X163973544Y-92582863D01*
X163977710Y-92587288D01*
X164122056Y-92750223D01*
X164125935Y-92754878D01*
X164157960Y-92795755D01*
X164161554Y-92800640D01*
X164285192Y-92979761D01*
X164288481Y-92984847D01*
X164315365Y-93029318D01*
X164318333Y-93034581D01*
X164344545Y-93084522D01*
X164419484Y-93227308D01*
X164422144Y-93232771D01*
X164443456Y-93280124D01*
X164445782Y-93285739D01*
X164522958Y-93489236D01*
X164524939Y-93494978D01*
X164540394Y-93544570D01*
X164542022Y-93550408D01*
X164572381Y-93673581D01*
X164594112Y-93761748D01*
X164595387Y-93767687D01*
X164604747Y-93818761D01*
X164605653Y-93824717D01*
X164616838Y-93916831D01*
X164631896Y-94040853D01*
X164632445Y-94046902D01*
X164634829Y-94086298D01*
X164636148Y-94108098D01*
X164636348Y-94111407D01*
X164636522Y-94116082D01*
X164637636Y-94196040D01*
X164638226Y-94238417D01*
X164639557Y-94243899D01*
X164639558Y-94243906D01*
X164640059Y-94245969D01*
X164642900Y-94269707D01*
X164642900Y-115737365D01*
X164640018Y-115761273D01*
X164638229Y-115768586D01*
X164636611Y-115884758D01*
X164636522Y-115891119D01*
X164636349Y-115895772D01*
X164635117Y-115916136D01*
X164632446Y-115960291D01*
X164631897Y-115966342D01*
X164605654Y-116182474D01*
X164604739Y-116188481D01*
X164595389Y-116239503D01*
X164594116Y-116245437D01*
X164542943Y-116453058D01*
X164542024Y-116456785D01*
X164540395Y-116462627D01*
X164524934Y-116512243D01*
X164522978Y-116517914D01*
X164445763Y-116721510D01*
X164443470Y-116727046D01*
X164422154Y-116774409D01*
X164419494Y-116779871D01*
X164318329Y-116972627D01*
X164315354Y-116977901D01*
X164288493Y-117022332D01*
X164285200Y-117027427D01*
X164161521Y-117206607D01*
X164157970Y-117211433D01*
X164125947Y-117252307D01*
X164122060Y-117256972D01*
X163977707Y-117419915D01*
X163973541Y-117424340D01*
X163936838Y-117461043D01*
X163932413Y-117465208D01*
X163769476Y-117609557D01*
X163764828Y-117613430D01*
X163723963Y-117645446D01*
X163719089Y-117649033D01*
X163610909Y-117723705D01*
X163539931Y-117772698D01*
X163534841Y-117775989D01*
X163490377Y-117802868D01*
X163485132Y-117805827D01*
X163376446Y-117862869D01*
X163292392Y-117906984D01*
X163286930Y-117909644D01*
X163239575Y-117930957D01*
X163233969Y-117933279D01*
X163030452Y-118010463D01*
X163024708Y-118012445D01*
X162975143Y-118027890D01*
X162969289Y-118029522D01*
X162757938Y-118081615D01*
X162752004Y-118082889D01*
X162700959Y-118092243D01*
X162694975Y-118093154D01*
X162666586Y-118096601D01*
X162478847Y-118119396D01*
X162472798Y-118119945D01*
X162433402Y-118122329D01*
X162408272Y-118123849D01*
X162403637Y-118124021D01*
X162338404Y-118124930D01*
X162286928Y-118125647D01*
X162286925Y-118125647D01*
X162281283Y-118125726D01*
X162275801Y-118127057D01*
X162275794Y-118127058D01*
X162273731Y-118127559D01*
X162249993Y-118130400D01*
X134752335Y-118130400D01*
X134728427Y-118127518D01*
X134727434Y-118127275D01*
X134721114Y-118125729D01*
X134598563Y-118124021D01*
X134593928Y-118123849D01*
X134547453Y-118121038D01*
X134529409Y-118119946D01*
X134523358Y-118119397D01*
X134307226Y-118093154D01*
X134301219Y-118092239D01*
X134268841Y-118086306D01*
X134250194Y-118082888D01*
X134244260Y-118081615D01*
X134032905Y-118029521D01*
X134027073Y-118027895D01*
X133977457Y-118012434D01*
X133971786Y-118010478D01*
X133768190Y-117933263D01*
X133762654Y-117930970D01*
X133715270Y-117909644D01*
X133709828Y-117906994D01*
X133709809Y-117906984D01*
X133517073Y-117805829D01*
X133511810Y-117802860D01*
X133498588Y-117794867D01*
X133467368Y-117775993D01*
X133462267Y-117772696D01*
X133283093Y-117649021D01*
X133278267Y-117645470D01*
X133237385Y-117613441D01*
X133233037Y-117609817D01*
X136256531Y-117609817D01*
X136256632Y-117610452D01*
X136261534Y-117616091D01*
X136335053Y-117667569D01*
X136342631Y-117671944D01*
X136537974Y-117763034D01*
X136546199Y-117766027D01*
X136754384Y-117821811D01*
X136763013Y-117823332D01*
X136977722Y-117842117D01*
X136986478Y-117842117D01*
X137201187Y-117823332D01*
X137209816Y-117821811D01*
X137418001Y-117766027D01*
X137426226Y-117763034D01*
X137621569Y-117671944D01*
X137629147Y-117667569D01*
X137699732Y-117618145D01*
X137707887Y-117607323D01*
X137707899Y-117606681D01*
X137704047Y-117600271D01*
X136993368Y-116889591D01*
X136981289Y-116883436D01*
X136976177Y-116884246D01*
X136262685Y-117597739D01*
X136256531Y-117609817D01*
X133233037Y-117609817D01*
X133232728Y-117609560D01*
X133069785Y-117465207D01*
X133065360Y-117461041D01*
X133028657Y-117424338D01*
X133024492Y-117419913D01*
X132880143Y-117256976D01*
X132876270Y-117252328D01*
X132844253Y-117211462D01*
X132840661Y-117206581D01*
X132835317Y-117198838D01*
X132739457Y-117059962D01*
X132717002Y-117027431D01*
X132713706Y-117022332D01*
X132686832Y-116977877D01*
X132683873Y-116972632D01*
X132615781Y-116842892D01*
X132582716Y-116779892D01*
X132580056Y-116774430D01*
X132571085Y-116754498D01*
X132558739Y-116727065D01*
X132556421Y-116721469D01*
X132479237Y-116517952D01*
X132477255Y-116512208D01*
X132461810Y-116462643D01*
X132460178Y-116456789D01*
X132408085Y-116245438D01*
X132406810Y-116239498D01*
X132400318Y-116204072D01*
X132397457Y-116188459D01*
X132396545Y-116182470D01*
X132378078Y-116030373D01*
X133234414Y-116030373D01*
X133235437Y-116045962D01*
X133235754Y-116050799D01*
X133235752Y-116050805D01*
X133235754Y-116050805D01*
X133248875Y-116251004D01*
X133250008Y-116255465D01*
X133301486Y-116458157D01*
X133303301Y-116465305D01*
X133395868Y-116666100D01*
X133523478Y-116846663D01*
X133526783Y-116849882D01*
X133526785Y-116849885D01*
X133592853Y-116914246D01*
X133681855Y-117000948D01*
X133685688Y-117003509D01*
X133685689Y-117003510D01*
X133728913Y-117032391D01*
X133865697Y-117123787D01*
X133869931Y-117125606D01*
X134064419Y-117209164D01*
X134068846Y-117211066D01*
X134284498Y-117259864D01*
X134358863Y-117262786D01*
X134500823Y-117268363D01*
X134500824Y-117268363D01*
X134505432Y-117268544D01*
X134509989Y-117267883D01*
X134509994Y-117267883D01*
X134617416Y-117252307D01*
X134724249Y-117236817D01*
X134933619Y-117165746D01*
X135126532Y-117057709D01*
X135156974Y-117032391D01*
X135292979Y-116919276D01*
X135296526Y-116916326D01*
X135407150Y-116783316D01*
X135434961Y-116749877D01*
X135434963Y-116749875D01*
X135437909Y-116746332D01*
X135515336Y-116608077D01*
X135560991Y-116565875D01*
X135622734Y-116558567D01*
X135676981Y-116588947D01*
X135703325Y-116648466D01*
X135714368Y-116774687D01*
X135715889Y-116783316D01*
X135771673Y-116991501D01*
X135774666Y-116999726D01*
X135865756Y-117195069D01*
X135870131Y-117202647D01*
X135919555Y-117273232D01*
X135930377Y-117281387D01*
X135931019Y-117281399D01*
X135937429Y-117277547D01*
X136648109Y-116566868D01*
X136653437Y-116556411D01*
X137309936Y-116556411D01*
X137310746Y-116561523D01*
X138024239Y-117275015D01*
X138036317Y-117281169D01*
X138036952Y-117281068D01*
X138042591Y-117276166D01*
X138094069Y-117202647D01*
X138098444Y-117195069D01*
X138189534Y-116999726D01*
X138192527Y-116991501D01*
X138248311Y-116783316D01*
X138249832Y-116774687D01*
X138260624Y-116651329D01*
X138545782Y-116651329D01*
X138546790Y-116656327D01*
X138546790Y-116656329D01*
X138574184Y-116792186D01*
X138584972Y-116845690D01*
X138662443Y-117028200D01*
X138775031Y-117191406D01*
X138778709Y-117194933D01*
X138868530Y-117281068D01*
X138918136Y-117328639D01*
X138922449Y-117331355D01*
X139070108Y-117424340D01*
X139085913Y-117434293D01*
X139271508Y-117504054D01*
X139467339Y-117535070D01*
X139472430Y-117534839D01*
X139472433Y-117534839D01*
X139566373Y-117530573D01*
X139665407Y-117526076D01*
X139857622Y-117477438D01*
X139976614Y-117419915D01*
X140031538Y-117393364D01*
X140031539Y-117393363D01*
X140036130Y-117391144D01*
X140042924Y-117385950D01*
X140179686Y-117281387D01*
X140193641Y-117270718D01*
X140209646Y-117252307D01*
X140320374Y-117124928D01*
X140323719Y-117121080D01*
X140421052Y-116948342D01*
X140426434Y-116931581D01*
X140480105Y-116764414D01*
X140480105Y-116764413D01*
X140481663Y-116759561D01*
X140503076Y-116562449D01*
X140503100Y-116555600D01*
X140502656Y-116551222D01*
X140493063Y-116456789D01*
X140483063Y-116358343D01*
X140442437Y-116228704D01*
X140425295Y-116174002D01*
X140425294Y-116173999D01*
X140423772Y-116169143D01*
X140421304Y-116164690D01*
X140341747Y-116021166D01*
X140329884Y-115960134D01*
X140343390Y-115924438D01*
X140342859Y-115924203D01*
X140346622Y-115915712D01*
X140351876Y-115908053D01*
X140357405Y-115884756D01*
X140361848Y-115870709D01*
X140363207Y-115867303D01*
X140370720Y-115848471D01*
X140371100Y-115844595D01*
X140371100Y-115838820D01*
X140373545Y-115817927D01*
X140373618Y-115816435D01*
X140375762Y-115807400D01*
X140372019Y-115779896D01*
X140371100Y-115766331D01*
X140371100Y-102201700D01*
X140390313Y-102142569D01*
X140440613Y-102106024D01*
X140471700Y-102101100D01*
X145656925Y-102101100D01*
X145716056Y-102120313D01*
X145752601Y-102170613D01*
X145752601Y-102232787D01*
X145716056Y-102283087D01*
X145684570Y-102298427D01*
X145605088Y-102321143D01*
X145485577Y-102396549D01*
X145480832Y-102401922D01*
X145426408Y-102463546D01*
X145392034Y-102502467D01*
X145331978Y-102630382D01*
X145310237Y-102770011D01*
X145312117Y-102784389D01*
X145314725Y-102804331D01*
X145303341Y-102865454D01*
X145258205Y-102908213D01*
X145214360Y-102917973D01*
X145204729Y-102917914D01*
X145105959Y-102917311D01*
X145099070Y-102919280D01*
X145099069Y-102919280D01*
X145038024Y-102936727D01*
X144970088Y-102956143D01*
X144850577Y-103031549D01*
X144757034Y-103137467D01*
X144696978Y-103265382D01*
X144675237Y-103405011D01*
X144680889Y-103448234D01*
X144690540Y-103522033D01*
X144693560Y-103545130D01*
X144750473Y-103674474D01*
X144755082Y-103679957D01*
X144755085Y-103679962D01*
X144790353Y-103721918D01*
X144813695Y-103779545D01*
X144798706Y-103839885D01*
X144751113Y-103879892D01*
X144740991Y-103883377D01*
X144684285Y-103899584D01*
X144652588Y-103908643D01*
X144533077Y-103984049D01*
X144439534Y-104089967D01*
X144379478Y-104217882D01*
X144378375Y-104224967D01*
X144359764Y-104344496D01*
X144357737Y-104357511D01*
X144358666Y-104364615D01*
X144364264Y-104407430D01*
X144352880Y-104468553D01*
X144335648Y-104491608D01*
X141837982Y-106989274D01*
X141834749Y-106992064D01*
X141830167Y-106994304D01*
X141823853Y-107001111D01*
X141795754Y-107031402D01*
X141793135Y-107034121D01*
X141783395Y-107043861D01*
X141781340Y-107046857D01*
X141779960Y-107048428D01*
X141759815Y-107070145D01*
X141756374Y-107078769D01*
X141756373Y-107078771D01*
X141756247Y-107079087D01*
X141745770Y-107098709D01*
X141740324Y-107106648D01*
X141738180Y-107115682D01*
X141738178Y-107115687D01*
X141734793Y-107129950D01*
X141730352Y-107143994D01*
X141721481Y-107166229D01*
X141721101Y-107170105D01*
X141721101Y-107175880D01*
X141718656Y-107196775D01*
X141718583Y-107198261D01*
X141716438Y-107207301D01*
X141717691Y-107216506D01*
X141720182Y-107234811D01*
X141721101Y-107248377D01*
X141721100Y-115570943D01*
X141701887Y-115630074D01*
X141655238Y-115665354D01*
X141632058Y-115673883D01*
X141627730Y-115676567D01*
X141627727Y-115676568D01*
X141467881Y-115775677D01*
X141467878Y-115775679D01*
X141463548Y-115778364D01*
X141319488Y-115914594D01*
X141316566Y-115918767D01*
X141235810Y-116034099D01*
X141205763Y-116077010D01*
X141127020Y-116258975D01*
X141086474Y-116453058D01*
X141086456Y-116458155D01*
X141086456Y-116458157D01*
X141086247Y-116517966D01*
X141085782Y-116651329D01*
X141086790Y-116656327D01*
X141086790Y-116656329D01*
X141114184Y-116792186D01*
X141124972Y-116845690D01*
X141202443Y-117028200D01*
X141315031Y-117191406D01*
X141318709Y-117194933D01*
X141408530Y-117281068D01*
X141458136Y-117328639D01*
X141462449Y-117331355D01*
X141610108Y-117424340D01*
X141625913Y-117434293D01*
X141811508Y-117504054D01*
X142007339Y-117535070D01*
X142012430Y-117534839D01*
X142012433Y-117534839D01*
X142106373Y-117530573D01*
X142205407Y-117526076D01*
X142397622Y-117477438D01*
X142516614Y-117419915D01*
X142571538Y-117393364D01*
X142571539Y-117393363D01*
X142576130Y-117391144D01*
X142582924Y-117385950D01*
X142719686Y-117281387D01*
X142733641Y-117270718D01*
X142749646Y-117252307D01*
X142860374Y-117124928D01*
X142863719Y-117121080D01*
X142961052Y-116948342D01*
X142966434Y-116931581D01*
X143020105Y-116764414D01*
X143020105Y-116764413D01*
X143021663Y-116759561D01*
X143043076Y-116562449D01*
X143043100Y-116555600D01*
X143042656Y-116551222D01*
X143033063Y-116456789D01*
X143023063Y-116358343D01*
X142982437Y-116228704D01*
X142965295Y-116174002D01*
X142965294Y-116173999D01*
X142963772Y-116169143D01*
X142941059Y-116128167D01*
X142915292Y-116081683D01*
X142867647Y-115995730D01*
X142864334Y-115991864D01*
X142864330Y-115991859D01*
X142741935Y-115849058D01*
X142741934Y-115849057D01*
X142738617Y-115845187D01*
X142715228Y-115827045D01*
X142585980Y-115726790D01*
X142585979Y-115726789D01*
X142581951Y-115723665D01*
X142404049Y-115636126D01*
X142393803Y-115633457D01*
X142351342Y-115622397D01*
X142298963Y-115588899D01*
X142276100Y-115525045D01*
X142276100Y-107377714D01*
X142295313Y-107318583D01*
X142305565Y-107306579D01*
X144726681Y-104885463D01*
X144782079Y-104857237D01*
X144799659Y-104856015D01*
X144910536Y-104858047D01*
X144910538Y-104858047D01*
X144917703Y-104858178D01*
X145054039Y-104821009D01*
X145060146Y-104817259D01*
X145060149Y-104817258D01*
X145060362Y-104817127D01*
X145060564Y-104817078D01*
X145066723Y-104814413D01*
X145067186Y-104815482D01*
X145120806Y-104802559D01*
X145178268Y-104826302D01*
X145210801Y-104879285D01*
X145213601Y-104902856D01*
X145213600Y-114049486D01*
X145194387Y-114108617D01*
X145184135Y-114120621D01*
X144377982Y-114926774D01*
X144374749Y-114929564D01*
X144370167Y-114931804D01*
X144363853Y-114938611D01*
X144335754Y-114968902D01*
X144333135Y-114971621D01*
X144323395Y-114981361D01*
X144321340Y-114984357D01*
X144319960Y-114985928D01*
X144299815Y-115007645D01*
X144296374Y-115016269D01*
X144296373Y-115016271D01*
X144296247Y-115016587D01*
X144285770Y-115036209D01*
X144280324Y-115044148D01*
X144278180Y-115053182D01*
X144278178Y-115053187D01*
X144274793Y-115067450D01*
X144270352Y-115081494D01*
X144261481Y-115103729D01*
X144261101Y-115107605D01*
X144261101Y-115113380D01*
X144258656Y-115134275D01*
X144258583Y-115135761D01*
X144256438Y-115144801D01*
X144257691Y-115154006D01*
X144260182Y-115172311D01*
X144261101Y-115185877D01*
X144261101Y-115570942D01*
X144241888Y-115630073D01*
X144195236Y-115665355D01*
X144176840Y-115672123D01*
X144176835Y-115672125D01*
X144172058Y-115673883D01*
X144121078Y-115705492D01*
X144007881Y-115775677D01*
X144007878Y-115775679D01*
X144003548Y-115778364D01*
X143859488Y-115914594D01*
X143856566Y-115918767D01*
X143775810Y-116034099D01*
X143745763Y-116077010D01*
X143667020Y-116258975D01*
X143626474Y-116453058D01*
X143626456Y-116458155D01*
X143626456Y-116458157D01*
X143626247Y-116517966D01*
X143625782Y-116651329D01*
X143626790Y-116656327D01*
X143626790Y-116656329D01*
X143654184Y-116792186D01*
X143664972Y-116845690D01*
X143742443Y-117028200D01*
X143855031Y-117191406D01*
X143858709Y-117194933D01*
X143948530Y-117281068D01*
X143998136Y-117328639D01*
X144002449Y-117331355D01*
X144150108Y-117424340D01*
X144165913Y-117434293D01*
X144351508Y-117504054D01*
X144547339Y-117535070D01*
X144552430Y-117534839D01*
X144552433Y-117534839D01*
X144646373Y-117530573D01*
X144745407Y-117526076D01*
X144937622Y-117477438D01*
X145056614Y-117419915D01*
X145111538Y-117393364D01*
X145111539Y-117393363D01*
X145116130Y-117391144D01*
X145122924Y-117385950D01*
X145259686Y-117281387D01*
X145273641Y-117270718D01*
X145289646Y-117252307D01*
X145400374Y-117124928D01*
X145403719Y-117121080D01*
X145501052Y-116948342D01*
X145506434Y-116931581D01*
X145560105Y-116764414D01*
X145560105Y-116764413D01*
X145561663Y-116759561D01*
X145583076Y-116562449D01*
X145583100Y-116555600D01*
X145582656Y-116551222D01*
X145573063Y-116456789D01*
X145563063Y-116358343D01*
X145522437Y-116228704D01*
X145505295Y-116174002D01*
X145505294Y-116173999D01*
X145503772Y-116169143D01*
X145481059Y-116128167D01*
X145455292Y-116081683D01*
X145407647Y-115995730D01*
X145404334Y-115991864D01*
X145404330Y-115991859D01*
X145281935Y-115849058D01*
X145281934Y-115849057D01*
X145278617Y-115845187D01*
X145255228Y-115827045D01*
X145125980Y-115726790D01*
X145125979Y-115726789D01*
X145121951Y-115723665D01*
X144944049Y-115636126D01*
X144933803Y-115633457D01*
X144891342Y-115622397D01*
X144838963Y-115588899D01*
X144816100Y-115525045D01*
X144816100Y-115315214D01*
X144835313Y-115256083D01*
X144845565Y-115244079D01*
X145651716Y-114437928D01*
X145654950Y-114435137D01*
X145659534Y-114432896D01*
X145693961Y-114395783D01*
X145696579Y-114393065D01*
X145706304Y-114383340D01*
X145708356Y-114380349D01*
X145709732Y-114378781D01*
X145718380Y-114369458D01*
X145729886Y-114357055D01*
X145733328Y-114348429D01*
X145733330Y-114348425D01*
X145733455Y-114348111D01*
X145743931Y-114328492D01*
X145744121Y-114328216D01*
X145744124Y-114328209D01*
X145749376Y-114320553D01*
X145754903Y-114297262D01*
X145759348Y-114283207D01*
X145765590Y-114267564D01*
X145765591Y-114267561D01*
X145768220Y-114260971D01*
X145768600Y-114257095D01*
X145768600Y-114251321D01*
X145771045Y-114230428D01*
X145771118Y-114228936D01*
X145773262Y-114219901D01*
X145769519Y-114192397D01*
X145768600Y-114178832D01*
X145768600Y-103778948D01*
X145768912Y-103774693D01*
X145770569Y-103769868D01*
X145770221Y-103760585D01*
X145768671Y-103719313D01*
X145768600Y-103715539D01*
X145768600Y-103701754D01*
X145767935Y-103698186D01*
X145767799Y-103696085D01*
X145767456Y-103686942D01*
X145766688Y-103666494D01*
X145763023Y-103657964D01*
X145763022Y-103657958D01*
X145762889Y-103657649D01*
X145756421Y-103636363D01*
X145756421Y-103636362D01*
X145754659Y-103626901D01*
X145742092Y-103606514D01*
X145735304Y-103593446D01*
X145725853Y-103571446D01*
X145723381Y-103568436D01*
X145719295Y-103564350D01*
X145706262Y-103547861D01*
X145705251Y-103546746D01*
X145700377Y-103538839D01*
X145692983Y-103533216D01*
X145692333Y-103532500D01*
X145666846Y-103475790D01*
X145667652Y-103448234D01*
X145671207Y-103427106D01*
X145671207Y-103427103D01*
X145671851Y-103423277D01*
X145672000Y-103411100D01*
X145668073Y-103383677D01*
X145678709Y-103322419D01*
X145723321Y-103279113D01*
X145769500Y-103268833D01*
X145870203Y-103270678D01*
X145870143Y-103273973D01*
X145917604Y-103283121D01*
X145940106Y-103300050D01*
X146454136Y-103814080D01*
X146482362Y-103869478D01*
X146483601Y-103885215D01*
X146483600Y-115791728D01*
X146464387Y-115850859D01*
X146452121Y-115864822D01*
X146399488Y-115914594D01*
X146396566Y-115918767D01*
X146315810Y-116034099D01*
X146285763Y-116077010D01*
X146207020Y-116258975D01*
X146166474Y-116453058D01*
X146166456Y-116458155D01*
X146166456Y-116458157D01*
X146166247Y-116517966D01*
X146165782Y-116651329D01*
X146166790Y-116656327D01*
X146166790Y-116656329D01*
X146194184Y-116792186D01*
X146204972Y-116845690D01*
X146282443Y-117028200D01*
X146395031Y-117191406D01*
X146398709Y-117194933D01*
X146488530Y-117281068D01*
X146538136Y-117328639D01*
X146542449Y-117331355D01*
X146690108Y-117424340D01*
X146705913Y-117434293D01*
X146891508Y-117504054D01*
X147087339Y-117535070D01*
X147092430Y-117534839D01*
X147092433Y-117534839D01*
X147186373Y-117530573D01*
X147285407Y-117526076D01*
X147477622Y-117477438D01*
X147596614Y-117419915D01*
X147651538Y-117393364D01*
X147651539Y-117393363D01*
X147656130Y-117391144D01*
X147662924Y-117385950D01*
X147799686Y-117281387D01*
X147813641Y-117270718D01*
X147829646Y-117252307D01*
X147940374Y-117124928D01*
X147943719Y-117121080D01*
X148041052Y-116948342D01*
X148046434Y-116931581D01*
X148100105Y-116764414D01*
X148100105Y-116764413D01*
X148101663Y-116759561D01*
X148113420Y-116651329D01*
X148705782Y-116651329D01*
X148706790Y-116656327D01*
X148706790Y-116656329D01*
X148734184Y-116792186D01*
X148744972Y-116845690D01*
X148822443Y-117028200D01*
X148935031Y-117191406D01*
X148938709Y-117194933D01*
X149028530Y-117281068D01*
X149078136Y-117328639D01*
X149082449Y-117331355D01*
X149230108Y-117424340D01*
X149245913Y-117434293D01*
X149431508Y-117504054D01*
X149627339Y-117535070D01*
X149632430Y-117534839D01*
X149632433Y-117534839D01*
X149726373Y-117530573D01*
X149825407Y-117526076D01*
X150017622Y-117477438D01*
X150136614Y-117419915D01*
X150191538Y-117393364D01*
X150191539Y-117393363D01*
X150196130Y-117391144D01*
X150202924Y-117385950D01*
X150339686Y-117281387D01*
X150353641Y-117270718D01*
X150369646Y-117252307D01*
X150480374Y-117124928D01*
X150483719Y-117121080D01*
X150581052Y-116948342D01*
X150586434Y-116931581D01*
X150640105Y-116764414D01*
X150640105Y-116764413D01*
X150641663Y-116759561D01*
X150653420Y-116651329D01*
X151245782Y-116651329D01*
X151246790Y-116656327D01*
X151246790Y-116656329D01*
X151274184Y-116792186D01*
X151284972Y-116845690D01*
X151362443Y-117028200D01*
X151475031Y-117191406D01*
X151478709Y-117194933D01*
X151568530Y-117281068D01*
X151618136Y-117328639D01*
X151622449Y-117331355D01*
X151770108Y-117424340D01*
X151785913Y-117434293D01*
X151971508Y-117504054D01*
X152167339Y-117535070D01*
X152172430Y-117534839D01*
X152172433Y-117534839D01*
X152266373Y-117530573D01*
X152365407Y-117526076D01*
X152557622Y-117477438D01*
X152676614Y-117419915D01*
X152731538Y-117393364D01*
X152731539Y-117393363D01*
X152736130Y-117391144D01*
X152742924Y-117385950D01*
X152879686Y-117281387D01*
X152893641Y-117270718D01*
X152909646Y-117252307D01*
X153020374Y-117124928D01*
X153023719Y-117121080D01*
X153121052Y-116948342D01*
X153126434Y-116931581D01*
X153180105Y-116764414D01*
X153180105Y-116764413D01*
X153181663Y-116759561D01*
X153203076Y-116562449D01*
X153203100Y-116555600D01*
X153202656Y-116551222D01*
X153193063Y-116456789D01*
X153183063Y-116358343D01*
X153142437Y-116228704D01*
X153125295Y-116174002D01*
X153125294Y-116173999D01*
X153123772Y-116169143D01*
X153101059Y-116128167D01*
X153075292Y-116081683D01*
X153027647Y-115995730D01*
X153024334Y-115991864D01*
X153024330Y-115991859D01*
X152901935Y-115849058D01*
X152901934Y-115849057D01*
X152898617Y-115845187D01*
X152875228Y-115827045D01*
X152745980Y-115726790D01*
X152745979Y-115726789D01*
X152741951Y-115723665D01*
X152564049Y-115636126D01*
X152553803Y-115633457D01*
X152511342Y-115622397D01*
X152372179Y-115586148D01*
X152367094Y-115585882D01*
X152367091Y-115585881D01*
X152256294Y-115580075D01*
X152174178Y-115575771D01*
X152169140Y-115576533D01*
X152169139Y-115576533D01*
X152160398Y-115577855D01*
X151978135Y-115605420D01*
X151881100Y-115641122D01*
X151796841Y-115672123D01*
X151796839Y-115672124D01*
X151792058Y-115673883D01*
X151787730Y-115676567D01*
X151787727Y-115676568D01*
X151627881Y-115775677D01*
X151627878Y-115775679D01*
X151623548Y-115778364D01*
X151479488Y-115914594D01*
X151476566Y-115918767D01*
X151395810Y-116034099D01*
X151365763Y-116077010D01*
X151287020Y-116258975D01*
X151246474Y-116453058D01*
X151246456Y-116458155D01*
X151246456Y-116458157D01*
X151246247Y-116517966D01*
X151245782Y-116651329D01*
X150653420Y-116651329D01*
X150663076Y-116562449D01*
X150663100Y-116555600D01*
X150662656Y-116551222D01*
X150653063Y-116456789D01*
X150643063Y-116358343D01*
X150602437Y-116228704D01*
X150585295Y-116174002D01*
X150585294Y-116173999D01*
X150583772Y-116169143D01*
X150561059Y-116128167D01*
X150535292Y-116081683D01*
X150487647Y-115995730D01*
X150484334Y-115991864D01*
X150484330Y-115991859D01*
X150361935Y-115849058D01*
X150361934Y-115849057D01*
X150358617Y-115845187D01*
X150335228Y-115827045D01*
X150205980Y-115726790D01*
X150205979Y-115726789D01*
X150201951Y-115723665D01*
X150024049Y-115636126D01*
X150013803Y-115633457D01*
X149971342Y-115622397D01*
X149918963Y-115588899D01*
X149896100Y-115525045D01*
X149896100Y-112351448D01*
X149896412Y-112347193D01*
X149898069Y-112342368D01*
X149896171Y-112291813D01*
X149896100Y-112288039D01*
X149896100Y-112274254D01*
X149895435Y-112270686D01*
X149895299Y-112268585D01*
X149894536Y-112248275D01*
X149894188Y-112238994D01*
X149890523Y-112230464D01*
X149890522Y-112230458D01*
X149890389Y-112230149D01*
X149883921Y-112208863D01*
X149882159Y-112199401D01*
X149869592Y-112179014D01*
X149862805Y-112165948D01*
X149853353Y-112143946D01*
X149850881Y-112140936D01*
X149846795Y-112136850D01*
X149833762Y-112120361D01*
X149832751Y-112119246D01*
X149827877Y-112111339D01*
X149820483Y-112105716D01*
X149819833Y-112105000D01*
X149794346Y-112048290D01*
X149795152Y-112020734D01*
X149798707Y-111999606D01*
X149798707Y-111999603D01*
X149799351Y-111995777D01*
X149799500Y-111983600D01*
X149779467Y-111843716D01*
X149720978Y-111715077D01*
X149628736Y-111608024D01*
X149510155Y-111531164D01*
X149503290Y-111529111D01*
X149503288Y-111529110D01*
X149381634Y-111492727D01*
X149381631Y-111492727D01*
X149374768Y-111490674D01*
X149367603Y-111490630D01*
X149367601Y-111490630D01*
X149304946Y-111490248D01*
X149233459Y-111489811D01*
X149226570Y-111491780D01*
X149226569Y-111491780D01*
X149223256Y-111492727D01*
X149097588Y-111528643D01*
X148978077Y-111604049D01*
X148884534Y-111709967D01*
X148824478Y-111837882D01*
X148802737Y-111977511D01*
X148821060Y-112117630D01*
X148877973Y-112246974D01*
X148968900Y-112355145D01*
X148974864Y-112359115D01*
X149080567Y-112429478D01*
X149080569Y-112429479D01*
X149086533Y-112433449D01*
X149221415Y-112475589D01*
X149242343Y-112475972D01*
X149301111Y-112496263D01*
X149336730Y-112547224D01*
X149341101Y-112576555D01*
X149341100Y-115570943D01*
X149321887Y-115630074D01*
X149275238Y-115665354D01*
X149252058Y-115673883D01*
X149247730Y-115676567D01*
X149247727Y-115676568D01*
X149087881Y-115775677D01*
X149087878Y-115775679D01*
X149083548Y-115778364D01*
X148939488Y-115914594D01*
X148936566Y-115918767D01*
X148855810Y-116034099D01*
X148825763Y-116077010D01*
X148747020Y-116258975D01*
X148706474Y-116453058D01*
X148706456Y-116458155D01*
X148706456Y-116458157D01*
X148706247Y-116517966D01*
X148705782Y-116651329D01*
X148113420Y-116651329D01*
X148123076Y-116562449D01*
X148123100Y-116555600D01*
X148122656Y-116551222D01*
X148113063Y-116456789D01*
X148103063Y-116358343D01*
X148062437Y-116228704D01*
X148045295Y-116174002D01*
X148045294Y-116173999D01*
X148043772Y-116169143D01*
X148021059Y-116128167D01*
X147995292Y-116081683D01*
X147947647Y-115995730D01*
X147944334Y-115991864D01*
X147944330Y-115991859D01*
X147821935Y-115849058D01*
X147821934Y-115849057D01*
X147818617Y-115845187D01*
X147795228Y-115827045D01*
X147665980Y-115726790D01*
X147665979Y-115726789D01*
X147661951Y-115723665D01*
X147484049Y-115636126D01*
X147473803Y-115633457D01*
X147431342Y-115622397D01*
X147292179Y-115586148D01*
X147287094Y-115585882D01*
X147287091Y-115585881D01*
X147214563Y-115582080D01*
X147133934Y-115577855D01*
X147075890Y-115555574D01*
X147042028Y-115503430D01*
X147038600Y-115477393D01*
X147038600Y-104847481D01*
X147057813Y-104788350D01*
X147108113Y-104751805D01*
X147170287Y-104751805D01*
X147220587Y-104788350D01*
X147233538Y-104815140D01*
X147233560Y-104815130D01*
X147290473Y-104944474D01*
X147381400Y-105052645D01*
X147387364Y-105056615D01*
X147493067Y-105126978D01*
X147493069Y-105126979D01*
X147499033Y-105130949D01*
X147505873Y-105133086D01*
X147527539Y-105139855D01*
X147633915Y-105173089D01*
X147702746Y-105174350D01*
X147768036Y-105175547D01*
X147768038Y-105175547D01*
X147775203Y-105175678D01*
X147843371Y-105157093D01*
X147904625Y-105140394D01*
X147911539Y-105138509D01*
X147917645Y-105134760D01*
X147917647Y-105134759D01*
X148025853Y-105068320D01*
X148031962Y-105064569D01*
X148036772Y-105059255D01*
X148038286Y-105057998D01*
X148096054Y-105035010D01*
X148102546Y-105034800D01*
X152287924Y-105034800D01*
X152347055Y-105054013D01*
X152359059Y-105064265D01*
X157025988Y-109731194D01*
X157054213Y-109786591D01*
X157044487Y-109847999D01*
X157000523Y-109891963D01*
X156954238Y-109902926D01*
X156891654Y-109902544D01*
X156853459Y-109902311D01*
X156846570Y-109904280D01*
X156846569Y-109904280D01*
X156785524Y-109921727D01*
X156717588Y-109941143D01*
X156598077Y-110016549D01*
X156504534Y-110122467D01*
X156444478Y-110250382D01*
X156422737Y-110390011D01*
X156423666Y-110397115D01*
X156429264Y-110439930D01*
X156417880Y-110501053D01*
X156400648Y-110524108D01*
X154537982Y-112386774D01*
X154534749Y-112389564D01*
X154530167Y-112391804D01*
X154523853Y-112398611D01*
X154495754Y-112428902D01*
X154493135Y-112431621D01*
X154483395Y-112441361D01*
X154481340Y-112444357D01*
X154479960Y-112445928D01*
X154459815Y-112467645D01*
X154456374Y-112476269D01*
X154456373Y-112476271D01*
X154456247Y-112476587D01*
X154445770Y-112496209D01*
X154440324Y-112504148D01*
X154438180Y-112513182D01*
X154438178Y-112513187D01*
X154434793Y-112527450D01*
X154430352Y-112541494D01*
X154421481Y-112563729D01*
X154421101Y-112567605D01*
X154421101Y-112573380D01*
X154418656Y-112594275D01*
X154418583Y-112595761D01*
X154416438Y-112604801D01*
X154417691Y-112614006D01*
X154420182Y-112632311D01*
X154421101Y-112645877D01*
X154421100Y-115570943D01*
X154401887Y-115630074D01*
X154355238Y-115665354D01*
X154332058Y-115673883D01*
X154327730Y-115676567D01*
X154327727Y-115676568D01*
X154167881Y-115775677D01*
X154167878Y-115775679D01*
X154163548Y-115778364D01*
X154019488Y-115914594D01*
X154016566Y-115918767D01*
X153935810Y-116034099D01*
X153905763Y-116077010D01*
X153827020Y-116258975D01*
X153786474Y-116453058D01*
X153786456Y-116458155D01*
X153786456Y-116458157D01*
X153786247Y-116517966D01*
X153785782Y-116651329D01*
X153786790Y-116656327D01*
X153786790Y-116656329D01*
X153814184Y-116792186D01*
X153824972Y-116845690D01*
X153902443Y-117028200D01*
X154015031Y-117191406D01*
X154018709Y-117194933D01*
X154108530Y-117281068D01*
X154158136Y-117328639D01*
X154162449Y-117331355D01*
X154310108Y-117424340D01*
X154325913Y-117434293D01*
X154511508Y-117504054D01*
X154707339Y-117535070D01*
X154712430Y-117534839D01*
X154712433Y-117534839D01*
X154806373Y-117530573D01*
X154905407Y-117526076D01*
X155097622Y-117477438D01*
X155216614Y-117419915D01*
X155271538Y-117393364D01*
X155271539Y-117393363D01*
X155276130Y-117391144D01*
X155282924Y-117385950D01*
X155419686Y-117281387D01*
X155433641Y-117270718D01*
X155449646Y-117252307D01*
X155560374Y-117124928D01*
X155563719Y-117121080D01*
X155661052Y-116948342D01*
X155666434Y-116931581D01*
X155720105Y-116764414D01*
X155720105Y-116764413D01*
X155721663Y-116759561D01*
X155743076Y-116562449D01*
X155743100Y-116555600D01*
X155742656Y-116551222D01*
X155733063Y-116456789D01*
X155723063Y-116358343D01*
X155682437Y-116228704D01*
X155665295Y-116174002D01*
X155665294Y-116173999D01*
X155663772Y-116169143D01*
X155641059Y-116128167D01*
X155615292Y-116081683D01*
X155567647Y-115995730D01*
X155564334Y-115991864D01*
X155564330Y-115991859D01*
X155441935Y-115849058D01*
X155441934Y-115849057D01*
X155438617Y-115845187D01*
X155415228Y-115827045D01*
X155285980Y-115726790D01*
X155285979Y-115726789D01*
X155281951Y-115723665D01*
X155104049Y-115636126D01*
X155093803Y-115633457D01*
X155051342Y-115622397D01*
X154998963Y-115588899D01*
X154976100Y-115525045D01*
X154976100Y-114428589D01*
X154995313Y-114369458D01*
X155045613Y-114332913D01*
X155107787Y-114332913D01*
X155115098Y-114335830D01*
X155119033Y-114338449D01*
X155253915Y-114380589D01*
X155395203Y-114383178D01*
X155395143Y-114386473D01*
X155442604Y-114395621D01*
X155465106Y-114412550D01*
X156695862Y-115643307D01*
X156724088Y-115698705D01*
X156714362Y-115760113D01*
X156693848Y-115787535D01*
X156565876Y-115908553D01*
X156559488Y-115914594D01*
X156556566Y-115918767D01*
X156475810Y-116034099D01*
X156445763Y-116077010D01*
X156367020Y-116258975D01*
X156326474Y-116453058D01*
X156326456Y-116458155D01*
X156326456Y-116458157D01*
X156326247Y-116517966D01*
X156325782Y-116651329D01*
X156326790Y-116656327D01*
X156326790Y-116656329D01*
X156354184Y-116792186D01*
X156364972Y-116845690D01*
X156442443Y-117028200D01*
X156555031Y-117191406D01*
X156558709Y-117194933D01*
X156648530Y-117281068D01*
X156698136Y-117328639D01*
X156702449Y-117331355D01*
X156850108Y-117424340D01*
X156865913Y-117434293D01*
X157051508Y-117504054D01*
X157247339Y-117535070D01*
X157252430Y-117534839D01*
X157252433Y-117534839D01*
X157346373Y-117530573D01*
X157445407Y-117526076D01*
X157637622Y-117477438D01*
X157756614Y-117419915D01*
X157811538Y-117393364D01*
X157811539Y-117393363D01*
X157816130Y-117391144D01*
X157822924Y-117385950D01*
X157959686Y-117281387D01*
X157973641Y-117270718D01*
X157989646Y-117252307D01*
X158100374Y-117124928D01*
X158103719Y-117121080D01*
X158201052Y-116948342D01*
X158206434Y-116931581D01*
X158260105Y-116764414D01*
X158260105Y-116764413D01*
X158261663Y-116759561D01*
X158283076Y-116562449D01*
X158283100Y-116555600D01*
X158282656Y-116551222D01*
X158273063Y-116456789D01*
X158263063Y-116358343D01*
X158222437Y-116228704D01*
X158205295Y-116174002D01*
X158205294Y-116173999D01*
X158203772Y-116169143D01*
X158181059Y-116128167D01*
X158155292Y-116081683D01*
X158107647Y-115995730D01*
X158104334Y-115991864D01*
X158104330Y-115991859D01*
X157981935Y-115849058D01*
X157981934Y-115849057D01*
X157978617Y-115845187D01*
X157955228Y-115827045D01*
X157825980Y-115726790D01*
X157825979Y-115726789D01*
X157821951Y-115723665D01*
X157644049Y-115636126D01*
X157633803Y-115633457D01*
X157548114Y-115611137D01*
X157452179Y-115586148D01*
X157450484Y-115586059D01*
X157395723Y-115558278D01*
X155855044Y-114017600D01*
X155826818Y-113962202D01*
X155826973Y-113929776D01*
X155831206Y-113904612D01*
X155831206Y-113904609D01*
X155831851Y-113900777D01*
X155832000Y-113888600D01*
X155811967Y-113748716D01*
X155753478Y-113620077D01*
X155661236Y-113513024D01*
X155542655Y-113436164D01*
X155535790Y-113434111D01*
X155535788Y-113434110D01*
X155414134Y-113397727D01*
X155414131Y-113397727D01*
X155407268Y-113395674D01*
X155400103Y-113395630D01*
X155400101Y-113395630D01*
X155337446Y-113395248D01*
X155265959Y-113394811D01*
X155259070Y-113396780D01*
X155259069Y-113396780D01*
X155255756Y-113397727D01*
X155130088Y-113433643D01*
X155124026Y-113437468D01*
X155117777Y-113440263D01*
X155055955Y-113446869D01*
X155002056Y-113415875D01*
X154976669Y-113359120D01*
X154976100Y-113348431D01*
X154976100Y-112775214D01*
X154995313Y-112716083D01*
X155005565Y-112704079D01*
X156791681Y-110917963D01*
X156847079Y-110889737D01*
X156864659Y-110888515D01*
X156975536Y-110890547D01*
X156975538Y-110890547D01*
X156982703Y-110890678D01*
X157119039Y-110853509D01*
X157125145Y-110849760D01*
X157125147Y-110849759D01*
X157233358Y-110783317D01*
X157233359Y-110783317D01*
X157239462Y-110779569D01*
X157334292Y-110674802D01*
X157337415Y-110668356D01*
X157337417Y-110668353D01*
X157392783Y-110554077D01*
X157392784Y-110554074D01*
X157395906Y-110547630D01*
X157419351Y-110408277D01*
X157419500Y-110396100D01*
X157416946Y-110378269D01*
X157427581Y-110317013D01*
X157472191Y-110273705D01*
X157533737Y-110264890D01*
X157587665Y-110292872D01*
X159077935Y-111783142D01*
X159106161Y-111838540D01*
X159107400Y-111854277D01*
X159107401Y-115474965D01*
X159088188Y-115534096D01*
X159037888Y-115570641D01*
X159018961Y-115574600D01*
X159016600Y-115574600D01*
X159000236Y-115577855D01*
X158966810Y-115584504D01*
X158966809Y-115584504D01*
X158957093Y-115586437D01*
X158906645Y-115620145D01*
X158872937Y-115670593D01*
X158861100Y-115730100D01*
X158861100Y-117381100D01*
X158872937Y-117440607D01*
X158906645Y-117491055D01*
X158957093Y-117524763D01*
X158966809Y-117526696D01*
X158966810Y-117526696D01*
X158981099Y-117529538D01*
X159016600Y-117536600D01*
X160667600Y-117536600D01*
X160703101Y-117529538D01*
X160717390Y-117526696D01*
X160717391Y-117526696D01*
X160727107Y-117524763D01*
X160777555Y-117491055D01*
X160811263Y-117440607D01*
X160823100Y-117381100D01*
X160823100Y-116030373D01*
X161428414Y-116030373D01*
X161429437Y-116045962D01*
X161429754Y-116050799D01*
X161429752Y-116050805D01*
X161429754Y-116050805D01*
X161442875Y-116251004D01*
X161444008Y-116255465D01*
X161495486Y-116458157D01*
X161497301Y-116465305D01*
X161589868Y-116666100D01*
X161717478Y-116846663D01*
X161720783Y-116849882D01*
X161720785Y-116849885D01*
X161786853Y-116914246D01*
X161875855Y-117000948D01*
X161879688Y-117003509D01*
X161879689Y-117003510D01*
X161922913Y-117032391D01*
X162059697Y-117123787D01*
X162063931Y-117125606D01*
X162258419Y-117209164D01*
X162262846Y-117211066D01*
X162478498Y-117259864D01*
X162552863Y-117262786D01*
X162694823Y-117268363D01*
X162694824Y-117268363D01*
X162699432Y-117268544D01*
X162703989Y-117267883D01*
X162703994Y-117267883D01*
X162811416Y-117252307D01*
X162918249Y-117236817D01*
X163127619Y-117165746D01*
X163320532Y-117057709D01*
X163350974Y-117032391D01*
X163486979Y-116919276D01*
X163490526Y-116916326D01*
X163601150Y-116783316D01*
X163628961Y-116749877D01*
X163628963Y-116749875D01*
X163631909Y-116746332D01*
X163739946Y-116553419D01*
X163811017Y-116344049D01*
X163831313Y-116204072D01*
X163842319Y-116128167D01*
X163842320Y-116128158D01*
X163842744Y-116125232D01*
X163843105Y-116111474D01*
X163844323Y-116064956D01*
X163844323Y-116064949D01*
X163844400Y-116062000D01*
X163840512Y-116019686D01*
X163824591Y-115846411D01*
X163824590Y-115846406D01*
X163824169Y-115841823D01*
X163764152Y-115629020D01*
X163751221Y-115602798D01*
X163668403Y-115434859D01*
X163668401Y-115434856D01*
X163666360Y-115430717D01*
X163534068Y-115253556D01*
X163512859Y-115233950D01*
X163395161Y-115125152D01*
X163371706Y-115103470D01*
X163367806Y-115101009D01*
X163367803Y-115101007D01*
X163188620Y-114987952D01*
X163188617Y-114987950D01*
X163184711Y-114985486D01*
X162979347Y-114903554D01*
X162762491Y-114860419D01*
X162650263Y-114858949D01*
X162546019Y-114857584D01*
X162546015Y-114857584D01*
X162541406Y-114857524D01*
X162536861Y-114858305D01*
X162328043Y-114894186D01*
X162328038Y-114894187D01*
X162323495Y-114894968D01*
X162237281Y-114926774D01*
X162120387Y-114969898D01*
X162120385Y-114969899D01*
X162116056Y-114971496D01*
X162112088Y-114973857D01*
X161930002Y-115082187D01*
X161929997Y-115082191D01*
X161926038Y-115084546D01*
X161922572Y-115087585D01*
X161922570Y-115087587D01*
X161763270Y-115227289D01*
X161763267Y-115227292D01*
X161759803Y-115230330D01*
X161756950Y-115233949D01*
X161756949Y-115233950D01*
X161729252Y-115269083D01*
X161622918Y-115403967D01*
X161620772Y-115408046D01*
X161528771Y-115582913D01*
X161519969Y-115599642D01*
X161511044Y-115628384D01*
X161458316Y-115798197D01*
X161454402Y-115810801D01*
X161442832Y-115908553D01*
X161429504Y-116021166D01*
X161428414Y-116030373D01*
X160823100Y-116030373D01*
X160823100Y-115730100D01*
X160811263Y-115670593D01*
X160777555Y-115620145D01*
X160727107Y-115586437D01*
X160717391Y-115584504D01*
X160717390Y-115584504D01*
X160703101Y-115581662D01*
X160667600Y-115574600D01*
X159915400Y-115574600D01*
X159856269Y-115555387D01*
X159819724Y-115505087D01*
X159814800Y-115474000D01*
X159814800Y-111715077D01*
X159817052Y-111693911D01*
X159819402Y-111682997D01*
X159815497Y-111650005D01*
X159815163Y-111644344D01*
X159815142Y-111644346D01*
X159814800Y-111640208D01*
X159814800Y-111636060D01*
X159811889Y-111618569D01*
X159811221Y-111613878D01*
X159806534Y-111574282D01*
X159805557Y-111566026D01*
X159802146Y-111558922D01*
X159801756Y-111557689D01*
X159800461Y-111549911D01*
X159796512Y-111542593D01*
X159796511Y-111542589D01*
X159777579Y-111507502D01*
X159775426Y-111503279D01*
X159769905Y-111491780D01*
X159754570Y-111459845D01*
X159752027Y-111456820D01*
X159750497Y-111455290D01*
X159749024Y-111453684D01*
X159749149Y-111453569D01*
X159747420Y-111451608D01*
X159744529Y-111446250D01*
X159738424Y-111440607D01*
X159738422Y-111440604D01*
X159705366Y-111410049D01*
X159702517Y-111407310D01*
X152760838Y-104465631D01*
X152747460Y-104449066D01*
X152745917Y-104446676D01*
X152745916Y-104446675D01*
X152741406Y-104439690D01*
X152715319Y-104419125D01*
X152711076Y-104415355D01*
X152711062Y-104415372D01*
X152707898Y-104412691D01*
X152704962Y-104409755D01*
X152701586Y-104407342D01*
X152701582Y-104407339D01*
X152690545Y-104399452D01*
X152686755Y-104396606D01*
X152655436Y-104371917D01*
X152655434Y-104371916D01*
X152648905Y-104366769D01*
X152641467Y-104364157D01*
X152640317Y-104363559D01*
X152633906Y-104358978D01*
X152625941Y-104356596D01*
X152625939Y-104356595D01*
X152587749Y-104345174D01*
X152583253Y-104343713D01*
X152559651Y-104335425D01*
X152543743Y-104329838D01*
X152543741Y-104329838D01*
X152537771Y-104327741D01*
X152533834Y-104327400D01*
X152531661Y-104327400D01*
X152529492Y-104327306D01*
X152529499Y-104327137D01*
X152526888Y-104326973D01*
X152521057Y-104325229D01*
X152468201Y-104327306D01*
X152467794Y-104327322D01*
X152463844Y-104327400D01*
X148102480Y-104327400D01*
X148043601Y-104308269D01*
X148041236Y-104305524D01*
X147922655Y-104228664D01*
X147915790Y-104226611D01*
X147915788Y-104226610D01*
X147794134Y-104190227D01*
X147794131Y-104190227D01*
X147787268Y-104188174D01*
X147780103Y-104188130D01*
X147780101Y-104188130D01*
X147717446Y-104187748D01*
X147645959Y-104187311D01*
X147639070Y-104189280D01*
X147639069Y-104189280D01*
X147635756Y-104190227D01*
X147510088Y-104226143D01*
X147390577Y-104301549D01*
X147385832Y-104306922D01*
X147304113Y-104399452D01*
X147297034Y-104407467D01*
X147293989Y-104413952D01*
X147293988Y-104413954D01*
X147284323Y-104434541D01*
X147236978Y-104535382D01*
X147235875Y-104542468D01*
X147235405Y-104544004D01*
X147199744Y-104594935D01*
X147140957Y-104615178D01*
X147081499Y-104597001D01*
X147044081Y-104547347D01*
X147038600Y-104514593D01*
X147038600Y-103778947D01*
X147038912Y-103774692D01*
X147040569Y-103769867D01*
X147038671Y-103719312D01*
X147038600Y-103715538D01*
X147038600Y-103701754D01*
X147037935Y-103698184D01*
X147037799Y-103696093D01*
X147036688Y-103666493D01*
X147033023Y-103657963D01*
X147033022Y-103657957D01*
X147032889Y-103657648D01*
X147026421Y-103636362D01*
X147026359Y-103636028D01*
X147024659Y-103626901D01*
X147012096Y-103606519D01*
X147005306Y-103593446D01*
X146998659Y-103577976D01*
X146998656Y-103577971D01*
X146995852Y-103571445D01*
X146993380Y-103568436D01*
X146989299Y-103564355D01*
X146976248Y-103547845D01*
X146975250Y-103546744D01*
X146970377Y-103538839D01*
X146962988Y-103533220D01*
X146962986Y-103533218D01*
X146948276Y-103522033D01*
X146938034Y-103513090D01*
X146330044Y-102905100D01*
X146301818Y-102849702D01*
X146301973Y-102817276D01*
X146306206Y-102792112D01*
X146306206Y-102792109D01*
X146306851Y-102788277D01*
X146307000Y-102776100D01*
X146286967Y-102636216D01*
X146228478Y-102507577D01*
X146136236Y-102400524D01*
X146017655Y-102323664D01*
X146010790Y-102321611D01*
X146010788Y-102321610D01*
X145932116Y-102298082D01*
X145880969Y-102262732D01*
X145860369Y-102204070D01*
X145878184Y-102144502D01*
X145927609Y-102106783D01*
X145960941Y-102101100D01*
X146620489Y-102101100D01*
X146679620Y-102120313D01*
X146697497Y-102136968D01*
X146746400Y-102195145D01*
X146752364Y-102199115D01*
X146858067Y-102269478D01*
X146858069Y-102269479D01*
X146864033Y-102273449D01*
X146870873Y-102275586D01*
X146894265Y-102282894D01*
X146998915Y-102315589D01*
X147067746Y-102316850D01*
X147133036Y-102318047D01*
X147133038Y-102318047D01*
X147140203Y-102318178D01*
X147276539Y-102281009D01*
X147282645Y-102277260D01*
X147282647Y-102277259D01*
X147390858Y-102210817D01*
X147390859Y-102210817D01*
X147396962Y-102207069D01*
X147491792Y-102102302D01*
X147494915Y-102095856D01*
X147494917Y-102095853D01*
X147550283Y-101981577D01*
X147550284Y-101981574D01*
X147553406Y-101975130D01*
X147576851Y-101835777D01*
X147577000Y-101823600D01*
X147556967Y-101683716D01*
X147498478Y-101555077D01*
X147406236Y-101448024D01*
X147287655Y-101371164D01*
X147280790Y-101369111D01*
X147280788Y-101369110D01*
X147159134Y-101332727D01*
X147159131Y-101332727D01*
X147152268Y-101330674D01*
X147145103Y-101330630D01*
X147145101Y-101330630D01*
X147082446Y-101330248D01*
X147010959Y-101329811D01*
X147004070Y-101331780D01*
X147004069Y-101331780D01*
X146943023Y-101349227D01*
X146875088Y-101368643D01*
X146755577Y-101444049D01*
X146750832Y-101449422D01*
X146695482Y-101512094D01*
X146641939Y-101543696D01*
X146620079Y-101546100D01*
X140145907Y-101546100D01*
X140136090Y-101545620D01*
X140130088Y-101545031D01*
X140121167Y-101542448D01*
X140111916Y-101543249D01*
X140111914Y-101543249D01*
X140083330Y-101545725D01*
X140074650Y-101546100D01*
X140066754Y-101546100D01*
X140062202Y-101546948D01*
X140062191Y-101546949D01*
X140060947Y-101547181D01*
X140051203Y-101548508D01*
X140018106Y-101551374D01*
X140009762Y-101555453D01*
X140005329Y-101556682D01*
X140001031Y-101558340D01*
X139991901Y-101560041D01*
X139963613Y-101577478D01*
X139955018Y-101582212D01*
X139933512Y-101592724D01*
X139933509Y-101592726D01*
X139925167Y-101596804D01*
X139918850Y-101603614D01*
X139915158Y-101606356D01*
X139911748Y-101609448D01*
X139903839Y-101614323D01*
X139883719Y-101640782D01*
X139877407Y-101648290D01*
X139854815Y-101672645D01*
X139851374Y-101681270D01*
X139848908Y-101685170D01*
X139846842Y-101689277D01*
X139841223Y-101696667D01*
X139838641Y-101705583D01*
X139838640Y-101705585D01*
X139831978Y-101728591D01*
X139828786Y-101737886D01*
X139816481Y-101768729D01*
X139816101Y-101772605D01*
X139816101Y-101775004D01*
X139815750Y-101779788D01*
X139815032Y-101787110D01*
X139812448Y-101796033D01*
X139813249Y-101805284D01*
X139813249Y-101805287D01*
X139815726Y-101833881D01*
X139816101Y-101842561D01*
X139816100Y-115493475D01*
X139796887Y-115552606D01*
X139746587Y-115589151D01*
X139690142Y-115590827D01*
X139672179Y-115586148D01*
X139667094Y-115585882D01*
X139667091Y-115585881D01*
X139556294Y-115580075D01*
X139474178Y-115575771D01*
X139469140Y-115576533D01*
X139469139Y-115576533D01*
X139460398Y-115577855D01*
X139278135Y-115605420D01*
X139181100Y-115641122D01*
X139096841Y-115672123D01*
X139096839Y-115672124D01*
X139092058Y-115673883D01*
X139087730Y-115676567D01*
X139087727Y-115676568D01*
X138927881Y-115775677D01*
X138927878Y-115775679D01*
X138923548Y-115778364D01*
X138779488Y-115914594D01*
X138776566Y-115918767D01*
X138695810Y-116034099D01*
X138665763Y-116077010D01*
X138587020Y-116258975D01*
X138546474Y-116453058D01*
X138546456Y-116458155D01*
X138546456Y-116458157D01*
X138546247Y-116517966D01*
X138545782Y-116651329D01*
X138260624Y-116651329D01*
X138268617Y-116559978D01*
X138268617Y-116551222D01*
X138249832Y-116336513D01*
X138248311Y-116327884D01*
X138192527Y-116119699D01*
X138189534Y-116111474D01*
X138098444Y-115916131D01*
X138094069Y-115908553D01*
X138044645Y-115837968D01*
X138033823Y-115829813D01*
X138033181Y-115829801D01*
X138026771Y-115833653D01*
X137316091Y-116544332D01*
X137309936Y-116556411D01*
X136653437Y-116556411D01*
X136654264Y-116554789D01*
X136653454Y-116549677D01*
X135939961Y-115836185D01*
X135927883Y-115830031D01*
X135927248Y-115830132D01*
X135921609Y-115835034D01*
X135870131Y-115908553D01*
X135865753Y-115916136D01*
X135831949Y-115988628D01*
X135789547Y-116034099D01*
X135728515Y-116045962D01*
X135672166Y-116019686D01*
X135642023Y-115965307D01*
X135640597Y-115955317D01*
X135639609Y-115944555D01*
X135634699Y-115891119D01*
X135630591Y-115846411D01*
X135630590Y-115846406D01*
X135630169Y-115841823D01*
X135570152Y-115629020D01*
X135557221Y-115602798D01*
X135508756Y-115504519D01*
X136256301Y-115504519D01*
X136260153Y-115510929D01*
X136970832Y-116221609D01*
X136982911Y-116227764D01*
X136988023Y-116226954D01*
X137701515Y-115513461D01*
X137707669Y-115501383D01*
X137707568Y-115500748D01*
X137702666Y-115495109D01*
X137629147Y-115443631D01*
X137621569Y-115439256D01*
X137426226Y-115348166D01*
X137418001Y-115345173D01*
X137209816Y-115289389D01*
X137201187Y-115287868D01*
X136986478Y-115269083D01*
X136977722Y-115269083D01*
X136763013Y-115287868D01*
X136754384Y-115289389D01*
X136546199Y-115345173D01*
X136537974Y-115348166D01*
X136342631Y-115439256D01*
X136335053Y-115443631D01*
X136264468Y-115493055D01*
X136256313Y-115503877D01*
X136256301Y-115504519D01*
X135508756Y-115504519D01*
X135474403Y-115434859D01*
X135474401Y-115434856D01*
X135472360Y-115430717D01*
X135340068Y-115253556D01*
X135318859Y-115233950D01*
X135201161Y-115125152D01*
X135177706Y-115103470D01*
X135173806Y-115101009D01*
X135173803Y-115101007D01*
X134994620Y-114987952D01*
X134994617Y-114987950D01*
X134990711Y-114985486D01*
X134785347Y-114903554D01*
X134568491Y-114860419D01*
X134456263Y-114858949D01*
X134352019Y-114857584D01*
X134352015Y-114857584D01*
X134347406Y-114857524D01*
X134342861Y-114858305D01*
X134134043Y-114894186D01*
X134134038Y-114894187D01*
X134129495Y-114894968D01*
X134043281Y-114926774D01*
X133926387Y-114969898D01*
X133926385Y-114969899D01*
X133922056Y-114971496D01*
X133918088Y-114973857D01*
X133736002Y-115082187D01*
X133735997Y-115082191D01*
X133732038Y-115084546D01*
X133728572Y-115087585D01*
X133728570Y-115087587D01*
X133569270Y-115227289D01*
X133569267Y-115227292D01*
X133565803Y-115230330D01*
X133562950Y-115233949D01*
X133562949Y-115233950D01*
X133535252Y-115269083D01*
X133428918Y-115403967D01*
X133426772Y-115408046D01*
X133334771Y-115582913D01*
X133325969Y-115599642D01*
X133317044Y-115628384D01*
X133264316Y-115798197D01*
X133260402Y-115810801D01*
X133248832Y-115908553D01*
X133235504Y-116021166D01*
X133234414Y-116030373D01*
X132378078Y-116030373D01*
X132370304Y-115966347D01*
X132369755Y-115960298D01*
X132366624Y-115908553D01*
X132365851Y-115895772D01*
X132365678Y-115891118D01*
X132365590Y-115884758D01*
X132364623Y-115815375D01*
X132364053Y-115774428D01*
X132364053Y-115774425D01*
X132363974Y-115768783D01*
X132362643Y-115763301D01*
X132362642Y-115763294D01*
X132362141Y-115761231D01*
X132359300Y-115737493D01*
X132359300Y-98921911D01*
X151469737Y-98921911D01*
X151488060Y-99062030D01*
X151544973Y-99191374D01*
X151635900Y-99299545D01*
X151753533Y-99377849D01*
X151755953Y-99378605D01*
X151799512Y-99419939D01*
X151810844Y-99481071D01*
X151784078Y-99537190D01*
X151764786Y-99553023D01*
X151746677Y-99564449D01*
X151653134Y-99670367D01*
X151593078Y-99798282D01*
X151590182Y-99816884D01*
X151573574Y-99923546D01*
X151571337Y-99937911D01*
X151589660Y-100078030D01*
X151646573Y-100207374D01*
X151737500Y-100315545D01*
X151743464Y-100319515D01*
X151849167Y-100389878D01*
X151849169Y-100389879D01*
X151855133Y-100393849D01*
X151990015Y-100435989D01*
X152058846Y-100437250D01*
X152124136Y-100438447D01*
X152124138Y-100438447D01*
X152131303Y-100438578D01*
X152267639Y-100401409D01*
X152306454Y-100377577D01*
X152366896Y-100363009D01*
X152424359Y-100386752D01*
X152430227Y-100392171D01*
X157040604Y-105002548D01*
X157068830Y-105057946D01*
X157059104Y-105119354D01*
X157015140Y-105163318D01*
X156953732Y-105173044D01*
X156940644Y-105170065D01*
X156849234Y-105142727D01*
X156849231Y-105142727D01*
X156842368Y-105140674D01*
X156835203Y-105140630D01*
X156835201Y-105140630D01*
X156772546Y-105140248D01*
X156701059Y-105139811D01*
X156694170Y-105141780D01*
X156694169Y-105141780D01*
X156690856Y-105142727D01*
X156565188Y-105178643D01*
X156445677Y-105254049D01*
X156440932Y-105259422D01*
X156363006Y-105347657D01*
X156352134Y-105359967D01*
X156292078Y-105487882D01*
X156270337Y-105627511D01*
X156288660Y-105767630D01*
X156345573Y-105896974D01*
X156436500Y-106005145D01*
X156446343Y-106011697D01*
X156484920Y-106060454D01*
X156491200Y-106095441D01*
X156491200Y-106188186D01*
X156471987Y-106247317D01*
X156461735Y-106259321D01*
X156339939Y-106381117D01*
X156284541Y-106409343D01*
X156268190Y-106410580D01*
X156237080Y-106410390D01*
X156142259Y-106409811D01*
X156135370Y-106411780D01*
X156135369Y-106411780D01*
X156075905Y-106428775D01*
X156006388Y-106448643D01*
X155886877Y-106524049D01*
X155793334Y-106629967D01*
X155733278Y-106757882D01*
X155711537Y-106897511D01*
X155721410Y-106973012D01*
X155725085Y-107001111D01*
X155729860Y-107037630D01*
X155786773Y-107166974D01*
X155877700Y-107275145D01*
X155883664Y-107279115D01*
X155989367Y-107349478D01*
X155989369Y-107349479D01*
X155995333Y-107353449D01*
X156130215Y-107395589D01*
X156199046Y-107396850D01*
X156264336Y-107398047D01*
X156264338Y-107398047D01*
X156271503Y-107398178D01*
X156407839Y-107361009D01*
X156413945Y-107357260D01*
X156413947Y-107357259D01*
X156522158Y-107290817D01*
X156522159Y-107290817D01*
X156528262Y-107287069D01*
X156609992Y-107196775D01*
X156618283Y-107187615D01*
X156623092Y-107182302D01*
X156626215Y-107175856D01*
X156626217Y-107175853D01*
X156681583Y-107061577D01*
X156681584Y-107061574D01*
X156684706Y-107055130D01*
X156708151Y-106915777D01*
X156708300Y-106903600D01*
X156707428Y-106897511D01*
X156702161Y-106860729D01*
X156712798Y-106799472D01*
X156730610Y-106775334D01*
X156929316Y-106576628D01*
X156932550Y-106573837D01*
X156937134Y-106571596D01*
X156971561Y-106534483D01*
X156974179Y-106531765D01*
X156983905Y-106522039D01*
X156985957Y-106519048D01*
X156987333Y-106517480D01*
X157001169Y-106502565D01*
X157001170Y-106502564D01*
X157007486Y-106495755D01*
X157011051Y-106486819D01*
X157021535Y-106467184D01*
X157021722Y-106466912D01*
X157021723Y-106466909D01*
X157026976Y-106459252D01*
X157032503Y-106435964D01*
X157036945Y-106421919D01*
X157043188Y-106406269D01*
X157043188Y-106406267D01*
X157045820Y-106399671D01*
X157046200Y-106395795D01*
X157046200Y-106390020D01*
X157048645Y-106369127D01*
X157048718Y-106367635D01*
X157050862Y-106358600D01*
X157047119Y-106331096D01*
X157046200Y-106317531D01*
X157046200Y-106096904D01*
X157065413Y-106037773D01*
X157081782Y-106020311D01*
X157087062Y-106017069D01*
X157091926Y-106011696D01*
X157177083Y-105917615D01*
X157181892Y-105912302D01*
X157185015Y-105905856D01*
X157185017Y-105905853D01*
X157240383Y-105791577D01*
X157240384Y-105791574D01*
X157243506Y-105785130D01*
X157266951Y-105645777D01*
X157267100Y-105633600D01*
X157247067Y-105493716D01*
X157239380Y-105476809D01*
X157232395Y-105415031D01*
X157263057Y-105360944D01*
X157319656Y-105335209D01*
X157380571Y-105347657D01*
X157402093Y-105364037D01*
X157832272Y-105794216D01*
X157835063Y-105797450D01*
X157837304Y-105802034D01*
X157844112Y-105808349D01*
X157874416Y-105836460D01*
X157877135Y-105839079D01*
X157886860Y-105848804D01*
X157889851Y-105850856D01*
X157891419Y-105852232D01*
X157913145Y-105872386D01*
X157921771Y-105875828D01*
X157921775Y-105875830D01*
X157922089Y-105875955D01*
X157941708Y-105886431D01*
X157941984Y-105886621D01*
X157941991Y-105886624D01*
X157949647Y-105891876D01*
X157958682Y-105894020D01*
X157958684Y-105894021D01*
X157972938Y-105897403D01*
X157986989Y-105901847D01*
X157994054Y-105904666D01*
X158002636Y-105908090D01*
X158002639Y-105908091D01*
X158009229Y-105910720D01*
X158013105Y-105911100D01*
X158018879Y-105911100D01*
X158039772Y-105913545D01*
X158041264Y-105913618D01*
X158050299Y-105915762D01*
X158077803Y-105912019D01*
X158091368Y-105911100D01*
X160475000Y-105911100D01*
X160534131Y-105930313D01*
X160570676Y-105980613D01*
X160575600Y-106011700D01*
X160575600Y-106268600D01*
X160587437Y-106328107D01*
X160621145Y-106378555D01*
X160671593Y-106412263D01*
X160681309Y-106414196D01*
X160681310Y-106414196D01*
X160694638Y-106416847D01*
X160731100Y-106424100D01*
X163271100Y-106424100D01*
X163307562Y-106416847D01*
X163320890Y-106414196D01*
X163320891Y-106414196D01*
X163330607Y-106412263D01*
X163381055Y-106378555D01*
X163414763Y-106328107D01*
X163426600Y-106268600D01*
X163426600Y-104998600D01*
X163414763Y-104939093D01*
X163381055Y-104888645D01*
X163330607Y-104854937D01*
X163320891Y-104853004D01*
X163320890Y-104853004D01*
X163293124Y-104847481D01*
X163271100Y-104843100D01*
X160731100Y-104843100D01*
X160709076Y-104847481D01*
X160681310Y-104853004D01*
X160681309Y-104853004D01*
X160671593Y-104854937D01*
X160621145Y-104888645D01*
X160587437Y-104939093D01*
X160575600Y-104998600D01*
X160575600Y-105255500D01*
X160556387Y-105314631D01*
X160506087Y-105351176D01*
X160475000Y-105356100D01*
X158220714Y-105356100D01*
X158161583Y-105336887D01*
X158149579Y-105326635D01*
X156162579Y-103339635D01*
X156134353Y-103284237D01*
X156144079Y-103222829D01*
X156188043Y-103178865D01*
X156233714Y-103167900D01*
X160475000Y-103167900D01*
X160534131Y-103187113D01*
X160570676Y-103237413D01*
X160575600Y-103268500D01*
X160575600Y-103728600D01*
X160576565Y-103733450D01*
X160584950Y-103775602D01*
X160587437Y-103788107D01*
X160621145Y-103838555D01*
X160671593Y-103872263D01*
X160681309Y-103874196D01*
X160681310Y-103874196D01*
X160695599Y-103877038D01*
X160731100Y-103884100D01*
X163271100Y-103884100D01*
X163306601Y-103877038D01*
X163320890Y-103874196D01*
X163320891Y-103874196D01*
X163330607Y-103872263D01*
X163381055Y-103838555D01*
X163414763Y-103788107D01*
X163417251Y-103775602D01*
X163425635Y-103733450D01*
X163426600Y-103728600D01*
X163426600Y-102458600D01*
X163414763Y-102399093D01*
X163381055Y-102348645D01*
X163330607Y-102314937D01*
X163320891Y-102313004D01*
X163320890Y-102313004D01*
X163306601Y-102310162D01*
X163271100Y-102303100D01*
X160731100Y-102303100D01*
X160695599Y-102310162D01*
X160681310Y-102313004D01*
X160681309Y-102313004D01*
X160671593Y-102314937D01*
X160621145Y-102348645D01*
X160587437Y-102399093D01*
X160575600Y-102458600D01*
X160575600Y-102512300D01*
X160556387Y-102571431D01*
X160506087Y-102607976D01*
X160475000Y-102612900D01*
X156087115Y-102612900D01*
X156027984Y-102593687D01*
X156015980Y-102583435D01*
X152996776Y-99564232D01*
X152968550Y-99508834D01*
X152978276Y-99447426D01*
X153022240Y-99403462D01*
X153041449Y-99396040D01*
X153073520Y-99387296D01*
X153073524Y-99387294D01*
X153080439Y-99385409D01*
X153086545Y-99381660D01*
X153086547Y-99381659D01*
X153194758Y-99315217D01*
X153194759Y-99315217D01*
X153200862Y-99311469D01*
X153266829Y-99238590D01*
X153320755Y-99207644D01*
X153341413Y-99205500D01*
X160142686Y-99205500D01*
X160201817Y-99224713D01*
X160213821Y-99234965D01*
X160634555Y-99655699D01*
X160662781Y-99711097D01*
X160653055Y-99772505D01*
X160634555Y-99797969D01*
X160629384Y-99803140D01*
X160621145Y-99808645D01*
X160587437Y-99859093D01*
X160575600Y-99918600D01*
X160575600Y-101188600D01*
X160587437Y-101248107D01*
X160621145Y-101298555D01*
X160671593Y-101332263D01*
X160681309Y-101334196D01*
X160681310Y-101334196D01*
X160695599Y-101337038D01*
X160731100Y-101344100D01*
X163271100Y-101344100D01*
X163306601Y-101337038D01*
X163320890Y-101334196D01*
X163320891Y-101334196D01*
X163330607Y-101332263D01*
X163381055Y-101298555D01*
X163414763Y-101248107D01*
X163426600Y-101188600D01*
X163426600Y-99918600D01*
X163414763Y-99859093D01*
X163381055Y-99808645D01*
X163330607Y-99774937D01*
X163320891Y-99773004D01*
X163320890Y-99773004D01*
X163306601Y-99770162D01*
X163271100Y-99763100D01*
X161568514Y-99763100D01*
X161509383Y-99743887D01*
X161497379Y-99733635D01*
X160739579Y-98975835D01*
X160711353Y-98920437D01*
X160721079Y-98859029D01*
X160765043Y-98815065D01*
X160810714Y-98804100D01*
X163271100Y-98804100D01*
X163306601Y-98797038D01*
X163320890Y-98794196D01*
X163320891Y-98794196D01*
X163330607Y-98792263D01*
X163381055Y-98758555D01*
X163414763Y-98708107D01*
X163426600Y-98648600D01*
X163426600Y-97378600D01*
X163414763Y-97319093D01*
X163381055Y-97268645D01*
X163330607Y-97234937D01*
X163320891Y-97233004D01*
X163320890Y-97233004D01*
X163306601Y-97230162D01*
X163271100Y-97223100D01*
X160731100Y-97223100D01*
X160695599Y-97230162D01*
X160681310Y-97233004D01*
X160681309Y-97233004D01*
X160671593Y-97234937D01*
X160621145Y-97268645D01*
X160587437Y-97319093D01*
X160575600Y-97378600D01*
X160575600Y-97432300D01*
X160556387Y-97491431D01*
X160506087Y-97527976D01*
X160475000Y-97532900D01*
X155375915Y-97532900D01*
X155316784Y-97513687D01*
X155304780Y-97503435D01*
X154927944Y-97126599D01*
X154899718Y-97071201D01*
X154899873Y-97038775D01*
X154904106Y-97013611D01*
X154904106Y-97013610D01*
X154904751Y-97009777D01*
X154904900Y-96997600D01*
X154884867Y-96857716D01*
X154826378Y-96729077D01*
X154734136Y-96622024D01*
X154615555Y-96545164D01*
X154608690Y-96543111D01*
X154608688Y-96543110D01*
X154487034Y-96506727D01*
X154487031Y-96506727D01*
X154480168Y-96504674D01*
X154473003Y-96504630D01*
X154473001Y-96504630D01*
X154410346Y-96504248D01*
X154338859Y-96503811D01*
X154331970Y-96505780D01*
X154331969Y-96505780D01*
X154328656Y-96506727D01*
X154202988Y-96542643D01*
X154083477Y-96618049D01*
X153989934Y-96723967D01*
X153929878Y-96851882D01*
X153908137Y-96991511D01*
X153926460Y-97131630D01*
X153983373Y-97260974D01*
X154074300Y-97369145D01*
X154080264Y-97373115D01*
X154185967Y-97443478D01*
X154185969Y-97443479D01*
X154191933Y-97447449D01*
X154326815Y-97489589D01*
X154468103Y-97492178D01*
X154468043Y-97495473D01*
X154515504Y-97504621D01*
X154538006Y-97521550D01*
X154987472Y-97971016D01*
X154990263Y-97974250D01*
X154992504Y-97978834D01*
X154999312Y-97985149D01*
X155029616Y-98013260D01*
X155032335Y-98015879D01*
X155042061Y-98025605D01*
X155045052Y-98027657D01*
X155046620Y-98029033D01*
X155068345Y-98049186D01*
X155076971Y-98052628D01*
X155076975Y-98052630D01*
X155077289Y-98052755D01*
X155096908Y-98063231D01*
X155097184Y-98063421D01*
X155097191Y-98063424D01*
X155104847Y-98068676D01*
X155128144Y-98074205D01*
X155142192Y-98078648D01*
X155164429Y-98087520D01*
X155168305Y-98087900D01*
X155174080Y-98087900D01*
X155194973Y-98090345D01*
X155196465Y-98090418D01*
X155205500Y-98092562D01*
X155233004Y-98088819D01*
X155246569Y-98087900D01*
X160475000Y-98087900D01*
X160534131Y-98107113D01*
X160570676Y-98157413D01*
X160575600Y-98188500D01*
X160575600Y-98589744D01*
X160556387Y-98648875D01*
X160506087Y-98685420D01*
X160443913Y-98685420D01*
X160429985Y-98678559D01*
X160429904Y-98678741D01*
X160421410Y-98674977D01*
X160413752Y-98669724D01*
X160390459Y-98664197D01*
X160376414Y-98659755D01*
X160354171Y-98650880D01*
X160350295Y-98650500D01*
X160344519Y-98650500D01*
X160323626Y-98648055D01*
X160322134Y-98647982D01*
X160313099Y-98645838D01*
X160285595Y-98649581D01*
X160272031Y-98650500D01*
X153340754Y-98650500D01*
X153281623Y-98631287D01*
X153264543Y-98615567D01*
X153214814Y-98557853D01*
X153214811Y-98557850D01*
X153210136Y-98552424D01*
X153091555Y-98475564D01*
X153084690Y-98473511D01*
X153084688Y-98473510D01*
X152963034Y-98437127D01*
X152963031Y-98437127D01*
X152956168Y-98435074D01*
X152949003Y-98435030D01*
X152949001Y-98435030D01*
X152886346Y-98434648D01*
X152814859Y-98434211D01*
X152807970Y-98436180D01*
X152807969Y-98436180D01*
X152804656Y-98437127D01*
X152678988Y-98473043D01*
X152559477Y-98548449D01*
X152551172Y-98557853D01*
X152500584Y-98615133D01*
X152447041Y-98646735D01*
X152385148Y-98640830D01*
X152348973Y-98614209D01*
X152295736Y-98552424D01*
X152177155Y-98475564D01*
X152170290Y-98473511D01*
X152170288Y-98473510D01*
X152048634Y-98437127D01*
X152048631Y-98437127D01*
X152041768Y-98435074D01*
X152034603Y-98435030D01*
X152034601Y-98435030D01*
X151971946Y-98434648D01*
X151900459Y-98434211D01*
X151893570Y-98436180D01*
X151893569Y-98436180D01*
X151890256Y-98437127D01*
X151764588Y-98473043D01*
X151645077Y-98548449D01*
X151636772Y-98557853D01*
X151557109Y-98648055D01*
X151551534Y-98654367D01*
X151548489Y-98660852D01*
X151548488Y-98660854D01*
X151535173Y-98689214D01*
X151491478Y-98782282D01*
X151469737Y-98921911D01*
X132359300Y-98921911D01*
X132359300Y-94269835D01*
X132362182Y-94245927D01*
X132362618Y-94244143D01*
X132363971Y-94238614D01*
X132365679Y-94116064D01*
X132365852Y-94111408D01*
X132365852Y-94111407D01*
X132369756Y-94046876D01*
X132370303Y-94040853D01*
X132396549Y-93824710D01*
X132397459Y-93818729D01*
X132406813Y-93767687D01*
X132408083Y-93761772D01*
X132430955Y-93668973D01*
X133234414Y-93668973D01*
X133234716Y-93673579D01*
X133234716Y-93673581D01*
X133235754Y-93689399D01*
X133235752Y-93689405D01*
X133235754Y-93689405D01*
X133248875Y-93889604D01*
X133250008Y-93894065D01*
X133293808Y-94066525D01*
X133303301Y-94103905D01*
X133395868Y-94304700D01*
X133523478Y-94485263D01*
X133526783Y-94488482D01*
X133526785Y-94488485D01*
X133594989Y-94554926D01*
X133681855Y-94639548D01*
X133865697Y-94762387D01*
X134068846Y-94849666D01*
X134284498Y-94898464D01*
X134358863Y-94901386D01*
X134500823Y-94906963D01*
X134500824Y-94906963D01*
X134505432Y-94907144D01*
X134509989Y-94906483D01*
X134509994Y-94906483D01*
X134614841Y-94891280D01*
X134724249Y-94875417D01*
X134933619Y-94804346D01*
X135126532Y-94696309D01*
X135194780Y-94639548D01*
X135292979Y-94557876D01*
X135296526Y-94554926D01*
X135399773Y-94430786D01*
X135434961Y-94388477D01*
X135434963Y-94388475D01*
X135437909Y-94384932D01*
X135545946Y-94192019D01*
X135617017Y-93982649D01*
X135639913Y-93824740D01*
X135648319Y-93766767D01*
X135648320Y-93766758D01*
X135648744Y-93763832D01*
X135649953Y-93717701D01*
X135650323Y-93703556D01*
X135650323Y-93703549D01*
X135650400Y-93700600D01*
X135647495Y-93668973D01*
X161428414Y-93668973D01*
X161428716Y-93673579D01*
X161428716Y-93673581D01*
X161429754Y-93689399D01*
X161429752Y-93689405D01*
X161429754Y-93689405D01*
X161442875Y-93889604D01*
X161444008Y-93894065D01*
X161487808Y-94066525D01*
X161497301Y-94103905D01*
X161589868Y-94304700D01*
X161717478Y-94485263D01*
X161720783Y-94488482D01*
X161720785Y-94488485D01*
X161788989Y-94554926D01*
X161875855Y-94639548D01*
X162059697Y-94762387D01*
X162262846Y-94849666D01*
X162478498Y-94898464D01*
X162552863Y-94901386D01*
X162694823Y-94906963D01*
X162694824Y-94906963D01*
X162699432Y-94907144D01*
X162703989Y-94906483D01*
X162703994Y-94906483D01*
X162808841Y-94891280D01*
X162918249Y-94875417D01*
X163127619Y-94804346D01*
X163320532Y-94696309D01*
X163388780Y-94639548D01*
X163486979Y-94557876D01*
X163490526Y-94554926D01*
X163593773Y-94430786D01*
X163628961Y-94388477D01*
X163628963Y-94388475D01*
X163631909Y-94384932D01*
X163739946Y-94192019D01*
X163811017Y-93982649D01*
X163833913Y-93824740D01*
X163842319Y-93766767D01*
X163842320Y-93766758D01*
X163842744Y-93763832D01*
X163843953Y-93717701D01*
X163844323Y-93703556D01*
X163844323Y-93703549D01*
X163844400Y-93700600D01*
X163841073Y-93664390D01*
X163824591Y-93485011D01*
X163824590Y-93485006D01*
X163824169Y-93480423D01*
X163764152Y-93267620D01*
X163751836Y-93242645D01*
X163668403Y-93073459D01*
X163668401Y-93073456D01*
X163666360Y-93069317D01*
X163534068Y-92892156D01*
X163512859Y-92872550D01*
X163375093Y-92745201D01*
X163375094Y-92745201D01*
X163371706Y-92742070D01*
X163367806Y-92739609D01*
X163367803Y-92739607D01*
X163188620Y-92626552D01*
X163188617Y-92626550D01*
X163184711Y-92624086D01*
X162979347Y-92542154D01*
X162762491Y-92499019D01*
X162650263Y-92497549D01*
X162546019Y-92496184D01*
X162546015Y-92496184D01*
X162541406Y-92496124D01*
X162536861Y-92496905D01*
X162328043Y-92532786D01*
X162328038Y-92532787D01*
X162323495Y-92533568D01*
X162219776Y-92571832D01*
X162120387Y-92608498D01*
X162120385Y-92608499D01*
X162116056Y-92610096D01*
X162112088Y-92612457D01*
X161930002Y-92720787D01*
X161929997Y-92720791D01*
X161926038Y-92723146D01*
X161922572Y-92726185D01*
X161922570Y-92726187D01*
X161763270Y-92865889D01*
X161763267Y-92865892D01*
X161759803Y-92868930D01*
X161756950Y-92872549D01*
X161756949Y-92872550D01*
X161721510Y-92917504D01*
X161622918Y-93042567D01*
X161519969Y-93238242D01*
X161510847Y-93267620D01*
X161468485Y-93404048D01*
X161454402Y-93449401D01*
X161428414Y-93668973D01*
X135647495Y-93668973D01*
X135647073Y-93664390D01*
X135630591Y-93485011D01*
X135630590Y-93485006D01*
X135630169Y-93480423D01*
X135570152Y-93267620D01*
X135557836Y-93242645D01*
X135474403Y-93073459D01*
X135474401Y-93073456D01*
X135472360Y-93069317D01*
X135340068Y-92892156D01*
X135318859Y-92872550D01*
X135181093Y-92745201D01*
X135181094Y-92745201D01*
X135177706Y-92742070D01*
X135173806Y-92739609D01*
X135173803Y-92739607D01*
X134994620Y-92626552D01*
X134994617Y-92626550D01*
X134990711Y-92624086D01*
X134785347Y-92542154D01*
X134568491Y-92499019D01*
X134456263Y-92497549D01*
X134352019Y-92496184D01*
X134352015Y-92496184D01*
X134347406Y-92496124D01*
X134342861Y-92496905D01*
X134134043Y-92532786D01*
X134134038Y-92532787D01*
X134129495Y-92533568D01*
X134025776Y-92571832D01*
X133926387Y-92608498D01*
X133926385Y-92608499D01*
X133922056Y-92610096D01*
X133918088Y-92612457D01*
X133736002Y-92720787D01*
X133735997Y-92720791D01*
X133732038Y-92723146D01*
X133728572Y-92726185D01*
X133728570Y-92726187D01*
X133569270Y-92865889D01*
X133569267Y-92865892D01*
X133565803Y-92868930D01*
X133562950Y-92872549D01*
X133562949Y-92872550D01*
X133527510Y-92917504D01*
X133428918Y-93042567D01*
X133325969Y-93238242D01*
X133316847Y-93267620D01*
X133274485Y-93404048D01*
X133260402Y-93449401D01*
X133234414Y-93668973D01*
X132430955Y-93668973D01*
X132460179Y-93550409D01*
X132461811Y-93544556D01*
X132477257Y-93494987D01*
X132479239Y-93489242D01*
X132556420Y-93285734D01*
X132558746Y-93280119D01*
X132580053Y-93232777D01*
X132582713Y-93227314D01*
X132657655Y-93084522D01*
X132683863Y-93034587D01*
X132686844Y-93029303D01*
X132713720Y-92984847D01*
X132717018Y-92979746D01*
X132840639Y-92800650D01*
X132844240Y-92795755D01*
X132876280Y-92754859D01*
X132880171Y-92750191D01*
X133024485Y-92587294D01*
X133028650Y-92582869D01*
X133065363Y-92546156D01*
X133069788Y-92541990D01*
X133232723Y-92397644D01*
X133237378Y-92393765D01*
X133278260Y-92361736D01*
X133283140Y-92358146D01*
X133462261Y-92234508D01*
X133467363Y-92231209D01*
X133469085Y-92230168D01*
X133511818Y-92204335D01*
X133517081Y-92201367D01*
X133622128Y-92146234D01*
X133709808Y-92100216D01*
X133715271Y-92097556D01*
X133762624Y-92076244D01*
X133768239Y-92073918D01*
X133971736Y-91996742D01*
X133977478Y-91994761D01*
X134027070Y-91979306D01*
X134032908Y-91977678D01*
X134179299Y-91941596D01*
X134244248Y-91925588D01*
X134250187Y-91924313D01*
X134253737Y-91923662D01*
X134301261Y-91914953D01*
X134307217Y-91914047D01*
X134399331Y-91902862D01*
X134523353Y-91887804D01*
X134529402Y-91887255D01*
X134568798Y-91884871D01*
X134593928Y-91883351D01*
X134598563Y-91883179D01*
X134663796Y-91882270D01*
X134715272Y-91881553D01*
X134715275Y-91881553D01*
X134720917Y-91881474D01*
X134726399Y-91880143D01*
X134726406Y-91880142D01*
X134728469Y-91879641D01*
X134752207Y-91876800D01*
X162249865Y-91876800D01*
X162273773Y-91879682D01*
G37*
G04 #@! TD.AperFunction*
M02*
