G04 #@! TF.GenerationSoftware,KiCad,Pcbnew,(5.99.0-8018-g9a0f685a75)*
G04 #@! TF.CreationDate,2021-09-12T19:48:39+09:30*
G04 #@! TF.ProjectId,ADE7763_Breakout,41444537-3736-4335-9f42-7265616b6f75,rev?*
G04 #@! TF.SameCoordinates,Original*
G04 #@! TF.FileFunction,Copper,L1,Top*
G04 #@! TF.FilePolarity,Positive*
%FSLAX46Y46*%
G04 Gerber Fmt 4.6, Leading zero omitted, Abs format (unit mm)*
G04 Created by KiCad (PCBNEW (5.99.0-8018-g9a0f685a75)) date 2021-09-12 19:48:39*
%MOMM*%
%LPD*%
G01*
G04 APERTURE LIST*
G04 Aperture macros list*
%AMRoundRect*
0 Rectangle with rounded corners*
0 $1 Rounding radius*
0 $2 $3 $4 $5 $6 $7 $8 $9 X,Y pos of 4 corners*
0 Add a 4 corners polygon primitive as box body*
4,1,4,$2,$3,$4,$5,$6,$7,$8,$9,$2,$3,0*
0 Add four circle primitives for the rounded corners*
1,1,$1+$1,$2,$3,0*
1,1,$1+$1,$4,$5,0*
1,1,$1+$1,$6,$7,0*
1,1,$1+$1,$8,$9,0*
0 Add four rect primitives between the rounded corners*
20,1,$1+$1,$2,$3,$4,$5,0*
20,1,$1+$1,$4,$5,$6,$7,0*
20,1,$1+$1,$6,$7,$8,$9,0*
20,1,$1+$1,$8,$9,$2,$3,0*%
G04 Aperture macros list end*
G04 #@! TA.AperFunction,SMDPad,CuDef*
%ADD10RoundRect,0.125000X0.125000X-0.825000X0.125000X0.825000X-0.125000X0.825000X-0.125000X-0.825000X0*%
G04 #@! TD*
G04 #@! TA.AperFunction,SMDPad,CuDef*
%ADD11RoundRect,0.111125X-0.333375X0.333375X-0.333375X-0.333375X0.333375X-0.333375X0.333375X0.333375X0*%
G04 #@! TD*
G04 #@! TA.AperFunction,SMDPad,CuDef*
%ADD12R,1.270000X1.270000*%
G04 #@! TD*
G04 #@! TA.AperFunction,SMDPad,CuDef*
%ADD13RoundRect,0.111125X0.333375X-0.333375X0.333375X0.333375X-0.333375X0.333375X-0.333375X-0.333375X0*%
G04 #@! TD*
G04 #@! TA.AperFunction,SMDPad,CuDef*
%ADD14R,5.334000X1.930400*%
G04 #@! TD*
G04 #@! TA.AperFunction,ComponentPad*
%ADD15R,1.651000X1.651000*%
G04 #@! TD*
G04 #@! TA.AperFunction,ComponentPad*
%ADD16C,1.651000*%
G04 #@! TD*
G04 #@! TA.AperFunction,ViaPad*
%ADD17C,0.685800*%
G04 #@! TD*
G04 #@! TA.AperFunction,Conductor*
%ADD18C,0.254000*%
G04 #@! TD*
G04 #@! TA.AperFunction,Conductor*
%ADD19C,0.406400*%
G04 #@! TD*
G04 #@! TA.AperFunction,Conductor*
%ADD20C,0.250000*%
G04 #@! TD*
G04 APERTURE END LIST*
D10*
X145207700Y-99898400D03*
X145857700Y-99898400D03*
X146507700Y-99898400D03*
X147157700Y-99898400D03*
X147807700Y-99898400D03*
X148457700Y-99898400D03*
X149107700Y-99898400D03*
X149757700Y-99898400D03*
X150407700Y-99898400D03*
X151057700Y-99898400D03*
X151057700Y-106898400D03*
X150407700Y-106898400D03*
X149757700Y-106898400D03*
X149107700Y-106898400D03*
X148457700Y-106898400D03*
X147807700Y-106898400D03*
X147157700Y-106898400D03*
X146507700Y-106898400D03*
X145857700Y-106898400D03*
X145207700Y-106898400D03*
D11*
X156286100Y-94711600D03*
X156286100Y-96235600D03*
X162788500Y-109596000D03*
X162788500Y-111120000D03*
D12*
X153746100Y-104363600D03*
X153746100Y-101823600D03*
D11*
X156286100Y-102331600D03*
X156286100Y-103855600D03*
D13*
X138506100Y-96235600D03*
X138506100Y-94711600D03*
D12*
X139776100Y-104363600D03*
X139776100Y-101823600D03*
D11*
X134696100Y-102331600D03*
X134696100Y-103855600D03*
D12*
X142316100Y-104363600D03*
X142316100Y-101823600D03*
D11*
X137236100Y-102331600D03*
X137236100Y-103855600D03*
D13*
X152628500Y-111120000D03*
X152628500Y-109596000D03*
X147548500Y-111120000D03*
X147548500Y-109596000D03*
D11*
X142468500Y-109596000D03*
X142468500Y-111120000D03*
D14*
X152222100Y-95473600D03*
X142570100Y-95473600D03*
D13*
X139928500Y-111120000D03*
X139928500Y-109596000D03*
X150088500Y-111120000D03*
X150088500Y-109596000D03*
X160248500Y-111120000D03*
X160248500Y-109596000D03*
X145008500Y-111120000D03*
X145008500Y-109596000D03*
D11*
X155295500Y-109596000D03*
X155295500Y-111120000D03*
X137388500Y-109596000D03*
X137388500Y-111120000D03*
D13*
X157835500Y-111120000D03*
X157835500Y-109596000D03*
X134848500Y-111120000D03*
X134848500Y-109596000D03*
D15*
X159842100Y-116555600D03*
D16*
X157302100Y-116555600D03*
X154762100Y-116555600D03*
X152222100Y-116555600D03*
X149682100Y-116555600D03*
X147142100Y-116555600D03*
X144602100Y-116555600D03*
X142062100Y-116555600D03*
X139522100Y-116555600D03*
X136982100Y-116555600D03*
D17*
X156209900Y-106903600D03*
X156768700Y-105633600D03*
X140969900Y-112491600D03*
X143281300Y-112415400D03*
X143357500Y-107513200D03*
X151333100Y-108656200D03*
X148031100Y-101823600D03*
X156590900Y-112212200D03*
X140969900Y-106751200D03*
X148031100Y-115158600D03*
X148666100Y-110713600D03*
X147713600Y-104681100D03*
X149301100Y-111983600D03*
X145173600Y-103411100D03*
X147078600Y-101823600D03*
X144856100Y-104363600D03*
X145808600Y-102776100D03*
X155333600Y-113888600D03*
X156921100Y-110396100D03*
X154406500Y-96997600D03*
X152882500Y-98928000D03*
X151968100Y-98928000D03*
X152069700Y-99944000D03*
D18*
X149097900Y-106878200D02*
X149098000Y-106878100D01*
X149098000Y-106878100D02*
X149098000Y-104884200D01*
X149098000Y-104884200D02*
X149618600Y-104363600D01*
X149618600Y-104363600D02*
X151206100Y-104363600D01*
X151206100Y-104363600D02*
X153111100Y-106268600D01*
X153111100Y-106268600D02*
X156921100Y-106268600D01*
X156921100Y-106268600D02*
X160248500Y-109596000D01*
X148348600Y-106903600D02*
X148462900Y-106878200D01*
X148348600Y-106903600D02*
X148348600Y-108173600D01*
X148666100Y-108491100D02*
X148983600Y-108491100D01*
X152476100Y-109443600D02*
X150253600Y-109443600D01*
X148348600Y-108173600D02*
X148666100Y-108491100D01*
X152476100Y-109443600D02*
X152628500Y-109596000D01*
X148983600Y-108491100D02*
X150088500Y-109596000D01*
X150253600Y-109443600D02*
X150088500Y-109596000D01*
X147713600Y-106903600D02*
X147802500Y-106878200D01*
X147713600Y-106903600D02*
X147713600Y-109443600D01*
X147713600Y-109443600D02*
X147548500Y-109596000D01*
X147396100Y-109443600D02*
X147548500Y-109596000D01*
X145173600Y-109443600D02*
X145008500Y-109596000D01*
X147396100Y-109443600D02*
X145173600Y-109443600D01*
X162636100Y-111031100D02*
X162788500Y-111120000D01*
X162318600Y-110713600D02*
X162636100Y-111031100D01*
X161366100Y-110713600D02*
X162318600Y-110713600D01*
X160248500Y-109596000D02*
X161366100Y-110713600D01*
X144246500Y-109291200D02*
X142519300Y-111018400D01*
X147192900Y-106954400D02*
X147167500Y-106878200D01*
X142519300Y-111018400D02*
X142468500Y-111120000D01*
X144246500Y-109088000D02*
X144246500Y-109291200D01*
X147192900Y-108173600D02*
X146888100Y-108478400D01*
X141363600Y-111031100D02*
X139928500Y-109596000D01*
X142316100Y-111031100D02*
X141363600Y-111031100D01*
X144856100Y-108478400D02*
X144246500Y-109088000D01*
X146888100Y-108478400D02*
X144856100Y-108478400D01*
X142316100Y-111031100D02*
X142468500Y-111120000D01*
X147192900Y-106954400D02*
X147192900Y-108173600D01*
X150418700Y-106878200D02*
X150418700Y-105532000D01*
X151510900Y-105252600D02*
X152933300Y-106675000D01*
X156209900Y-106903600D02*
X156121000Y-106992500D01*
X154063600Y-104046100D02*
X156286100Y-104046100D01*
X156489300Y-103855600D02*
X156286100Y-103855600D01*
X155803500Y-106675000D02*
X156121000Y-106992500D01*
X152933300Y-106675000D02*
X155803500Y-106675000D01*
X156692500Y-104058800D02*
X156489300Y-103855600D01*
X156286100Y-104046100D02*
X156286100Y-103855600D01*
X156121000Y-106992500D02*
X156235300Y-107106800D01*
X150698100Y-105252600D02*
X151510900Y-105252600D01*
X156692500Y-104058800D02*
X156768700Y-104160400D01*
X156768700Y-104160400D02*
X156870300Y-104160400D01*
X150418700Y-105532000D02*
X150698100Y-105252600D01*
X153746100Y-104363600D02*
X154063600Y-104046100D01*
X156768700Y-105633600D02*
X156768700Y-104160400D01*
X141998600Y-95791100D02*
X142570100Y-95473600D01*
X147713600Y-99918600D02*
X147802500Y-99918600D01*
X141998600Y-95791100D02*
X141681100Y-96108600D01*
X142316100Y-95473600D02*
X142570100Y-95473600D01*
X141998600Y-95791100D02*
X147713600Y-95791100D01*
X141681100Y-96108600D02*
X138506100Y-96108600D01*
X138506100Y-96108600D02*
X138506100Y-96235600D01*
X147713600Y-95791100D02*
X147713600Y-99918600D01*
X142316100Y-95473600D02*
X141998600Y-95791100D01*
X148348600Y-99918600D02*
X148462900Y-99918600D01*
X153111100Y-94838600D02*
X156286100Y-94838600D01*
X152476100Y-95473600D02*
X153111100Y-94838600D01*
X152476100Y-95473600D02*
X152222100Y-95473600D01*
X148348600Y-95473600D02*
X148348600Y-99918600D01*
X156286100Y-94838600D02*
X156286100Y-94711600D01*
X152222100Y-95473600D02*
X148348600Y-95473600D01*
D19*
X135966100Y-93568600D02*
X156921100Y-93568600D01*
X149758300Y-106878200D02*
X149783700Y-106878200D01*
X153111100Y-99918600D02*
X153111100Y-101823600D01*
X151206100Y-108529200D02*
X151333100Y-108656200D01*
X156921100Y-93568600D02*
X157556100Y-94203600D01*
X149758300Y-108376800D02*
X150164700Y-108529200D01*
X133426100Y-114523600D02*
X133426100Y-103093600D01*
X148031100Y-115158600D02*
X148031100Y-114523600D01*
X150164700Y-108529200D02*
X151206100Y-108529200D01*
X149783700Y-106878200D02*
X149758300Y-108376800D01*
X148031100Y-114523600D02*
X133426100Y-114523600D01*
X157556100Y-95473600D02*
X153111100Y-99918600D01*
X157556100Y-94203600D02*
X157556100Y-95473600D01*
X133426100Y-103093600D02*
X135966100Y-100553600D01*
X151053700Y-108402200D02*
X151104500Y-108453000D01*
X151053700Y-106878200D02*
X151053700Y-108402200D01*
X153111100Y-101823600D02*
X148031100Y-101823600D01*
X135966100Y-100553600D02*
X135966100Y-93568600D01*
D20*
X145211700Y-105447100D02*
X145211700Y-106878200D01*
D19*
X145173600Y-106586100D02*
X145211700Y-106878200D01*
X139776100Y-104363600D02*
X137553600Y-104363600D01*
X145808600Y-106903600D02*
X145846700Y-106878200D01*
D20*
X146295200Y-104998600D02*
X145660200Y-104998600D01*
X146507100Y-106878200D02*
X146507100Y-105447100D01*
D19*
X137236100Y-104046100D02*
X137236100Y-103855600D01*
D20*
X145846700Y-105447100D02*
X145846700Y-106878200D01*
D19*
X134696100Y-104046100D02*
X134696100Y-103855600D01*
X146761100Y-104998600D02*
X147396100Y-104998600D01*
D20*
X146761100Y-105193100D02*
X146761100Y-104998600D01*
D19*
X137236100Y-104046100D02*
X134696100Y-104046100D01*
X145173600Y-106903600D02*
X145211700Y-106878200D01*
X146443600Y-106903600D02*
X146507100Y-106878200D01*
D20*
X145660200Y-104998600D02*
X145211700Y-105447100D01*
X146507100Y-105447100D02*
X146761100Y-105193100D01*
D19*
X137553600Y-104363600D02*
X137236100Y-104046100D01*
X142316100Y-104363600D02*
X142951100Y-104363600D01*
X147396100Y-104998600D02*
X147713600Y-104681100D01*
X142316100Y-104363600D02*
X139776100Y-104363600D01*
D20*
X146295200Y-104998600D02*
X145846700Y-105447100D01*
X146761100Y-104998600D02*
X146295200Y-104998600D01*
D19*
X142951100Y-104363600D02*
X145173600Y-106586100D01*
D18*
X155333600Y-111031100D02*
X157556100Y-111031100D01*
X155333600Y-111031100D02*
X155295500Y-111120000D01*
X155333600Y-111348600D02*
X155295500Y-111120000D01*
X146443600Y-112618600D02*
X145173600Y-111348600D01*
X155333600Y-111348600D02*
X154063600Y-112618600D01*
X157556100Y-111031100D02*
X157835500Y-111120000D01*
X145173600Y-111348600D02*
X145008500Y-111120000D01*
X154063600Y-112618600D02*
X146443600Y-112618600D01*
X137553600Y-111031100D02*
X137388500Y-111120000D01*
X137236100Y-111031100D02*
X137388500Y-111120000D01*
X139776100Y-111031100D02*
X139928500Y-111120000D01*
X135013600Y-111031100D02*
X134848500Y-111120000D01*
X137236100Y-111031100D02*
X135013600Y-111031100D01*
X137553600Y-111031100D02*
X139776100Y-111031100D01*
X149936100Y-111348600D02*
X150088500Y-111120000D01*
X149301100Y-111983600D02*
X149936100Y-111348600D01*
X154063600Y-114523600D02*
X156921100Y-114523600D01*
X160096100Y-111348600D02*
X160248500Y-111120000D01*
X152158600Y-116428600D02*
X154063600Y-114523600D01*
X156921100Y-114523600D02*
X160096100Y-111348600D01*
X152158600Y-116428600D02*
X152222100Y-116555600D01*
X145173600Y-99918600D02*
X145211700Y-99918600D01*
X145173600Y-103411100D02*
X145173600Y-99918600D01*
X147078600Y-99918600D02*
X147167500Y-99918600D01*
X147078600Y-101823600D02*
X147078600Y-99918600D01*
X144856100Y-104363600D02*
X146443600Y-104363600D01*
X146443600Y-99918600D02*
X146507100Y-99918600D01*
X146443600Y-104363600D02*
X146443600Y-99918600D01*
X145808600Y-102776100D02*
X145808600Y-99918600D01*
X145808600Y-99918600D02*
X145846700Y-99918600D01*
X134696100Y-109761100D02*
X134848500Y-109596000D01*
X134061100Y-113888600D02*
X134061100Y-110396100D01*
X155333600Y-113888600D02*
X134061100Y-113888600D01*
X134061100Y-110396100D02*
X134696100Y-109761100D01*
X156921100Y-110396100D02*
X157556100Y-109761100D01*
X157556100Y-109761100D02*
X157835500Y-109596000D01*
X149224900Y-98826400D02*
X149123300Y-98928000D01*
X154304900Y-96896000D02*
X150748900Y-96896000D01*
X150748900Y-96896000D02*
X149224900Y-98420000D01*
X149123300Y-98928000D02*
X149123300Y-99842400D01*
X149123300Y-99842400D02*
X149097900Y-99918600D01*
X149224900Y-98420000D02*
X149224900Y-98826400D01*
X154406500Y-96997600D02*
X154304900Y-96896000D01*
X149834500Y-98623200D02*
X149834500Y-99842400D01*
X150444100Y-98013600D02*
X149834500Y-98623200D01*
X149834500Y-99842400D02*
X149758300Y-99918600D01*
X151968100Y-98013600D02*
X150444100Y-98013600D01*
X152882500Y-98928000D02*
X151968100Y-98013600D01*
X151968100Y-98928000D02*
X151460100Y-98420000D01*
X150647300Y-98420000D02*
X150444100Y-98623200D01*
X150444100Y-99842400D02*
X150418700Y-99918600D01*
X151460100Y-98420000D02*
X150647300Y-98420000D01*
X150444100Y-98623200D02*
X150444100Y-99842400D01*
X152069700Y-99944000D02*
X151053700Y-99944000D01*
X151053700Y-99944000D02*
X151053700Y-99918600D01*
G04 #@! TA.AperFunction,Conductor*
G36*
X162273773Y-91879682D02*
G01*
X162274766Y-91879925D01*
X162281086Y-91881471D01*
X162403636Y-91883179D01*
X162408274Y-91883351D01*
X162472824Y-91887256D01*
X162478839Y-91887802D01*
X162694990Y-91914049D01*
X162700962Y-91914957D01*
X162751999Y-91924310D01*
X162757928Y-91925583D01*
X162969291Y-91977679D01*
X162975144Y-91979311D01*
X163024713Y-91994757D01*
X163030458Y-91996739D01*
X163233966Y-92073920D01*
X163239581Y-92076246D01*
X163286923Y-92097553D01*
X163292386Y-92100213D01*
X163485113Y-92201363D01*
X163490397Y-92204344D01*
X163534853Y-92231220D01*
X163539954Y-92234518D01*
X163719050Y-92358139D01*
X163723945Y-92361740D01*
X163764841Y-92393780D01*
X163769509Y-92397671D01*
X163932406Y-92541985D01*
X163936831Y-92546150D01*
X163973544Y-92582863D01*
X163977710Y-92587288D01*
X164122056Y-92750223D01*
X164125935Y-92754878D01*
X164157960Y-92795755D01*
X164161554Y-92800640D01*
X164285192Y-92979761D01*
X164288481Y-92984847D01*
X164315365Y-93029318D01*
X164318333Y-93034581D01*
X164344545Y-93084522D01*
X164419484Y-93227308D01*
X164422144Y-93232771D01*
X164443456Y-93280124D01*
X164445782Y-93285739D01*
X164522958Y-93489236D01*
X164524939Y-93494978D01*
X164540394Y-93544570D01*
X164542022Y-93550408D01*
X164572381Y-93673581D01*
X164594112Y-93761748D01*
X164595387Y-93767687D01*
X164604747Y-93818761D01*
X164605653Y-93824717D01*
X164616838Y-93916831D01*
X164631896Y-94040853D01*
X164632445Y-94046902D01*
X164634829Y-94086298D01*
X164636148Y-94108098D01*
X164636348Y-94111407D01*
X164636521Y-94116063D01*
X164636715Y-94129963D01*
X164637636Y-94196040D01*
X164638226Y-94238417D01*
X164639557Y-94243899D01*
X164639558Y-94243906D01*
X164640059Y-94245969D01*
X164642900Y-94269707D01*
X164642900Y-115737365D01*
X164640018Y-115761273D01*
X164638229Y-115768586D01*
X164637206Y-115842061D01*
X164636522Y-115891119D01*
X164636349Y-115895772D01*
X164635117Y-115916136D01*
X164632446Y-115960291D01*
X164631897Y-115966342D01*
X164605654Y-116182474D01*
X164604739Y-116188481D01*
X164595389Y-116239503D01*
X164594116Y-116245437D01*
X164542943Y-116453058D01*
X164542024Y-116456785D01*
X164540395Y-116462627D01*
X164524934Y-116512243D01*
X164522978Y-116517914D01*
X164445763Y-116721510D01*
X164443470Y-116727046D01*
X164422154Y-116774409D01*
X164419494Y-116779871D01*
X164318329Y-116972627D01*
X164315354Y-116977901D01*
X164288493Y-117022332D01*
X164285200Y-117027427D01*
X164161521Y-117206607D01*
X164157970Y-117211433D01*
X164125947Y-117252307D01*
X164122060Y-117256972D01*
X163977707Y-117419915D01*
X163973541Y-117424340D01*
X163936838Y-117461043D01*
X163932413Y-117465208D01*
X163769476Y-117609557D01*
X163764828Y-117613430D01*
X163723963Y-117645446D01*
X163719089Y-117649033D01*
X163610909Y-117723705D01*
X163539931Y-117772698D01*
X163534841Y-117775989D01*
X163490377Y-117802868D01*
X163485132Y-117805827D01*
X163376446Y-117862869D01*
X163292392Y-117906984D01*
X163286930Y-117909644D01*
X163239575Y-117930957D01*
X163233969Y-117933279D01*
X163030452Y-118010463D01*
X163024708Y-118012445D01*
X162975143Y-118027890D01*
X162969289Y-118029522D01*
X162757938Y-118081615D01*
X162752004Y-118082889D01*
X162700959Y-118092243D01*
X162694975Y-118093154D01*
X162666586Y-118096601D01*
X162478847Y-118119396D01*
X162472798Y-118119945D01*
X162433402Y-118122329D01*
X162408272Y-118123849D01*
X162403637Y-118124021D01*
X162338404Y-118124930D01*
X162286928Y-118125647D01*
X162286925Y-118125647D01*
X162281283Y-118125726D01*
X162275801Y-118127057D01*
X162275794Y-118127058D01*
X162273731Y-118127559D01*
X162249993Y-118130400D01*
X134752335Y-118130400D01*
X134728427Y-118127518D01*
X134727434Y-118127275D01*
X134721114Y-118125729D01*
X134598563Y-118124021D01*
X134593928Y-118123849D01*
X134547453Y-118121038D01*
X134529409Y-118119946D01*
X134523358Y-118119397D01*
X134307226Y-118093154D01*
X134301219Y-118092239D01*
X134268841Y-118086306D01*
X134250194Y-118082888D01*
X134244260Y-118081615D01*
X134032905Y-118029521D01*
X134027073Y-118027895D01*
X133977457Y-118012434D01*
X133971786Y-118010478D01*
X133768190Y-117933263D01*
X133762654Y-117930970D01*
X133715270Y-117909644D01*
X133709828Y-117906994D01*
X133709809Y-117906984D01*
X133517073Y-117805829D01*
X133511810Y-117802860D01*
X133498588Y-117794867D01*
X133467368Y-117775993D01*
X133462267Y-117772696D01*
X133283093Y-117649021D01*
X133278267Y-117645470D01*
X133237385Y-117613441D01*
X133233037Y-117609817D01*
X136256531Y-117609817D01*
X136256632Y-117610452D01*
X136261534Y-117616091D01*
X136335053Y-117667569D01*
X136342631Y-117671944D01*
X136537974Y-117763034D01*
X136546199Y-117766027D01*
X136754384Y-117821811D01*
X136763013Y-117823332D01*
X136977722Y-117842117D01*
X136986478Y-117842117D01*
X137201187Y-117823332D01*
X137209816Y-117821811D01*
X137418001Y-117766027D01*
X137426226Y-117763034D01*
X137621569Y-117671944D01*
X137629147Y-117667569D01*
X137699732Y-117618145D01*
X137707887Y-117607323D01*
X137707899Y-117606681D01*
X137704047Y-117600271D01*
X136993368Y-116889591D01*
X136981289Y-116883436D01*
X136976177Y-116884246D01*
X136262685Y-117597739D01*
X136256531Y-117609817D01*
X133233037Y-117609817D01*
X133232728Y-117609560D01*
X133069785Y-117465207D01*
X133065360Y-117461041D01*
X133028657Y-117424338D01*
X133024492Y-117419913D01*
X132880143Y-117256976D01*
X132876270Y-117252328D01*
X132844253Y-117211462D01*
X132840661Y-117206581D01*
X132835317Y-117198838D01*
X132739457Y-117059962D01*
X132717002Y-117027431D01*
X132713706Y-117022332D01*
X132686832Y-116977877D01*
X132683873Y-116972632D01*
X132615781Y-116842892D01*
X132582716Y-116779892D01*
X132580056Y-116774430D01*
X132571085Y-116754498D01*
X132558739Y-116727065D01*
X132556421Y-116721469D01*
X132479237Y-116517952D01*
X132477255Y-116512208D01*
X132461810Y-116462643D01*
X132460178Y-116456789D01*
X132408085Y-116245438D01*
X132406810Y-116239498D01*
X132400318Y-116204072D01*
X132397457Y-116188459D01*
X132396545Y-116182470D01*
X132378078Y-116030373D01*
X133234414Y-116030373D01*
X133235437Y-116045962D01*
X133235754Y-116050799D01*
X133235752Y-116050805D01*
X133235754Y-116050805D01*
X133248875Y-116251004D01*
X133250008Y-116255465D01*
X133301486Y-116458157D01*
X133303301Y-116465305D01*
X133395868Y-116666100D01*
X133523478Y-116846663D01*
X133526783Y-116849882D01*
X133526785Y-116849885D01*
X133592853Y-116914246D01*
X133681855Y-117000948D01*
X133685688Y-117003509D01*
X133685689Y-117003510D01*
X133728913Y-117032391D01*
X133865697Y-117123787D01*
X133869931Y-117125606D01*
X134064419Y-117209164D01*
X134068846Y-117211066D01*
X134284498Y-117259864D01*
X134358863Y-117262786D01*
X134500823Y-117268363D01*
X134500824Y-117268363D01*
X134505432Y-117268544D01*
X134509989Y-117267883D01*
X134509994Y-117267883D01*
X134617416Y-117252307D01*
X134724249Y-117236817D01*
X134933619Y-117165746D01*
X135126532Y-117057709D01*
X135156974Y-117032391D01*
X135292979Y-116919276D01*
X135296526Y-116916326D01*
X135407150Y-116783316D01*
X135434961Y-116749877D01*
X135434963Y-116749875D01*
X135437909Y-116746332D01*
X135515336Y-116608077D01*
X135560991Y-116565875D01*
X135622734Y-116558567D01*
X135676981Y-116588947D01*
X135703325Y-116648466D01*
X135714368Y-116774687D01*
X135715889Y-116783316D01*
X135771673Y-116991501D01*
X135774666Y-116999726D01*
X135865756Y-117195069D01*
X135870131Y-117202647D01*
X135919555Y-117273232D01*
X135930377Y-117281387D01*
X135931019Y-117281399D01*
X135937429Y-117277547D01*
X136648109Y-116566868D01*
X136653437Y-116556411D01*
X137309936Y-116556411D01*
X137310746Y-116561523D01*
X138024239Y-117275015D01*
X138036317Y-117281169D01*
X138036952Y-117281068D01*
X138042591Y-117276166D01*
X138094069Y-117202647D01*
X138098444Y-117195069D01*
X138189534Y-116999726D01*
X138192527Y-116991501D01*
X138248311Y-116783316D01*
X138249832Y-116774687D01*
X138260624Y-116651329D01*
X138545782Y-116651329D01*
X138546790Y-116656327D01*
X138546790Y-116656329D01*
X138574184Y-116792186D01*
X138584972Y-116845690D01*
X138662443Y-117028200D01*
X138775031Y-117191406D01*
X138778709Y-117194933D01*
X138868530Y-117281068D01*
X138918136Y-117328639D01*
X138922449Y-117331355D01*
X139070108Y-117424340D01*
X139085913Y-117434293D01*
X139271508Y-117504054D01*
X139467339Y-117535070D01*
X139472430Y-117534839D01*
X139472433Y-117534839D01*
X139566373Y-117530573D01*
X139665407Y-117526076D01*
X139857622Y-117477438D01*
X139976614Y-117419915D01*
X140031538Y-117393364D01*
X140031539Y-117393363D01*
X140036130Y-117391144D01*
X140042924Y-117385950D01*
X140179686Y-117281387D01*
X140193641Y-117270718D01*
X140209646Y-117252307D01*
X140320374Y-117124928D01*
X140323719Y-117121080D01*
X140421052Y-116948342D01*
X140426434Y-116931581D01*
X140480105Y-116764414D01*
X140480105Y-116764413D01*
X140481663Y-116759561D01*
X140493420Y-116651329D01*
X141085782Y-116651329D01*
X141086790Y-116656327D01*
X141086790Y-116656329D01*
X141114184Y-116792186D01*
X141124972Y-116845690D01*
X141202443Y-117028200D01*
X141315031Y-117191406D01*
X141318709Y-117194933D01*
X141408530Y-117281068D01*
X141458136Y-117328639D01*
X141462449Y-117331355D01*
X141610108Y-117424340D01*
X141625913Y-117434293D01*
X141811508Y-117504054D01*
X142007339Y-117535070D01*
X142012430Y-117534839D01*
X142012433Y-117534839D01*
X142106373Y-117530573D01*
X142205407Y-117526076D01*
X142397622Y-117477438D01*
X142516614Y-117419915D01*
X142571538Y-117393364D01*
X142571539Y-117393363D01*
X142576130Y-117391144D01*
X142582924Y-117385950D01*
X142719686Y-117281387D01*
X142733641Y-117270718D01*
X142749646Y-117252307D01*
X142860374Y-117124928D01*
X142863719Y-117121080D01*
X142961052Y-116948342D01*
X142966434Y-116931581D01*
X143020105Y-116764414D01*
X143020105Y-116764413D01*
X143021663Y-116759561D01*
X143033420Y-116651329D01*
X143625782Y-116651329D01*
X143626790Y-116656327D01*
X143626790Y-116656329D01*
X143654184Y-116792186D01*
X143664972Y-116845690D01*
X143742443Y-117028200D01*
X143855031Y-117191406D01*
X143858709Y-117194933D01*
X143948530Y-117281068D01*
X143998136Y-117328639D01*
X144002449Y-117331355D01*
X144150108Y-117424340D01*
X144165913Y-117434293D01*
X144351508Y-117504054D01*
X144547339Y-117535070D01*
X144552430Y-117534839D01*
X144552433Y-117534839D01*
X144646373Y-117530573D01*
X144745407Y-117526076D01*
X144937622Y-117477438D01*
X145056614Y-117419915D01*
X145111538Y-117393364D01*
X145111539Y-117393363D01*
X145116130Y-117391144D01*
X145122924Y-117385950D01*
X145259686Y-117281387D01*
X145273641Y-117270718D01*
X145289646Y-117252307D01*
X145400374Y-117124928D01*
X145403719Y-117121080D01*
X145501052Y-116948342D01*
X145506434Y-116931581D01*
X145560105Y-116764414D01*
X145560105Y-116764413D01*
X145561663Y-116759561D01*
X145573420Y-116651329D01*
X146165782Y-116651329D01*
X146166790Y-116656327D01*
X146166790Y-116656329D01*
X146194184Y-116792186D01*
X146204972Y-116845690D01*
X146282443Y-117028200D01*
X146395031Y-117191406D01*
X146398709Y-117194933D01*
X146488530Y-117281068D01*
X146538136Y-117328639D01*
X146542449Y-117331355D01*
X146690108Y-117424340D01*
X146705913Y-117434293D01*
X146891508Y-117504054D01*
X147087339Y-117535070D01*
X147092430Y-117534839D01*
X147092433Y-117534839D01*
X147186373Y-117530573D01*
X147285407Y-117526076D01*
X147477622Y-117477438D01*
X147596614Y-117419915D01*
X147651538Y-117393364D01*
X147651539Y-117393363D01*
X147656130Y-117391144D01*
X147662924Y-117385950D01*
X147799686Y-117281387D01*
X147813641Y-117270718D01*
X147829646Y-117252307D01*
X147940374Y-117124928D01*
X147943719Y-117121080D01*
X148041052Y-116948342D01*
X148046434Y-116931581D01*
X148100105Y-116764414D01*
X148100105Y-116764413D01*
X148101663Y-116759561D01*
X148113420Y-116651329D01*
X148705782Y-116651329D01*
X148706790Y-116656327D01*
X148706790Y-116656329D01*
X148734184Y-116792186D01*
X148744972Y-116845690D01*
X148822443Y-117028200D01*
X148935031Y-117191406D01*
X148938709Y-117194933D01*
X149028530Y-117281068D01*
X149078136Y-117328639D01*
X149082449Y-117331355D01*
X149230108Y-117424340D01*
X149245913Y-117434293D01*
X149431508Y-117504054D01*
X149627339Y-117535070D01*
X149632430Y-117534839D01*
X149632433Y-117534839D01*
X149726373Y-117530573D01*
X149825407Y-117526076D01*
X150017622Y-117477438D01*
X150136614Y-117419915D01*
X150191538Y-117393364D01*
X150191539Y-117393363D01*
X150196130Y-117391144D01*
X150202924Y-117385950D01*
X150339686Y-117281387D01*
X150353641Y-117270718D01*
X150369646Y-117252307D01*
X150480374Y-117124928D01*
X150483719Y-117121080D01*
X150581052Y-116948342D01*
X150586434Y-116931581D01*
X150640105Y-116764414D01*
X150640105Y-116764413D01*
X150641663Y-116759561D01*
X150663076Y-116562449D01*
X150663100Y-116555600D01*
X150662656Y-116551222D01*
X150653063Y-116456789D01*
X150643063Y-116358343D01*
X150602437Y-116228704D01*
X150585295Y-116174002D01*
X150585294Y-116173999D01*
X150583772Y-116169143D01*
X150561059Y-116128167D01*
X150535292Y-116081683D01*
X150487647Y-115995730D01*
X150484334Y-115991864D01*
X150484330Y-115991859D01*
X150361935Y-115849058D01*
X150361934Y-115849057D01*
X150358617Y-115845187D01*
X150235683Y-115749830D01*
X150205980Y-115726790D01*
X150205979Y-115726789D01*
X150201951Y-115723665D01*
X150024049Y-115636126D01*
X150013803Y-115633457D01*
X149963994Y-115620483D01*
X149832179Y-115586148D01*
X149827094Y-115585882D01*
X149827091Y-115585881D01*
X149716294Y-115580075D01*
X149634178Y-115575771D01*
X149629140Y-115576533D01*
X149629139Y-115576533D01*
X149580098Y-115583950D01*
X149438135Y-115605420D01*
X149309867Y-115652613D01*
X149256841Y-115672123D01*
X149256839Y-115672124D01*
X149252058Y-115673883D01*
X149247730Y-115676567D01*
X149247727Y-115676568D01*
X149087881Y-115775677D01*
X149087878Y-115775679D01*
X149083548Y-115778364D01*
X149020518Y-115837968D01*
X148959370Y-115895793D01*
X148939488Y-115914594D01*
X148936566Y-115918767D01*
X148855810Y-116034099D01*
X148825763Y-116077010D01*
X148747020Y-116258975D01*
X148706474Y-116453058D01*
X148706456Y-116458155D01*
X148706456Y-116458157D01*
X148706247Y-116517966D01*
X148705782Y-116651329D01*
X148113420Y-116651329D01*
X148123076Y-116562449D01*
X148123100Y-116555600D01*
X148122656Y-116551222D01*
X148113063Y-116456789D01*
X148103063Y-116358343D01*
X148062437Y-116228704D01*
X148045295Y-116174002D01*
X148045294Y-116173999D01*
X148043772Y-116169143D01*
X148021059Y-116128167D01*
X147995292Y-116081683D01*
X147947647Y-115995730D01*
X147944334Y-115991864D01*
X147944330Y-115991859D01*
X147821935Y-115849058D01*
X147821934Y-115849057D01*
X147818617Y-115845187D01*
X147695683Y-115749830D01*
X147665980Y-115726790D01*
X147665979Y-115726789D01*
X147661951Y-115723665D01*
X147484049Y-115636126D01*
X147473803Y-115633457D01*
X147423994Y-115620483D01*
X147292179Y-115586148D01*
X147287094Y-115585882D01*
X147287091Y-115585881D01*
X147176294Y-115580075D01*
X147094178Y-115575771D01*
X147089140Y-115576533D01*
X147089139Y-115576533D01*
X147040098Y-115583950D01*
X146898135Y-115605420D01*
X146769867Y-115652613D01*
X146716841Y-115672123D01*
X146716839Y-115672124D01*
X146712058Y-115673883D01*
X146707730Y-115676567D01*
X146707727Y-115676568D01*
X146547881Y-115775677D01*
X146547878Y-115775679D01*
X146543548Y-115778364D01*
X146480518Y-115837968D01*
X146419370Y-115895793D01*
X146399488Y-115914594D01*
X146396566Y-115918767D01*
X146315810Y-116034099D01*
X146285763Y-116077010D01*
X146207020Y-116258975D01*
X146166474Y-116453058D01*
X146166456Y-116458155D01*
X146166456Y-116458157D01*
X146166247Y-116517966D01*
X146165782Y-116651329D01*
X145573420Y-116651329D01*
X145583076Y-116562449D01*
X145583100Y-116555600D01*
X145582656Y-116551222D01*
X145573063Y-116456789D01*
X145563063Y-116358343D01*
X145522437Y-116228704D01*
X145505295Y-116174002D01*
X145505294Y-116173999D01*
X145503772Y-116169143D01*
X145481059Y-116128167D01*
X145455292Y-116081683D01*
X145407647Y-115995730D01*
X145404334Y-115991864D01*
X145404330Y-115991859D01*
X145281935Y-115849058D01*
X145281934Y-115849057D01*
X145278617Y-115845187D01*
X145155683Y-115749830D01*
X145125980Y-115726790D01*
X145125979Y-115726789D01*
X145121951Y-115723665D01*
X144944049Y-115636126D01*
X144933803Y-115633457D01*
X144883994Y-115620483D01*
X144752179Y-115586148D01*
X144747094Y-115585882D01*
X144747091Y-115585881D01*
X144636294Y-115580075D01*
X144554178Y-115575771D01*
X144549140Y-115576533D01*
X144549139Y-115576533D01*
X144500098Y-115583950D01*
X144358135Y-115605420D01*
X144229867Y-115652613D01*
X144176841Y-115672123D01*
X144176839Y-115672124D01*
X144172058Y-115673883D01*
X144167730Y-115676567D01*
X144167727Y-115676568D01*
X144007881Y-115775677D01*
X144007878Y-115775679D01*
X144003548Y-115778364D01*
X143940518Y-115837968D01*
X143879370Y-115895793D01*
X143859488Y-115914594D01*
X143856566Y-115918767D01*
X143775810Y-116034099D01*
X143745763Y-116077010D01*
X143667020Y-116258975D01*
X143626474Y-116453058D01*
X143626456Y-116458155D01*
X143626456Y-116458157D01*
X143626247Y-116517966D01*
X143625782Y-116651329D01*
X143033420Y-116651329D01*
X143043076Y-116562449D01*
X143043100Y-116555600D01*
X143042656Y-116551222D01*
X143033063Y-116456789D01*
X143023063Y-116358343D01*
X142982437Y-116228704D01*
X142965295Y-116174002D01*
X142965294Y-116173999D01*
X142963772Y-116169143D01*
X142941059Y-116128167D01*
X142915292Y-116081683D01*
X142867647Y-115995730D01*
X142864334Y-115991864D01*
X142864330Y-115991859D01*
X142741935Y-115849058D01*
X142741934Y-115849057D01*
X142738617Y-115845187D01*
X142615683Y-115749830D01*
X142585980Y-115726790D01*
X142585979Y-115726789D01*
X142581951Y-115723665D01*
X142404049Y-115636126D01*
X142393803Y-115633457D01*
X142343994Y-115620483D01*
X142212179Y-115586148D01*
X142207094Y-115585882D01*
X142207091Y-115585881D01*
X142096294Y-115580075D01*
X142014178Y-115575771D01*
X142009140Y-115576533D01*
X142009139Y-115576533D01*
X141960098Y-115583950D01*
X141818135Y-115605420D01*
X141689867Y-115652613D01*
X141636841Y-115672123D01*
X141636839Y-115672124D01*
X141632058Y-115673883D01*
X141627730Y-115676567D01*
X141627727Y-115676568D01*
X141467881Y-115775677D01*
X141467878Y-115775679D01*
X141463548Y-115778364D01*
X141400518Y-115837968D01*
X141339370Y-115895793D01*
X141319488Y-115914594D01*
X141316566Y-115918767D01*
X141235810Y-116034099D01*
X141205763Y-116077010D01*
X141127020Y-116258975D01*
X141086474Y-116453058D01*
X141086456Y-116458155D01*
X141086456Y-116458157D01*
X141086247Y-116517966D01*
X141085782Y-116651329D01*
X140493420Y-116651329D01*
X140503076Y-116562449D01*
X140503100Y-116555600D01*
X140502656Y-116551222D01*
X140493063Y-116456789D01*
X140483063Y-116358343D01*
X140442437Y-116228704D01*
X140425295Y-116174002D01*
X140425294Y-116173999D01*
X140423772Y-116169143D01*
X140401059Y-116128167D01*
X140375292Y-116081683D01*
X140327647Y-115995730D01*
X140324334Y-115991864D01*
X140324330Y-115991859D01*
X140201935Y-115849058D01*
X140201934Y-115849057D01*
X140198617Y-115845187D01*
X140075683Y-115749830D01*
X140045980Y-115726790D01*
X140045979Y-115726789D01*
X140041951Y-115723665D01*
X139864049Y-115636126D01*
X139853803Y-115633457D01*
X139803994Y-115620483D01*
X139672179Y-115586148D01*
X139667094Y-115585882D01*
X139667091Y-115585881D01*
X139556294Y-115580075D01*
X139474178Y-115575771D01*
X139469140Y-115576533D01*
X139469139Y-115576533D01*
X139420098Y-115583950D01*
X139278135Y-115605420D01*
X139149867Y-115652613D01*
X139096841Y-115672123D01*
X139096839Y-115672124D01*
X139092058Y-115673883D01*
X139087730Y-115676567D01*
X139087727Y-115676568D01*
X138927881Y-115775677D01*
X138927878Y-115775679D01*
X138923548Y-115778364D01*
X138860518Y-115837968D01*
X138799370Y-115895793D01*
X138779488Y-115914594D01*
X138776566Y-115918767D01*
X138695810Y-116034099D01*
X138665763Y-116077010D01*
X138587020Y-116258975D01*
X138546474Y-116453058D01*
X138546456Y-116458155D01*
X138546456Y-116458157D01*
X138546247Y-116517966D01*
X138545782Y-116651329D01*
X138260624Y-116651329D01*
X138268617Y-116559978D01*
X138268617Y-116551222D01*
X138249832Y-116336513D01*
X138248311Y-116327884D01*
X138192527Y-116119699D01*
X138189534Y-116111474D01*
X138098444Y-115916131D01*
X138094069Y-115908553D01*
X138044645Y-115837968D01*
X138033823Y-115829813D01*
X138033181Y-115829801D01*
X138026771Y-115833653D01*
X137316091Y-116544332D01*
X137309936Y-116556411D01*
X136653437Y-116556411D01*
X136654264Y-116554789D01*
X136653454Y-116549677D01*
X135939961Y-115836185D01*
X135927883Y-115830031D01*
X135927248Y-115830132D01*
X135921609Y-115835034D01*
X135870131Y-115908553D01*
X135865753Y-115916136D01*
X135831949Y-115988628D01*
X135789547Y-116034099D01*
X135728515Y-116045962D01*
X135672166Y-116019686D01*
X135642023Y-115965307D01*
X135640597Y-115955317D01*
X135639232Y-115940454D01*
X135634699Y-115891119D01*
X135630591Y-115846411D01*
X135630590Y-115846406D01*
X135630169Y-115841823D01*
X135570152Y-115629020D01*
X135557836Y-115604045D01*
X135508756Y-115504519D01*
X136256301Y-115504519D01*
X136260153Y-115510929D01*
X136970832Y-116221609D01*
X136982911Y-116227764D01*
X136988023Y-116226954D01*
X137701515Y-115513461D01*
X137707669Y-115501383D01*
X137707568Y-115500748D01*
X137702666Y-115495109D01*
X137629147Y-115443631D01*
X137621569Y-115439256D01*
X137426226Y-115348166D01*
X137418001Y-115345173D01*
X137209816Y-115289389D01*
X137201187Y-115287868D01*
X136986478Y-115269083D01*
X136977722Y-115269083D01*
X136763013Y-115287868D01*
X136754384Y-115289389D01*
X136546199Y-115345173D01*
X136537974Y-115348166D01*
X136342631Y-115439256D01*
X136335053Y-115443631D01*
X136264468Y-115493055D01*
X136256313Y-115503877D01*
X136256301Y-115504519D01*
X135508756Y-115504519D01*
X135474403Y-115434859D01*
X135474401Y-115434856D01*
X135472360Y-115430717D01*
X135340068Y-115253556D01*
X135318859Y-115233950D01*
X135181093Y-115106601D01*
X135181094Y-115106601D01*
X135177706Y-115103470D01*
X135173806Y-115101009D01*
X135173803Y-115101007D01*
X134994620Y-114987952D01*
X134994617Y-114987950D01*
X134990711Y-114985486D01*
X134785347Y-114903554D01*
X134568491Y-114860419D01*
X134456263Y-114858949D01*
X134352019Y-114857584D01*
X134352015Y-114857584D01*
X134347406Y-114857524D01*
X134342861Y-114858305D01*
X134134043Y-114894186D01*
X134134038Y-114894187D01*
X134129495Y-114894968D01*
X134025776Y-114933232D01*
X133926387Y-114969898D01*
X133926385Y-114969899D01*
X133922056Y-114971496D01*
X133918088Y-114973857D01*
X133736002Y-115082187D01*
X133735997Y-115082191D01*
X133732038Y-115084546D01*
X133728572Y-115087585D01*
X133728570Y-115087587D01*
X133569270Y-115227289D01*
X133569267Y-115227292D01*
X133565803Y-115230330D01*
X133562950Y-115233949D01*
X133562949Y-115233950D01*
X133535252Y-115269083D01*
X133428918Y-115403967D01*
X133325969Y-115599642D01*
X133317044Y-115628384D01*
X133269387Y-115781866D01*
X133260402Y-115810801D01*
X133251696Y-115884362D01*
X133235679Y-116019686D01*
X133234414Y-116030373D01*
X132378078Y-116030373D01*
X132370304Y-115966347D01*
X132369755Y-115960298D01*
X132365852Y-115895793D01*
X132365678Y-115891118D01*
X132365056Y-115846411D01*
X132364623Y-115815375D01*
X132364053Y-115774428D01*
X132364053Y-115774425D01*
X132363974Y-115768783D01*
X132362643Y-115763301D01*
X132362642Y-115763294D01*
X132362141Y-115761231D01*
X132359300Y-115737493D01*
X132359300Y-110382301D01*
X133778938Y-110382301D01*
X133780437Y-110393313D01*
X133782682Y-110409811D01*
X133783601Y-110423377D01*
X133783600Y-113836293D01*
X133783120Y-113846110D01*
X133782531Y-113852112D01*
X133779948Y-113861033D01*
X133780749Y-113870284D01*
X133780749Y-113870286D01*
X133783225Y-113898870D01*
X133783600Y-113907550D01*
X133783600Y-113915445D01*
X133784447Y-113919994D01*
X133784448Y-113920004D01*
X133784681Y-113921253D01*
X133786006Y-113930985D01*
X133788874Y-113964095D01*
X133792954Y-113972442D01*
X133794184Y-113976876D01*
X133795841Y-113981171D01*
X133797541Y-113990298D01*
X133802413Y-113998201D01*
X133802413Y-113998202D01*
X133814966Y-114018566D01*
X133819710Y-114027177D01*
X133834304Y-114057034D01*
X133841114Y-114063351D01*
X133843855Y-114067042D01*
X133846949Y-114070455D01*
X133851823Y-114078361D01*
X133859215Y-114083982D01*
X133859217Y-114083984D01*
X133878262Y-114098465D01*
X133885787Y-114104790D01*
X133910145Y-114127386D01*
X133918773Y-114130828D01*
X133922667Y-114133290D01*
X133926775Y-114135356D01*
X133934167Y-114140977D01*
X133943087Y-114143560D01*
X133943089Y-114143561D01*
X133966075Y-114150217D01*
X133975372Y-114153409D01*
X133999636Y-114163090D01*
X133999639Y-114163091D01*
X134006229Y-114165720D01*
X134010105Y-114166100D01*
X134012510Y-114166100D01*
X134017305Y-114166452D01*
X134024612Y-114167169D01*
X134033533Y-114169752D01*
X134042784Y-114168951D01*
X134042786Y-114168951D01*
X134071370Y-114166475D01*
X134080050Y-114166100D01*
X153783670Y-114166100D01*
X153842801Y-114185313D01*
X153879346Y-114235613D01*
X153879346Y-114297787D01*
X153863749Y-114327591D01*
X153857037Y-114336418D01*
X153848093Y-114346662D01*
X152600489Y-115594266D01*
X152545091Y-115622492D01*
X152503996Y-115620483D01*
X152440887Y-115604045D01*
X152372179Y-115586148D01*
X152367094Y-115585882D01*
X152367091Y-115585881D01*
X152256294Y-115580075D01*
X152174178Y-115575771D01*
X152169140Y-115576533D01*
X152169139Y-115576533D01*
X152120098Y-115583950D01*
X151978135Y-115605420D01*
X151849867Y-115652613D01*
X151796841Y-115672123D01*
X151796839Y-115672124D01*
X151792058Y-115673883D01*
X151787730Y-115676567D01*
X151787727Y-115676568D01*
X151627881Y-115775677D01*
X151627878Y-115775679D01*
X151623548Y-115778364D01*
X151560518Y-115837968D01*
X151499370Y-115895793D01*
X151479488Y-115914594D01*
X151476566Y-115918767D01*
X151395810Y-116034099D01*
X151365763Y-116077010D01*
X151287020Y-116258975D01*
X151246474Y-116453058D01*
X151246456Y-116458155D01*
X151246456Y-116458157D01*
X151246247Y-116517966D01*
X151245782Y-116651329D01*
X151246790Y-116656327D01*
X151246790Y-116656329D01*
X151274184Y-116792186D01*
X151284972Y-116845690D01*
X151362443Y-117028200D01*
X151475031Y-117191406D01*
X151478709Y-117194933D01*
X151568530Y-117281068D01*
X151618136Y-117328639D01*
X151622449Y-117331355D01*
X151770108Y-117424340D01*
X151785913Y-117434293D01*
X151971508Y-117504054D01*
X152167339Y-117535070D01*
X152172430Y-117534839D01*
X152172433Y-117534839D01*
X152266373Y-117530573D01*
X152365407Y-117526076D01*
X152557622Y-117477438D01*
X152676614Y-117419915D01*
X152731538Y-117393364D01*
X152731539Y-117393363D01*
X152736130Y-117391144D01*
X152742924Y-117385950D01*
X152879686Y-117281387D01*
X152893641Y-117270718D01*
X152909646Y-117252307D01*
X153020374Y-117124928D01*
X153023719Y-117121080D01*
X153121052Y-116948342D01*
X153126434Y-116931581D01*
X153180105Y-116764414D01*
X153180105Y-116764413D01*
X153181663Y-116759561D01*
X153193420Y-116651329D01*
X153785782Y-116651329D01*
X153786790Y-116656327D01*
X153786790Y-116656329D01*
X153814184Y-116792186D01*
X153824972Y-116845690D01*
X153902443Y-117028200D01*
X154015031Y-117191406D01*
X154018709Y-117194933D01*
X154108530Y-117281068D01*
X154158136Y-117328639D01*
X154162449Y-117331355D01*
X154310108Y-117424340D01*
X154325913Y-117434293D01*
X154511508Y-117504054D01*
X154707339Y-117535070D01*
X154712430Y-117534839D01*
X154712433Y-117534839D01*
X154806373Y-117530573D01*
X154905407Y-117526076D01*
X155097622Y-117477438D01*
X155216614Y-117419915D01*
X155271538Y-117393364D01*
X155271539Y-117393363D01*
X155276130Y-117391144D01*
X155282924Y-117385950D01*
X155419686Y-117281387D01*
X155433641Y-117270718D01*
X155449646Y-117252307D01*
X155560374Y-117124928D01*
X155563719Y-117121080D01*
X155661052Y-116948342D01*
X155666434Y-116931581D01*
X155720105Y-116764414D01*
X155720105Y-116764413D01*
X155721663Y-116759561D01*
X155733420Y-116651329D01*
X156325782Y-116651329D01*
X156326790Y-116656327D01*
X156326790Y-116656329D01*
X156354184Y-116792186D01*
X156364972Y-116845690D01*
X156442443Y-117028200D01*
X156555031Y-117191406D01*
X156558709Y-117194933D01*
X156648530Y-117281068D01*
X156698136Y-117328639D01*
X156702449Y-117331355D01*
X156850108Y-117424340D01*
X156865913Y-117434293D01*
X157051508Y-117504054D01*
X157247339Y-117535070D01*
X157252430Y-117534839D01*
X157252433Y-117534839D01*
X157346373Y-117530573D01*
X157445407Y-117526076D01*
X157637622Y-117477438D01*
X157756614Y-117419915D01*
X157811538Y-117393364D01*
X157811539Y-117393363D01*
X157816130Y-117391144D01*
X157822924Y-117385950D01*
X157959686Y-117281387D01*
X157973641Y-117270718D01*
X157989646Y-117252307D01*
X158100374Y-117124928D01*
X158103719Y-117121080D01*
X158201052Y-116948342D01*
X158206434Y-116931581D01*
X158260105Y-116764414D01*
X158260105Y-116764413D01*
X158261663Y-116759561D01*
X158283076Y-116562449D01*
X158283100Y-116555600D01*
X158282656Y-116551222D01*
X158273063Y-116456789D01*
X158263063Y-116358343D01*
X158222437Y-116228704D01*
X158205295Y-116174002D01*
X158205294Y-116173999D01*
X158203772Y-116169143D01*
X158181059Y-116128167D01*
X158155292Y-116081683D01*
X158107647Y-115995730D01*
X158104334Y-115991864D01*
X158104330Y-115991859D01*
X157981935Y-115849058D01*
X157981934Y-115849057D01*
X157978617Y-115845187D01*
X157855683Y-115749830D01*
X157830248Y-115730100D01*
X158861100Y-115730100D01*
X158861100Y-117381100D01*
X158872937Y-117440607D01*
X158906645Y-117491055D01*
X158957093Y-117524763D01*
X158966809Y-117526696D01*
X158966810Y-117526696D01*
X158981099Y-117529538D01*
X159016600Y-117536600D01*
X160667600Y-117536600D01*
X160703101Y-117529538D01*
X160717390Y-117526696D01*
X160717391Y-117526696D01*
X160727107Y-117524763D01*
X160777555Y-117491055D01*
X160811263Y-117440607D01*
X160823100Y-117381100D01*
X160823100Y-116030373D01*
X161428414Y-116030373D01*
X161429437Y-116045962D01*
X161429754Y-116050799D01*
X161429752Y-116050805D01*
X161429754Y-116050805D01*
X161442875Y-116251004D01*
X161444008Y-116255465D01*
X161495486Y-116458157D01*
X161497301Y-116465305D01*
X161589868Y-116666100D01*
X161717478Y-116846663D01*
X161720783Y-116849882D01*
X161720785Y-116849885D01*
X161786853Y-116914246D01*
X161875855Y-117000948D01*
X161879688Y-117003509D01*
X161879689Y-117003510D01*
X161922913Y-117032391D01*
X162059697Y-117123787D01*
X162063931Y-117125606D01*
X162258419Y-117209164D01*
X162262846Y-117211066D01*
X162478498Y-117259864D01*
X162552863Y-117262786D01*
X162694823Y-117268363D01*
X162694824Y-117268363D01*
X162699432Y-117268544D01*
X162703989Y-117267883D01*
X162703994Y-117267883D01*
X162811416Y-117252307D01*
X162918249Y-117236817D01*
X163127619Y-117165746D01*
X163320532Y-117057709D01*
X163350974Y-117032391D01*
X163486979Y-116919276D01*
X163490526Y-116916326D01*
X163601150Y-116783316D01*
X163628961Y-116749877D01*
X163628963Y-116749875D01*
X163631909Y-116746332D01*
X163739946Y-116553419D01*
X163811017Y-116344049D01*
X163831313Y-116204072D01*
X163842319Y-116128167D01*
X163842320Y-116128158D01*
X163842744Y-116125232D01*
X163843105Y-116111474D01*
X163844323Y-116064956D01*
X163844323Y-116064949D01*
X163844400Y-116062000D01*
X163840512Y-116019686D01*
X163824591Y-115846411D01*
X163824590Y-115846406D01*
X163824169Y-115841823D01*
X163764152Y-115629020D01*
X163751836Y-115604045D01*
X163668403Y-115434859D01*
X163668401Y-115434856D01*
X163666360Y-115430717D01*
X163534068Y-115253556D01*
X163512859Y-115233950D01*
X163375093Y-115106601D01*
X163375094Y-115106601D01*
X163371706Y-115103470D01*
X163367806Y-115101009D01*
X163367803Y-115101007D01*
X163188620Y-114987952D01*
X163188617Y-114987950D01*
X163184711Y-114985486D01*
X162979347Y-114903554D01*
X162762491Y-114860419D01*
X162650263Y-114858949D01*
X162546019Y-114857584D01*
X162546015Y-114857584D01*
X162541406Y-114857524D01*
X162536861Y-114858305D01*
X162328043Y-114894186D01*
X162328038Y-114894187D01*
X162323495Y-114894968D01*
X162219776Y-114933232D01*
X162120387Y-114969898D01*
X162120385Y-114969899D01*
X162116056Y-114971496D01*
X162112088Y-114973857D01*
X161930002Y-115082187D01*
X161929997Y-115082191D01*
X161926038Y-115084546D01*
X161922572Y-115087585D01*
X161922570Y-115087587D01*
X161763270Y-115227289D01*
X161763267Y-115227292D01*
X161759803Y-115230330D01*
X161756950Y-115233949D01*
X161756949Y-115233950D01*
X161729252Y-115269083D01*
X161622918Y-115403967D01*
X161519969Y-115599642D01*
X161511044Y-115628384D01*
X161463387Y-115781866D01*
X161454402Y-115810801D01*
X161445696Y-115884362D01*
X161429679Y-116019686D01*
X161428414Y-116030373D01*
X160823100Y-116030373D01*
X160823100Y-115730100D01*
X160811263Y-115670593D01*
X160777555Y-115620145D01*
X160727107Y-115586437D01*
X160717391Y-115584504D01*
X160717390Y-115584504D01*
X160703101Y-115581662D01*
X160667600Y-115574600D01*
X159016600Y-115574600D01*
X158981099Y-115581662D01*
X158966810Y-115584504D01*
X158966809Y-115584504D01*
X158957093Y-115586437D01*
X158906645Y-115620145D01*
X158872937Y-115670593D01*
X158861100Y-115730100D01*
X157830248Y-115730100D01*
X157825980Y-115726790D01*
X157825979Y-115726789D01*
X157821951Y-115723665D01*
X157644049Y-115636126D01*
X157633803Y-115633457D01*
X157583994Y-115620483D01*
X157452179Y-115586148D01*
X157447094Y-115585882D01*
X157447091Y-115585881D01*
X157336294Y-115580075D01*
X157254178Y-115575771D01*
X157249140Y-115576533D01*
X157249139Y-115576533D01*
X157200098Y-115583950D01*
X157058135Y-115605420D01*
X156929867Y-115652613D01*
X156876841Y-115672123D01*
X156876839Y-115672124D01*
X156872058Y-115673883D01*
X156867730Y-115676567D01*
X156867727Y-115676568D01*
X156707881Y-115775677D01*
X156707878Y-115775679D01*
X156703548Y-115778364D01*
X156640518Y-115837968D01*
X156579370Y-115895793D01*
X156559488Y-115914594D01*
X156556566Y-115918767D01*
X156475810Y-116034099D01*
X156445763Y-116077010D01*
X156367020Y-116258975D01*
X156326474Y-116453058D01*
X156326456Y-116458155D01*
X156326456Y-116458157D01*
X156326247Y-116517966D01*
X156325782Y-116651329D01*
X155733420Y-116651329D01*
X155743076Y-116562449D01*
X155743100Y-116555600D01*
X155742656Y-116551222D01*
X155733063Y-116456789D01*
X155723063Y-116358343D01*
X155682437Y-116228704D01*
X155665295Y-116174002D01*
X155665294Y-116173999D01*
X155663772Y-116169143D01*
X155641059Y-116128167D01*
X155615292Y-116081683D01*
X155567647Y-115995730D01*
X155564334Y-115991864D01*
X155564330Y-115991859D01*
X155441935Y-115849058D01*
X155441934Y-115849057D01*
X155438617Y-115845187D01*
X155315683Y-115749830D01*
X155285980Y-115726790D01*
X155285979Y-115726789D01*
X155281951Y-115723665D01*
X155104049Y-115636126D01*
X155093803Y-115633457D01*
X155043994Y-115620483D01*
X154912179Y-115586148D01*
X154907094Y-115585882D01*
X154907091Y-115585881D01*
X154796294Y-115580075D01*
X154714178Y-115575771D01*
X154709140Y-115576533D01*
X154709139Y-115576533D01*
X154660098Y-115583950D01*
X154518135Y-115605420D01*
X154389867Y-115652613D01*
X154336841Y-115672123D01*
X154336839Y-115672124D01*
X154332058Y-115673883D01*
X154327730Y-115676567D01*
X154327727Y-115676568D01*
X154167881Y-115775677D01*
X154167878Y-115775679D01*
X154163548Y-115778364D01*
X154100518Y-115837968D01*
X154039370Y-115895793D01*
X154019488Y-115914594D01*
X154016566Y-115918767D01*
X153935810Y-116034099D01*
X153905763Y-116077010D01*
X153827020Y-116258975D01*
X153786474Y-116453058D01*
X153786456Y-116458155D01*
X153786456Y-116458157D01*
X153786247Y-116517966D01*
X153785782Y-116651329D01*
X153193420Y-116651329D01*
X153203076Y-116562449D01*
X153203100Y-116555600D01*
X153202656Y-116551222D01*
X153193063Y-116456789D01*
X153183063Y-116358343D01*
X153142437Y-116228704D01*
X153125295Y-116174002D01*
X153125294Y-116173999D01*
X153123772Y-116169143D01*
X153101059Y-116128167D01*
X153048803Y-116033896D01*
X153036940Y-115972864D01*
X153065655Y-115913989D01*
X154149080Y-114830565D01*
X154204478Y-114802339D01*
X154220215Y-114801100D01*
X156870752Y-114801100D01*
X156875007Y-114801412D01*
X156879832Y-114803069D01*
X156889111Y-114802721D01*
X156889114Y-114802721D01*
X156930387Y-114801171D01*
X156934161Y-114801100D01*
X156947946Y-114801100D01*
X156951514Y-114800435D01*
X156953615Y-114800299D01*
X156962640Y-114799960D01*
X156983205Y-114799188D01*
X156991734Y-114795524D01*
X156991742Y-114795522D01*
X156992055Y-114795387D01*
X157013335Y-114788922D01*
X157013663Y-114788861D01*
X157013665Y-114788860D01*
X157022799Y-114787159D01*
X157043177Y-114774598D01*
X157056256Y-114767804D01*
X157071727Y-114761157D01*
X157071728Y-114761156D01*
X157078253Y-114758353D01*
X157081263Y-114755881D01*
X157085345Y-114751799D01*
X157101855Y-114738748D01*
X157102956Y-114737750D01*
X157110861Y-114732877D01*
X157116480Y-114725488D01*
X157116482Y-114725486D01*
X157127667Y-114710776D01*
X157136610Y-114700534D01*
X160092680Y-111744465D01*
X160148078Y-111716239D01*
X160163815Y-111715000D01*
X160607010Y-111715000D01*
X160611861Y-111714035D01*
X160611862Y-111714035D01*
X160638174Y-111708801D01*
X160683907Y-111699704D01*
X160743387Y-111659960D01*
X160762169Y-111647411D01*
X160762170Y-111647410D01*
X160770406Y-111641907D01*
X160828204Y-111555408D01*
X160839853Y-111496847D01*
X160842535Y-111483363D01*
X160842535Y-111483362D01*
X160843500Y-111478511D01*
X160843500Y-110826315D01*
X160862713Y-110767184D01*
X160913013Y-110730639D01*
X160975187Y-110730639D01*
X161015235Y-110755180D01*
X161134274Y-110874219D01*
X161137064Y-110877452D01*
X161139304Y-110882034D01*
X161176402Y-110916447D01*
X161179121Y-110919066D01*
X161188860Y-110928805D01*
X161191853Y-110930859D01*
X161193425Y-110932239D01*
X161215145Y-110952386D01*
X161223772Y-110955828D01*
X161223774Y-110955829D01*
X161224082Y-110955952D01*
X161243714Y-110966434D01*
X161251647Y-110971876D01*
X161274944Y-110977405D01*
X161288992Y-110981848D01*
X161311229Y-110990720D01*
X161315105Y-110991100D01*
X161320880Y-110991100D01*
X161341773Y-110993545D01*
X161343265Y-110993618D01*
X161352300Y-110995762D01*
X161379804Y-110992019D01*
X161393369Y-110991100D01*
X162092901Y-110991100D01*
X162152032Y-111010313D01*
X162188577Y-111060613D01*
X162193501Y-111091699D01*
X162193500Y-111478510D01*
X162194465Y-111483359D01*
X162194465Y-111483362D01*
X162198767Y-111504989D01*
X162208796Y-111555407D01*
X162266593Y-111641906D01*
X162353092Y-111699703D01*
X162398830Y-111708801D01*
X162425137Y-111714034D01*
X162425138Y-111714034D01*
X162429989Y-111714999D01*
X162788500Y-111715000D01*
X163147010Y-111715000D01*
X163151861Y-111714035D01*
X163151862Y-111714035D01*
X163178174Y-111708801D01*
X163223907Y-111699704D01*
X163310406Y-111641907D01*
X163368203Y-111555408D01*
X163379852Y-111496847D01*
X163382534Y-111483363D01*
X163382534Y-111483362D01*
X163383499Y-111478511D01*
X163383500Y-110761490D01*
X163380297Y-110745385D01*
X163376849Y-110728053D01*
X163368204Y-110684593D01*
X163310407Y-110598094D01*
X163313355Y-110596124D01*
X163293076Y-110556324D01*
X163302802Y-110494916D01*
X163346766Y-110450952D01*
X163353939Y-110447645D01*
X163402040Y-110427721D01*
X163413372Y-110421178D01*
X163521476Y-110338227D01*
X163530724Y-110328979D01*
X163613680Y-110220871D01*
X163620219Y-110209543D01*
X163672367Y-110083647D01*
X163675752Y-110071017D01*
X163688970Y-109970616D01*
X163689399Y-109964066D01*
X163689399Y-109840133D01*
X163685211Y-109827243D01*
X163681022Y-109824200D01*
X163016702Y-109824199D01*
X163016696Y-109824200D01*
X161903533Y-109824199D01*
X161890643Y-109828387D01*
X161887600Y-109832576D01*
X161887600Y-109964065D01*
X161888029Y-109970615D01*
X161901247Y-110071016D01*
X161904632Y-110083646D01*
X161956779Y-110209539D01*
X161963322Y-110220872D01*
X162004287Y-110274259D01*
X162025042Y-110332867D01*
X162007383Y-110392480D01*
X161958057Y-110430330D01*
X161924476Y-110436100D01*
X161522714Y-110436100D01*
X161463583Y-110416887D01*
X161451579Y-110406635D01*
X160872965Y-109828021D01*
X160844739Y-109772623D01*
X160843500Y-109756886D01*
X160843500Y-109237490D01*
X160841600Y-109227934D01*
X161887601Y-109227934D01*
X161887601Y-109351867D01*
X161891789Y-109364757D01*
X161895978Y-109367800D01*
X162544367Y-109367801D01*
X162557257Y-109363613D01*
X162560300Y-109359424D01*
X162560300Y-109351867D01*
X163016699Y-109351867D01*
X163020887Y-109364757D01*
X163025076Y-109367800D01*
X163673467Y-109367801D01*
X163686357Y-109363613D01*
X163689400Y-109359424D01*
X163689400Y-109227935D01*
X163688971Y-109221385D01*
X163675753Y-109120984D01*
X163672368Y-109108354D01*
X163620220Y-108982458D01*
X163613681Y-108971130D01*
X163530725Y-108863022D01*
X163521477Y-108853774D01*
X163413373Y-108770823D01*
X163402040Y-108764280D01*
X163276147Y-108712133D01*
X163263517Y-108708748D01*
X163163116Y-108695530D01*
X163156566Y-108695101D01*
X163032633Y-108695101D01*
X163019743Y-108699289D01*
X163016700Y-108703478D01*
X163016699Y-109351867D01*
X162560300Y-109351867D01*
X162560301Y-108711033D01*
X162556113Y-108698143D01*
X162551924Y-108695100D01*
X162420435Y-108695100D01*
X162413885Y-108695529D01*
X162313484Y-108708747D01*
X162300854Y-108712132D01*
X162174961Y-108764279D01*
X162163628Y-108770822D01*
X162055524Y-108853773D01*
X162046276Y-108863021D01*
X161963320Y-108971129D01*
X161956781Y-108982457D01*
X161904633Y-109108353D01*
X161901248Y-109120983D01*
X161888030Y-109221384D01*
X161887601Y-109227934D01*
X160841600Y-109227934D01*
X160840297Y-109221385D01*
X160834793Y-109193717D01*
X160828204Y-109160593D01*
X160776627Y-109083403D01*
X160775911Y-109082331D01*
X160775910Y-109082330D01*
X160770407Y-109074094D01*
X160683908Y-109016296D01*
X160622229Y-109004027D01*
X160611863Y-109001965D01*
X160611862Y-109001965D01*
X160607011Y-109001000D01*
X160087614Y-109001000D01*
X160028483Y-108981787D01*
X160016479Y-108971535D01*
X157152928Y-106107984D01*
X157150137Y-106104750D01*
X157147896Y-106100166D01*
X157141088Y-106093851D01*
X157135548Y-106086391D01*
X157138471Y-106084220D01*
X157116512Y-106044834D01*
X157123937Y-105983104D01*
X157140632Y-105957885D01*
X157177083Y-105917615D01*
X157181892Y-105912302D01*
X157185015Y-105905856D01*
X157185017Y-105905853D01*
X157240383Y-105791577D01*
X157240384Y-105791574D01*
X157243506Y-105785130D01*
X157261739Y-105676757D01*
X157266307Y-105649607D01*
X157266307Y-105649602D01*
X157266951Y-105645777D01*
X157267100Y-105633600D01*
X157247067Y-105493716D01*
X157188578Y-105365077D01*
X157134694Y-105302541D01*
X157101016Y-105263455D01*
X157101014Y-105263454D01*
X157096336Y-105258024D01*
X157090320Y-105254125D01*
X157084921Y-105249415D01*
X157086172Y-105247981D01*
X157052913Y-105206984D01*
X157046200Y-105170850D01*
X157046200Y-104421810D01*
X157066722Y-104360917D01*
X157069312Y-104357511D01*
X157122677Y-104287333D01*
X157151452Y-104187967D01*
X157150453Y-104176424D01*
X157146546Y-104131319D01*
X157142526Y-104084905D01*
X157097096Y-103991966D01*
X157021255Y-103921614D01*
X156944421Y-103890960D01*
X156896619Y-103851203D01*
X156881100Y-103797522D01*
X156881100Y-103497090D01*
X156865804Y-103420193D01*
X156808007Y-103333694D01*
X156810955Y-103331724D01*
X156790676Y-103291924D01*
X156800402Y-103230516D01*
X156844366Y-103186552D01*
X156851539Y-103183245D01*
X156899640Y-103163321D01*
X156910972Y-103156778D01*
X157019076Y-103073827D01*
X157028324Y-103064579D01*
X157111280Y-102956471D01*
X157117819Y-102945143D01*
X157169967Y-102819247D01*
X157173352Y-102806617D01*
X157186570Y-102706216D01*
X157186999Y-102699666D01*
X157186999Y-102575733D01*
X157182811Y-102562843D01*
X157178622Y-102559800D01*
X156514302Y-102559799D01*
X156514296Y-102559800D01*
X155401133Y-102559799D01*
X155388243Y-102563987D01*
X155385200Y-102568176D01*
X155385200Y-102699665D01*
X155385629Y-102706215D01*
X155398847Y-102806616D01*
X155402232Y-102819246D01*
X155454379Y-102945139D01*
X155460922Y-102956472D01*
X155543872Y-103064575D01*
X155553124Y-103073827D01*
X155661227Y-103156777D01*
X155672557Y-103163319D01*
X155720662Y-103183245D01*
X155767939Y-103223624D01*
X155782453Y-103284081D01*
X155762399Y-103332494D01*
X155764194Y-103333693D01*
X155706397Y-103420192D01*
X155691101Y-103497089D01*
X155691101Y-103668000D01*
X155671888Y-103727131D01*
X155621588Y-103763676D01*
X155590501Y-103768600D01*
X154627117Y-103768600D01*
X154567986Y-103749387D01*
X154531441Y-103699087D01*
X154528450Y-103687628D01*
X154526696Y-103678810D01*
X154526696Y-103678809D01*
X154524763Y-103669093D01*
X154491055Y-103618645D01*
X154440607Y-103584937D01*
X154430891Y-103583004D01*
X154430890Y-103583004D01*
X154416601Y-103580162D01*
X154381100Y-103573100D01*
X153111100Y-103573100D01*
X153075599Y-103580162D01*
X153061310Y-103583004D01*
X153061309Y-103583004D01*
X153051593Y-103584937D01*
X153001145Y-103618645D01*
X152967437Y-103669093D01*
X152955600Y-103728600D01*
X152955600Y-104998600D01*
X152967437Y-105058107D01*
X153001145Y-105108555D01*
X153051593Y-105142263D01*
X153061309Y-105144196D01*
X153061310Y-105144196D01*
X153075599Y-105147038D01*
X153111100Y-105154100D01*
X154381100Y-105154100D01*
X154416601Y-105147038D01*
X154430890Y-105144196D01*
X154430891Y-105144196D01*
X154440607Y-105142263D01*
X154491055Y-105108555D01*
X154524763Y-105058107D01*
X154536600Y-104998600D01*
X154536600Y-104424200D01*
X154555813Y-104365069D01*
X154606113Y-104328524D01*
X154637200Y-104323600D01*
X155674402Y-104323600D01*
X155733533Y-104342813D01*
X155758049Y-104368311D01*
X155764193Y-104377506D01*
X155850692Y-104435303D01*
X155901110Y-104445332D01*
X155922737Y-104449634D01*
X155922738Y-104449634D01*
X155927589Y-104450599D01*
X155954006Y-104450599D01*
X156390601Y-104450600D01*
X156449732Y-104469813D01*
X156486277Y-104520113D01*
X156491201Y-104551199D01*
X156491200Y-104870401D01*
X156491200Y-105170156D01*
X156471987Y-105229287D01*
X156455801Y-105246766D01*
X156451734Y-105250227D01*
X156445677Y-105254049D01*
X156440937Y-105259416D01*
X156440936Y-105259417D01*
X156358290Y-105352997D01*
X156352134Y-105359967D01*
X156349089Y-105366452D01*
X156349088Y-105366454D01*
X156325100Y-105417548D01*
X156292078Y-105487882D01*
X156270337Y-105627511D01*
X156288660Y-105767630D01*
X156324897Y-105849985D01*
X156331127Y-105911845D01*
X156299805Y-105965553D01*
X156242896Y-105990594D01*
X156232817Y-105991100D01*
X153267715Y-105991100D01*
X153208584Y-105971887D01*
X153196580Y-105961635D01*
X151437928Y-104202984D01*
X151435137Y-104199750D01*
X151432896Y-104195166D01*
X151395783Y-104160739D01*
X151393065Y-104158121D01*
X151383339Y-104148395D01*
X151380348Y-104146343D01*
X151378780Y-104144967D01*
X151363865Y-104131131D01*
X151363864Y-104131130D01*
X151357055Y-104124814D01*
X151348119Y-104121249D01*
X151328484Y-104110765D01*
X151328210Y-104110577D01*
X151328209Y-104110576D01*
X151320552Y-104105324D01*
X151297259Y-104099797D01*
X151283214Y-104095355D01*
X151260971Y-104086480D01*
X151257095Y-104086100D01*
X151251319Y-104086100D01*
X151230426Y-104083655D01*
X151228934Y-104083582D01*
X151219899Y-104081438D01*
X151192395Y-104085181D01*
X151178831Y-104086100D01*
X149668954Y-104086100D01*
X149664695Y-104085787D01*
X149659868Y-104084130D01*
X149609300Y-104086029D01*
X149605525Y-104086100D01*
X149591754Y-104086100D01*
X149588185Y-104086764D01*
X149586090Y-104086900D01*
X149565776Y-104087663D01*
X149565774Y-104087663D01*
X149556494Y-104088012D01*
X149547960Y-104091678D01*
X149547957Y-104091679D01*
X149547649Y-104091811D01*
X149526366Y-104098278D01*
X149516901Y-104100041D01*
X149496514Y-104112608D01*
X149483448Y-104119395D01*
X149461446Y-104128847D01*
X149458437Y-104131319D01*
X149454355Y-104135401D01*
X149437845Y-104148452D01*
X149436744Y-104149450D01*
X149428839Y-104154323D01*
X149423220Y-104161712D01*
X149423218Y-104161714D01*
X149412033Y-104176424D01*
X149403090Y-104186666D01*
X148937382Y-104652374D01*
X148934149Y-104655164D01*
X148929567Y-104657404D01*
X148923253Y-104664211D01*
X148895154Y-104694502D01*
X148892535Y-104697221D01*
X148882795Y-104706961D01*
X148880740Y-104709957D01*
X148879360Y-104711528D01*
X148859215Y-104733245D01*
X148855774Y-104741869D01*
X148855773Y-104741871D01*
X148855647Y-104742187D01*
X148845170Y-104761809D01*
X148839724Y-104769748D01*
X148837580Y-104778782D01*
X148837578Y-104778787D01*
X148834193Y-104793050D01*
X148829752Y-104807094D01*
X148820881Y-104829329D01*
X148820501Y-104833205D01*
X148820501Y-104838980D01*
X148818056Y-104859875D01*
X148817983Y-104861361D01*
X148815838Y-104870401D01*
X148817091Y-104879606D01*
X148819582Y-104897911D01*
X148820501Y-104911477D01*
X148820501Y-105719823D01*
X148801288Y-105778954D01*
X148750988Y-105815499D01*
X148691909Y-105815499D01*
X148690043Y-105814252D01*
X148680327Y-105812319D01*
X148680326Y-105812319D01*
X148612689Y-105798865D01*
X148612688Y-105798865D01*
X148607837Y-105797900D01*
X148307564Y-105797900D01*
X148302713Y-105798865D01*
X148302712Y-105798865D01*
X148279224Y-105803537D01*
X148225358Y-105814252D01*
X148191202Y-105837075D01*
X148188593Y-105838818D01*
X148128753Y-105855695D01*
X148076811Y-105838819D01*
X148048284Y-105819758D01*
X148048282Y-105819757D01*
X148040043Y-105814252D01*
X147986177Y-105803537D01*
X147962689Y-105798865D01*
X147962688Y-105798865D01*
X147957837Y-105797900D01*
X147657564Y-105797900D01*
X147652713Y-105798865D01*
X147652712Y-105798865D01*
X147629224Y-105803537D01*
X147575358Y-105814252D01*
X147541202Y-105837075D01*
X147538593Y-105838818D01*
X147478753Y-105855695D01*
X147426811Y-105838819D01*
X147398284Y-105819758D01*
X147398282Y-105819757D01*
X147390043Y-105814252D01*
X147336177Y-105803537D01*
X147312689Y-105798865D01*
X147312688Y-105798865D01*
X147307837Y-105797900D01*
X147007564Y-105797900D01*
X147002713Y-105798865D01*
X147002712Y-105798865D01*
X146935075Y-105812319D01*
X146935074Y-105812319D01*
X146925358Y-105814252D01*
X146919726Y-105818015D01*
X146859715Y-105822738D01*
X146806703Y-105790252D01*
X146782910Y-105732811D01*
X146782600Y-105724918D01*
X146782600Y-105602885D01*
X146801813Y-105543754D01*
X146812065Y-105531750D01*
X146861676Y-105482140D01*
X146931128Y-105412688D01*
X146946372Y-105400178D01*
X146951203Y-105396950D01*
X146951207Y-105396946D01*
X146959443Y-105391443D01*
X146964946Y-105383207D01*
X146966388Y-105381765D01*
X147021786Y-105353539D01*
X147037523Y-105352300D01*
X147347123Y-105352300D01*
X147368289Y-105354552D01*
X147379203Y-105356902D01*
X147387457Y-105355925D01*
X147387458Y-105355925D01*
X147412194Y-105352997D01*
X147417856Y-105352663D01*
X147417854Y-105352642D01*
X147421990Y-105352300D01*
X147426140Y-105352300D01*
X147443658Y-105349384D01*
X147448307Y-105348723D01*
X147496173Y-105343057D01*
X147503274Y-105339647D01*
X147504515Y-105339255D01*
X147512289Y-105337961D01*
X147554705Y-105315075D01*
X147558930Y-105312922D01*
X147596649Y-105294810D01*
X147596652Y-105294808D01*
X147602354Y-105292070D01*
X147605379Y-105289527D01*
X147606907Y-105287999D01*
X147608515Y-105286524D01*
X147608630Y-105286649D01*
X147610591Y-105284920D01*
X147615950Y-105282029D01*
X147652190Y-105242824D01*
X147654903Y-105240003D01*
X147690006Y-105204900D01*
X147745401Y-105176676D01*
X147762980Y-105175454D01*
X147764167Y-105175476D01*
X147768036Y-105175547D01*
X147768038Y-105175547D01*
X147775203Y-105175678D01*
X147911539Y-105138509D01*
X147917645Y-105134760D01*
X147917647Y-105134759D01*
X148025858Y-105068317D01*
X148025859Y-105068317D01*
X148031962Y-105064569D01*
X148126792Y-104959802D01*
X148129915Y-104953356D01*
X148129917Y-104953353D01*
X148185283Y-104839077D01*
X148185284Y-104839074D01*
X148188406Y-104832630D01*
X148203622Y-104742187D01*
X148211207Y-104697107D01*
X148211207Y-104697102D01*
X148211851Y-104693277D01*
X148212000Y-104681100D01*
X148191967Y-104541216D01*
X148133478Y-104412577D01*
X148041236Y-104305524D01*
X147922655Y-104228664D01*
X147915790Y-104226611D01*
X147915788Y-104226610D01*
X147794134Y-104190227D01*
X147794131Y-104190227D01*
X147787268Y-104188174D01*
X147780103Y-104188130D01*
X147780101Y-104188130D01*
X147717446Y-104187748D01*
X147645959Y-104187311D01*
X147639070Y-104189280D01*
X147639069Y-104189280D01*
X147591120Y-104202984D01*
X147510088Y-104226143D01*
X147390577Y-104301549D01*
X147385832Y-104306922D01*
X147311430Y-104391167D01*
X147297034Y-104407467D01*
X147293989Y-104413952D01*
X147293988Y-104413954D01*
X147276783Y-104450600D01*
X147236978Y-104535382D01*
X147235876Y-104542461D01*
X147233179Y-104559779D01*
X147205097Y-104615250D01*
X147149772Y-104643620D01*
X147133777Y-104644900D01*
X146779639Y-104644900D01*
X146720508Y-104625687D01*
X146683963Y-104575387D01*
X146683963Y-104513213D01*
X146689765Y-104499100D01*
X146690356Y-104497925D01*
X146695977Y-104490533D01*
X146701978Y-104469812D01*
X146705217Y-104458625D01*
X146708409Y-104449328D01*
X146718090Y-104425064D01*
X146718091Y-104425061D01*
X146720720Y-104418471D01*
X146721100Y-104414595D01*
X146721100Y-104412190D01*
X146721452Y-104407395D01*
X146722169Y-104400088D01*
X146724752Y-104391167D01*
X146722856Y-104369269D01*
X146721475Y-104353330D01*
X146721100Y-104344650D01*
X146721100Y-102363589D01*
X146740313Y-102304458D01*
X146790613Y-102267913D01*
X146852787Y-102267913D01*
X146860098Y-102270830D01*
X146864033Y-102273449D01*
X146998915Y-102315589D01*
X147067746Y-102316850D01*
X147133036Y-102318047D01*
X147133038Y-102318047D01*
X147140203Y-102318178D01*
X147276539Y-102281009D01*
X147282645Y-102277260D01*
X147282647Y-102277259D01*
X147390858Y-102210817D01*
X147390859Y-102210817D01*
X147396962Y-102207069D01*
X147491792Y-102102302D01*
X147494915Y-102095856D01*
X147494917Y-102095853D01*
X147512202Y-102060176D01*
X152649700Y-102060176D01*
X152649700Y-102457641D01*
X152649736Y-102459549D01*
X152650814Y-102488384D01*
X152652036Y-102497662D01*
X152679918Y-102619821D01*
X152685364Y-102633696D01*
X152746594Y-102739750D01*
X152755888Y-102751404D01*
X152845660Y-102834702D01*
X152857974Y-102843097D01*
X152968309Y-102896230D01*
X152982555Y-102900625D01*
X153107368Y-102919438D01*
X153114871Y-102920000D01*
X153501967Y-102920000D01*
X153514857Y-102915812D01*
X153517900Y-102911623D01*
X153517900Y-102904067D01*
X153974299Y-102904067D01*
X153978487Y-102916957D01*
X153982676Y-102920000D01*
X154380141Y-102920000D01*
X154382049Y-102919964D01*
X154410884Y-102918886D01*
X154420162Y-102917664D01*
X154542321Y-102889782D01*
X154556196Y-102884336D01*
X154662250Y-102823106D01*
X154673904Y-102813812D01*
X154757202Y-102724040D01*
X154765597Y-102711726D01*
X154818730Y-102601391D01*
X154823125Y-102587145D01*
X154841938Y-102462332D01*
X154842500Y-102454829D01*
X154842500Y-102067733D01*
X154838312Y-102054843D01*
X154834123Y-102051800D01*
X153990233Y-102051799D01*
X153977343Y-102055987D01*
X153974300Y-102060176D01*
X153974299Y-102904067D01*
X153517900Y-102904067D01*
X153517901Y-102067733D01*
X153513713Y-102054843D01*
X153509524Y-102051800D01*
X152665633Y-102051799D01*
X152652743Y-102055987D01*
X152649700Y-102060176D01*
X147512202Y-102060176D01*
X147550283Y-101981577D01*
X147550284Y-101981574D01*
X147553406Y-101975130D01*
X147555356Y-101963534D01*
X155385201Y-101963534D01*
X155385201Y-102087467D01*
X155389389Y-102100357D01*
X155393578Y-102103400D01*
X156041967Y-102103401D01*
X156054857Y-102099213D01*
X156057900Y-102095024D01*
X156057900Y-102087467D01*
X156514299Y-102087467D01*
X156518487Y-102100357D01*
X156522676Y-102103400D01*
X157171067Y-102103401D01*
X157183957Y-102099213D01*
X157187000Y-102095024D01*
X157187000Y-101963535D01*
X157186571Y-101956985D01*
X157173353Y-101856584D01*
X157169968Y-101843954D01*
X157117820Y-101718058D01*
X157111281Y-101706730D01*
X157028325Y-101598622D01*
X157019077Y-101589374D01*
X156910973Y-101506423D01*
X156899640Y-101499880D01*
X156773747Y-101447733D01*
X156761117Y-101444348D01*
X156660716Y-101431130D01*
X156654166Y-101430701D01*
X156530233Y-101430701D01*
X156517343Y-101434889D01*
X156514300Y-101439078D01*
X156514299Y-102087467D01*
X156057900Y-102087467D01*
X156057901Y-101446633D01*
X156053713Y-101433743D01*
X156049524Y-101430700D01*
X155918035Y-101430700D01*
X155911485Y-101431129D01*
X155811084Y-101444347D01*
X155798454Y-101447732D01*
X155672561Y-101499879D01*
X155661228Y-101506422D01*
X155553124Y-101589373D01*
X155543876Y-101598621D01*
X155460920Y-101706729D01*
X155454381Y-101718057D01*
X155402233Y-101843953D01*
X155398848Y-101856583D01*
X155385630Y-101956984D01*
X155385201Y-101963534D01*
X147555356Y-101963534D01*
X147564181Y-101911085D01*
X147576207Y-101839607D01*
X147576207Y-101839602D01*
X147576851Y-101835777D01*
X147577000Y-101823600D01*
X147556967Y-101683716D01*
X147498478Y-101555077D01*
X147406236Y-101448024D01*
X147400220Y-101444125D01*
X147394821Y-101439415D01*
X147396072Y-101437981D01*
X147362813Y-101396984D01*
X147356100Y-101360850D01*
X147356100Y-101192372D01*
X152649700Y-101192372D01*
X152649700Y-101579467D01*
X152653888Y-101592357D01*
X152658077Y-101595400D01*
X153501967Y-101595401D01*
X153514857Y-101591213D01*
X153517900Y-101587024D01*
X153517900Y-101579467D01*
X153974299Y-101579467D01*
X153978487Y-101592357D01*
X153982676Y-101595400D01*
X154826567Y-101595401D01*
X154839457Y-101591213D01*
X154842500Y-101587024D01*
X154842500Y-101189559D01*
X154842464Y-101187651D01*
X154841386Y-101158816D01*
X154840164Y-101149538D01*
X154812282Y-101027379D01*
X154806836Y-101013504D01*
X154745606Y-100907450D01*
X154736312Y-100895796D01*
X154646540Y-100812498D01*
X154634226Y-100804103D01*
X154523891Y-100750970D01*
X154509645Y-100746575D01*
X154384832Y-100727762D01*
X154377328Y-100727200D01*
X153990233Y-100727200D01*
X153977343Y-100731388D01*
X153974300Y-100735577D01*
X153974299Y-101579467D01*
X153517900Y-101579467D01*
X153517901Y-100743133D01*
X153513713Y-100730243D01*
X153509524Y-100727200D01*
X153112059Y-100727200D01*
X153110151Y-100727236D01*
X153081316Y-100728314D01*
X153072038Y-100729536D01*
X152949879Y-100757418D01*
X152936004Y-100762864D01*
X152829950Y-100824094D01*
X152818296Y-100833388D01*
X152734998Y-100923160D01*
X152726603Y-100935474D01*
X152673470Y-101045809D01*
X152669075Y-101060055D01*
X152650262Y-101184868D01*
X152649700Y-101192372D01*
X147356100Y-101192372D01*
X147356100Y-101059000D01*
X147375313Y-100999869D01*
X147400809Y-100975355D01*
X147426809Y-100957982D01*
X147486649Y-100941105D01*
X147538592Y-100957982D01*
X147564299Y-100975159D01*
X147575357Y-100982548D01*
X147629223Y-100993263D01*
X147652711Y-100997935D01*
X147652712Y-100997935D01*
X147657563Y-100998900D01*
X147957836Y-100998900D01*
X147962687Y-100997935D01*
X147962688Y-100997935D01*
X147986176Y-100993263D01*
X148040042Y-100982548D01*
X148048281Y-100977043D01*
X148048283Y-100977042D01*
X148076810Y-100957981D01*
X148136649Y-100941105D01*
X148188592Y-100957982D01*
X148214299Y-100975159D01*
X148225357Y-100982548D01*
X148279223Y-100993263D01*
X148302711Y-100997935D01*
X148302712Y-100997935D01*
X148307563Y-100998900D01*
X148607836Y-100998900D01*
X148612687Y-100997935D01*
X148612688Y-100997935D01*
X148636176Y-100993263D01*
X148690042Y-100982548D01*
X148698281Y-100977043D01*
X148698283Y-100977042D01*
X148726810Y-100957981D01*
X148786649Y-100941105D01*
X148838592Y-100957982D01*
X148864299Y-100975159D01*
X148875357Y-100982548D01*
X148929223Y-100993263D01*
X148952711Y-100997935D01*
X148952712Y-100997935D01*
X148957563Y-100998900D01*
X149257836Y-100998900D01*
X149262687Y-100997935D01*
X149262688Y-100997935D01*
X149286176Y-100993263D01*
X149340042Y-100982548D01*
X149348281Y-100977043D01*
X149348283Y-100977042D01*
X149376810Y-100957981D01*
X149436649Y-100941105D01*
X149488592Y-100957982D01*
X149514299Y-100975159D01*
X149525357Y-100982548D01*
X149579223Y-100993263D01*
X149602711Y-100997935D01*
X149602712Y-100997935D01*
X149607563Y-100998900D01*
X149907836Y-100998900D01*
X149912687Y-100997935D01*
X149912688Y-100997935D01*
X149936176Y-100993263D01*
X149990042Y-100982548D01*
X149998281Y-100977043D01*
X149998283Y-100977042D01*
X150026810Y-100957981D01*
X150086649Y-100941105D01*
X150138592Y-100957982D01*
X150164299Y-100975159D01*
X150175357Y-100982548D01*
X150229223Y-100993263D01*
X150252711Y-100997935D01*
X150252712Y-100997935D01*
X150257563Y-100998900D01*
X150557836Y-100998900D01*
X150562687Y-100997935D01*
X150562688Y-100997935D01*
X150586176Y-100993263D01*
X150640042Y-100982548D01*
X150648281Y-100977043D01*
X150648283Y-100977042D01*
X150676810Y-100957981D01*
X150736649Y-100941105D01*
X150788592Y-100957982D01*
X150814299Y-100975159D01*
X150825357Y-100982548D01*
X150879223Y-100993263D01*
X150902711Y-100997935D01*
X150902712Y-100997935D01*
X150907563Y-100998900D01*
X151207836Y-100998900D01*
X151212687Y-100997935D01*
X151212688Y-100997935D01*
X151236176Y-100993263D01*
X151290042Y-100982548D01*
X151381042Y-100921743D01*
X151441847Y-100830743D01*
X151455349Y-100762864D01*
X151457234Y-100753389D01*
X151457234Y-100753388D01*
X151458199Y-100748537D01*
X151458199Y-100322100D01*
X151477412Y-100262969D01*
X151527712Y-100226424D01*
X151558799Y-100221500D01*
X151611589Y-100221500D01*
X151670720Y-100240713D01*
X151688597Y-100257368D01*
X151737500Y-100315545D01*
X151743464Y-100319515D01*
X151849167Y-100389878D01*
X151849169Y-100389879D01*
X151855133Y-100393849D01*
X151990015Y-100435989D01*
X152058846Y-100437250D01*
X152124136Y-100438447D01*
X152124138Y-100438447D01*
X152131303Y-100438578D01*
X152267639Y-100401409D01*
X152273745Y-100397660D01*
X152273747Y-100397659D01*
X152381958Y-100331217D01*
X152381959Y-100331217D01*
X152388062Y-100327469D01*
X152482892Y-100222702D01*
X152486015Y-100216256D01*
X152486017Y-100216253D01*
X152541383Y-100101977D01*
X152541384Y-100101974D01*
X152544506Y-100095530D01*
X152567951Y-99956177D01*
X152568100Y-99944000D01*
X152548067Y-99804116D01*
X152489578Y-99675477D01*
X152397336Y-99568424D01*
X152278755Y-99491564D01*
X152279521Y-99490382D01*
X152239625Y-99453440D01*
X152227547Y-99392450D01*
X152253625Y-99336009D01*
X152274798Y-99318632D01*
X152280354Y-99315220D01*
X152280357Y-99315217D01*
X152286462Y-99311469D01*
X152351068Y-99240093D01*
X152404993Y-99209147D01*
X152466810Y-99215808D01*
X152502659Y-99242871D01*
X152545686Y-99294058D01*
X152545693Y-99294064D01*
X152550300Y-99299545D01*
X152556264Y-99303515D01*
X152661967Y-99373878D01*
X152661969Y-99373879D01*
X152667933Y-99377849D01*
X152802815Y-99419989D01*
X152871646Y-99421250D01*
X152936936Y-99422447D01*
X152936938Y-99422447D01*
X152944103Y-99422578D01*
X153080439Y-99385409D01*
X153086545Y-99381660D01*
X153086547Y-99381659D01*
X153194758Y-99315217D01*
X153194759Y-99315217D01*
X153200862Y-99311469D01*
X153295692Y-99206702D01*
X153298815Y-99200256D01*
X153298817Y-99200253D01*
X153354183Y-99085977D01*
X153354184Y-99085974D01*
X153357306Y-99079530D01*
X153380751Y-98940177D01*
X153380900Y-98928000D01*
X153360867Y-98788116D01*
X153302378Y-98659477D01*
X153210136Y-98552424D01*
X153091555Y-98475564D01*
X153084690Y-98473511D01*
X153084688Y-98473510D01*
X152963034Y-98437127D01*
X152963031Y-98437127D01*
X152956168Y-98435074D01*
X152949003Y-98435030D01*
X152949001Y-98435030D01*
X152822258Y-98434256D01*
X152763246Y-98414682D01*
X152751738Y-98404793D01*
X152199928Y-97852984D01*
X152197137Y-97849750D01*
X152194896Y-97845166D01*
X152157783Y-97810739D01*
X152155065Y-97808121D01*
X152145339Y-97798395D01*
X152142348Y-97796343D01*
X152140780Y-97794967D01*
X152125865Y-97781131D01*
X152125864Y-97781130D01*
X152119055Y-97774814D01*
X152110119Y-97771249D01*
X152090484Y-97760765D01*
X152090210Y-97760577D01*
X152090209Y-97760576D01*
X152082552Y-97755324D01*
X152059259Y-97749797D01*
X152045214Y-97745355D01*
X152022971Y-97736480D01*
X152019095Y-97736100D01*
X152013319Y-97736100D01*
X151992426Y-97733655D01*
X151990934Y-97733582D01*
X151981899Y-97731438D01*
X151954395Y-97735181D01*
X151940831Y-97736100D01*
X150544114Y-97736100D01*
X150484983Y-97716887D01*
X150448438Y-97666587D01*
X150448438Y-97604413D01*
X150472979Y-97564365D01*
X150834379Y-97202965D01*
X150889777Y-97174739D01*
X150905514Y-97173500D01*
X153879241Y-97173500D01*
X153938372Y-97192713D01*
X153971321Y-97233583D01*
X153983373Y-97260974D01*
X153987980Y-97266454D01*
X153987982Y-97266458D01*
X154028836Y-97315059D01*
X154074300Y-97369145D01*
X154080264Y-97373115D01*
X154185967Y-97443478D01*
X154185969Y-97443479D01*
X154191933Y-97447449D01*
X154326815Y-97489589D01*
X154395646Y-97490850D01*
X154460936Y-97492047D01*
X154460938Y-97492047D01*
X154468103Y-97492178D01*
X154604439Y-97455009D01*
X154610545Y-97451260D01*
X154610547Y-97451259D01*
X154718758Y-97384817D01*
X154718759Y-97384817D01*
X154724862Y-97381069D01*
X154819692Y-97276302D01*
X154822815Y-97269856D01*
X154822817Y-97269853D01*
X154878183Y-97155577D01*
X154878184Y-97155574D01*
X154881306Y-97149130D01*
X154895070Y-97067320D01*
X154904107Y-97013607D01*
X154904107Y-97013602D01*
X154904751Y-97009777D01*
X154904900Y-96997600D01*
X154884867Y-96857716D01*
X154827917Y-96732461D01*
X154820933Y-96670682D01*
X154851596Y-96616596D01*
X154899869Y-96592158D01*
X154938889Y-96584396D01*
X154948607Y-96582463D01*
X154999055Y-96548755D01*
X155032763Y-96498307D01*
X155037960Y-96472176D01*
X155385200Y-96472176D01*
X155385200Y-96603665D01*
X155385629Y-96610215D01*
X155398847Y-96710616D01*
X155402232Y-96723246D01*
X155454379Y-96849139D01*
X155460922Y-96860472D01*
X155543872Y-96968575D01*
X155553124Y-96977827D01*
X155661227Y-97060777D01*
X155672560Y-97067320D01*
X155798453Y-97119467D01*
X155811083Y-97122852D01*
X155911484Y-97136070D01*
X155918034Y-97136499D01*
X156041967Y-97136499D01*
X156054857Y-97132311D01*
X156057900Y-97128122D01*
X156057900Y-97120567D01*
X156514299Y-97120567D01*
X156518487Y-97133457D01*
X156522676Y-97136500D01*
X156654165Y-97136500D01*
X156660715Y-97136071D01*
X156761116Y-97122853D01*
X156773746Y-97119468D01*
X156899639Y-97067321D01*
X156910972Y-97060778D01*
X157019076Y-96977827D01*
X157028324Y-96968579D01*
X157111280Y-96860471D01*
X157117819Y-96849143D01*
X157169967Y-96723247D01*
X157173352Y-96710617D01*
X157186570Y-96610216D01*
X157186999Y-96603666D01*
X157186999Y-96479733D01*
X157182811Y-96466843D01*
X157178622Y-96463800D01*
X156530233Y-96463799D01*
X156517343Y-96467987D01*
X156514300Y-96472176D01*
X156514299Y-97120567D01*
X156057900Y-97120567D01*
X156057901Y-96479733D01*
X156053713Y-96466843D01*
X156049524Y-96463800D01*
X155401133Y-96463799D01*
X155388243Y-96467987D01*
X155385200Y-96472176D01*
X155037960Y-96472176D01*
X155044600Y-96438800D01*
X155044600Y-95216700D01*
X155063813Y-95157569D01*
X155114113Y-95121024D01*
X155145200Y-95116100D01*
X155631972Y-95116100D01*
X155691103Y-95135313D01*
X155715618Y-95160809D01*
X155764193Y-95233506D01*
X155761245Y-95235476D01*
X155781524Y-95275276D01*
X155771798Y-95336684D01*
X155727834Y-95380648D01*
X155720661Y-95383955D01*
X155672560Y-95403879D01*
X155661228Y-95410422D01*
X155553124Y-95493373D01*
X155543876Y-95502621D01*
X155460920Y-95610729D01*
X155454381Y-95622057D01*
X155402233Y-95747953D01*
X155398848Y-95760583D01*
X155385630Y-95860984D01*
X155385201Y-95867534D01*
X155385201Y-95991467D01*
X155389389Y-96004357D01*
X155393578Y-96007400D01*
X156057898Y-96007401D01*
X156057904Y-96007400D01*
X157171067Y-96007401D01*
X157183957Y-96003213D01*
X157187000Y-95999024D01*
X157187000Y-95867535D01*
X157186571Y-95860985D01*
X157173353Y-95760584D01*
X157169968Y-95747954D01*
X157117820Y-95622058D01*
X157111281Y-95610730D01*
X157028325Y-95502622D01*
X157019077Y-95493374D01*
X156910973Y-95410423D01*
X156899643Y-95403881D01*
X156851538Y-95383955D01*
X156804261Y-95343576D01*
X156789747Y-95283119D01*
X156809801Y-95234706D01*
X156808006Y-95233507D01*
X156820428Y-95214916D01*
X156865803Y-95147008D01*
X156876049Y-95095500D01*
X156880134Y-95074963D01*
X156880134Y-95074962D01*
X156881099Y-95070111D01*
X156881100Y-94353090D01*
X156877897Y-94336985D01*
X156867737Y-94285912D01*
X156867737Y-94285911D01*
X156865804Y-94276193D01*
X156808007Y-94189694D01*
X156721508Y-94131897D01*
X156671090Y-94121868D01*
X156649463Y-94117566D01*
X156649462Y-94117566D01*
X156644611Y-94116601D01*
X156286101Y-94116601D01*
X155932537Y-94116600D01*
X155927590Y-94116600D01*
X155922739Y-94117565D01*
X155922738Y-94117565D01*
X155901111Y-94121867D01*
X155850693Y-94131896D01*
X155764194Y-94189693D01*
X155706397Y-94276192D01*
X155700726Y-94304700D01*
X155694305Y-94336984D01*
X155691101Y-94353089D01*
X155691101Y-94460500D01*
X155671888Y-94519631D01*
X155621588Y-94556176D01*
X155590501Y-94561100D01*
X155137643Y-94561100D01*
X155078512Y-94541887D01*
X155041967Y-94491587D01*
X155038976Y-94480127D01*
X155034696Y-94458610D01*
X155034696Y-94458609D01*
X155032763Y-94448893D01*
X154999055Y-94398445D01*
X154948607Y-94364737D01*
X154938891Y-94362804D01*
X154938890Y-94362804D01*
X154924601Y-94359962D01*
X154889100Y-94352900D01*
X149555100Y-94352900D01*
X149519599Y-94359962D01*
X149505310Y-94362804D01*
X149505309Y-94362804D01*
X149495593Y-94364737D01*
X149445145Y-94398445D01*
X149411437Y-94448893D01*
X149399600Y-94508400D01*
X149399600Y-95095500D01*
X149380387Y-95154631D01*
X149330087Y-95191176D01*
X149299000Y-95196100D01*
X148400906Y-95196100D01*
X148391089Y-95195620D01*
X148385087Y-95195031D01*
X148376166Y-95192448D01*
X148366915Y-95193249D01*
X148366913Y-95193249D01*
X148338329Y-95195725D01*
X148329649Y-95196100D01*
X148321754Y-95196100D01*
X148317202Y-95196948D01*
X148317198Y-95196948D01*
X148315942Y-95197182D01*
X148306213Y-95198506D01*
X148282359Y-95200572D01*
X148282357Y-95200573D01*
X148273105Y-95201374D01*
X148264760Y-95205453D01*
X148260335Y-95206680D01*
X148256034Y-95208340D01*
X148246901Y-95210041D01*
X148238993Y-95214916D01*
X148238992Y-95214916D01*
X148218629Y-95227468D01*
X148210022Y-95232210D01*
X148180166Y-95246804D01*
X148173846Y-95253617D01*
X148170158Y-95256356D01*
X148166748Y-95259448D01*
X148158839Y-95264323D01*
X148153217Y-95271716D01*
X148153214Y-95271719D01*
X148138727Y-95290770D01*
X148132405Y-95298292D01*
X148116130Y-95315837D01*
X148109814Y-95322646D01*
X148106372Y-95331274D01*
X148103909Y-95335170D01*
X148101844Y-95339275D01*
X148096223Y-95346667D01*
X148093641Y-95355585D01*
X148093640Y-95355586D01*
X148086982Y-95378579D01*
X148083790Y-95387874D01*
X148074111Y-95412134D01*
X148074110Y-95412138D01*
X148071480Y-95418730D01*
X148071100Y-95422606D01*
X148071100Y-95425010D01*
X148070748Y-95429804D01*
X148070031Y-95437113D01*
X148067448Y-95446033D01*
X148068249Y-95455284D01*
X148068249Y-95455286D01*
X148070725Y-95483870D01*
X148071100Y-95492550D01*
X148071100Y-95511171D01*
X148051887Y-95570302D01*
X148001587Y-95606847D01*
X147939413Y-95606847D01*
X147909609Y-95591250D01*
X147896437Y-95581233D01*
X147888917Y-95574913D01*
X147871364Y-95558630D01*
X147871363Y-95558630D01*
X147864555Y-95552314D01*
X147855930Y-95548873D01*
X147852036Y-95546411D01*
X147847921Y-95544342D01*
X147840532Y-95538723D01*
X147808624Y-95529483D01*
X147799332Y-95526292D01*
X147775067Y-95516611D01*
X147775063Y-95516610D01*
X147768471Y-95513980D01*
X147764595Y-95513600D01*
X147762189Y-95513600D01*
X147757392Y-95513248D01*
X147750088Y-95512532D01*
X147741166Y-95509948D01*
X147731915Y-95510749D01*
X147731912Y-95510749D01*
X147703329Y-95513225D01*
X147694649Y-95513600D01*
X145493200Y-95513600D01*
X145434069Y-95494387D01*
X145397524Y-95444087D01*
X145392600Y-95413000D01*
X145392600Y-94508400D01*
X145380763Y-94448893D01*
X145347055Y-94398445D01*
X145296607Y-94364737D01*
X145286891Y-94362804D01*
X145286890Y-94362804D01*
X145272601Y-94359962D01*
X145237100Y-94352900D01*
X139903100Y-94352900D01*
X139867599Y-94359962D01*
X139853310Y-94362804D01*
X139853309Y-94362804D01*
X139843593Y-94364737D01*
X139793145Y-94398445D01*
X139759437Y-94448893D01*
X139747600Y-94508400D01*
X139747600Y-95730500D01*
X139728387Y-95789631D01*
X139678087Y-95826176D01*
X139647000Y-95831100D01*
X139160228Y-95831100D01*
X139101097Y-95811887D01*
X139076582Y-95786391D01*
X139028007Y-95713694D01*
X139030955Y-95711724D01*
X139010676Y-95671924D01*
X139020402Y-95610516D01*
X139064366Y-95566552D01*
X139071540Y-95563244D01*
X139119645Y-95543319D01*
X139130973Y-95536778D01*
X139239077Y-95453827D01*
X139248325Y-95444579D01*
X139331281Y-95336471D01*
X139337820Y-95325143D01*
X139389968Y-95199247D01*
X139393353Y-95186617D01*
X139406571Y-95086216D01*
X139407000Y-95079666D01*
X139407000Y-94955733D01*
X139402812Y-94942843D01*
X139398623Y-94939800D01*
X138277900Y-94939800D01*
X137621133Y-94939799D01*
X137608243Y-94943987D01*
X137605200Y-94948176D01*
X137605200Y-95079665D01*
X137605629Y-95086215D01*
X137618847Y-95186616D01*
X137622232Y-95199246D01*
X137674380Y-95325144D01*
X137680919Y-95336471D01*
X137763875Y-95444579D01*
X137773123Y-95453827D01*
X137881227Y-95536778D01*
X137892557Y-95543320D01*
X137940662Y-95563246D01*
X137987939Y-95603625D01*
X138002453Y-95664082D01*
X137982399Y-95712494D01*
X137984194Y-95713693D01*
X137926396Y-95800192D01*
X137920248Y-95831100D01*
X137914304Y-95860984D01*
X137911100Y-95877089D01*
X137911100Y-96594110D01*
X137912065Y-96598961D01*
X137912065Y-96598962D01*
X137914304Y-96610216D01*
X137926396Y-96671007D01*
X137961301Y-96723246D01*
X137978689Y-96749268D01*
X137984193Y-96757506D01*
X138070692Y-96815304D01*
X138121110Y-96825333D01*
X138142737Y-96829635D01*
X138142738Y-96829635D01*
X138147589Y-96830600D01*
X138864610Y-96830600D01*
X138869461Y-96829635D01*
X138869462Y-96829635D01*
X138891089Y-96825333D01*
X138941507Y-96815304D01*
X139028006Y-96757507D01*
X139085804Y-96671008D01*
X139097241Y-96613513D01*
X139100135Y-96598963D01*
X139100135Y-96598962D01*
X139101100Y-96594111D01*
X139101100Y-96486700D01*
X139120313Y-96427569D01*
X139170613Y-96391024D01*
X139201700Y-96386100D01*
X139654557Y-96386100D01*
X139713688Y-96405313D01*
X139750233Y-96455613D01*
X139753224Y-96467073D01*
X139759437Y-96498307D01*
X139793145Y-96548755D01*
X139843593Y-96582463D01*
X139853309Y-96584396D01*
X139853310Y-96584396D01*
X139867599Y-96587238D01*
X139903100Y-96594300D01*
X145237100Y-96594300D01*
X145272601Y-96587238D01*
X145286890Y-96584396D01*
X145286891Y-96584396D01*
X145296607Y-96582463D01*
X145347055Y-96548755D01*
X145380763Y-96498307D01*
X145392600Y-96438800D01*
X145392600Y-96169200D01*
X145411813Y-96110069D01*
X145462113Y-96073524D01*
X145493200Y-96068600D01*
X147335500Y-96068600D01*
X147394631Y-96087813D01*
X147431176Y-96138113D01*
X147436100Y-96169200D01*
X147436101Y-97455009D01*
X147436101Y-98700832D01*
X147416888Y-98759963D01*
X147366588Y-98796508D01*
X147315875Y-98799499D01*
X147307837Y-98797900D01*
X147007564Y-98797900D01*
X147002713Y-98798865D01*
X147002712Y-98798865D01*
X146999525Y-98799499D01*
X146925358Y-98814252D01*
X146917119Y-98819757D01*
X146917117Y-98819758D01*
X146888590Y-98838819D01*
X146828751Y-98855695D01*
X146776808Y-98838818D01*
X146748282Y-98819757D01*
X146748280Y-98819756D01*
X146740043Y-98814252D01*
X146665876Y-98799499D01*
X146662689Y-98798865D01*
X146662688Y-98798865D01*
X146657837Y-98797900D01*
X146357564Y-98797900D01*
X146352713Y-98798865D01*
X146352712Y-98798865D01*
X146349525Y-98799499D01*
X146275358Y-98814252D01*
X146267119Y-98819757D01*
X146267117Y-98819758D01*
X146238590Y-98838819D01*
X146178751Y-98855695D01*
X146126808Y-98838818D01*
X146098282Y-98819757D01*
X146098280Y-98819756D01*
X146090043Y-98814252D01*
X146015876Y-98799499D01*
X146012689Y-98798865D01*
X146012688Y-98798865D01*
X146007837Y-98797900D01*
X145707564Y-98797900D01*
X145702713Y-98798865D01*
X145702712Y-98798865D01*
X145699525Y-98799499D01*
X145625358Y-98814252D01*
X145617119Y-98819757D01*
X145617117Y-98819758D01*
X145588590Y-98838819D01*
X145528751Y-98855695D01*
X145476808Y-98838818D01*
X145448282Y-98819757D01*
X145448280Y-98819756D01*
X145440043Y-98814252D01*
X145365876Y-98799499D01*
X145362689Y-98798865D01*
X145362688Y-98798865D01*
X145357837Y-98797900D01*
X145057564Y-98797900D01*
X145052713Y-98798865D01*
X145052712Y-98798865D01*
X145049525Y-98799499D01*
X144975358Y-98814252D01*
X144884358Y-98875057D01*
X144823553Y-98966057D01*
X144807201Y-99048263D01*
X144807200Y-100748537D01*
X144808165Y-100753388D01*
X144808165Y-100753389D01*
X144810050Y-100762864D01*
X144823552Y-100830743D01*
X144829057Y-100838981D01*
X144879147Y-100913946D01*
X144896101Y-100969837D01*
X144896100Y-102947656D01*
X144876887Y-103006787D01*
X144860701Y-103024266D01*
X144856634Y-103027727D01*
X144850577Y-103031549D01*
X144845837Y-103036916D01*
X144845836Y-103036917D01*
X144813239Y-103073827D01*
X144757034Y-103137467D01*
X144753989Y-103143952D01*
X144753988Y-103143954D01*
X144735541Y-103183245D01*
X144696978Y-103265382D01*
X144675237Y-103405011D01*
X144693560Y-103545130D01*
X144750473Y-103674474D01*
X144755082Y-103679957D01*
X144755085Y-103679962D01*
X144790353Y-103721918D01*
X144813695Y-103779545D01*
X144798706Y-103839885D01*
X144751113Y-103879892D01*
X144740991Y-103883377D01*
X144684285Y-103899584D01*
X144652588Y-103908643D01*
X144533077Y-103984049D01*
X144528332Y-103989422D01*
X144444381Y-104084479D01*
X144439534Y-104089967D01*
X144436489Y-104096452D01*
X144436488Y-104096454D01*
X144420119Y-104131319D01*
X144379478Y-104217882D01*
X144378375Y-104224967D01*
X144359740Y-104344650D01*
X144357737Y-104357511D01*
X144376060Y-104497630D01*
X144432973Y-104626974D01*
X144523900Y-104735145D01*
X144529864Y-104739115D01*
X144635567Y-104809478D01*
X144635569Y-104809479D01*
X144641533Y-104813449D01*
X144648373Y-104815586D01*
X144671259Y-104822736D01*
X144776415Y-104855589D01*
X144845246Y-104856850D01*
X144910536Y-104858047D01*
X144910538Y-104858047D01*
X144917703Y-104858178D01*
X145054039Y-104821009D01*
X145060145Y-104817260D01*
X145060147Y-104817259D01*
X145168358Y-104750817D01*
X145168359Y-104750817D01*
X145174462Y-104747069D01*
X145203614Y-104714862D01*
X145240429Y-104674190D01*
X145294355Y-104643244D01*
X145315013Y-104641100D01*
X145380877Y-104641100D01*
X145440008Y-104660313D01*
X145476553Y-104710613D01*
X145476553Y-104772787D01*
X145460340Y-104799244D01*
X145461856Y-104800257D01*
X145453122Y-104813328D01*
X145440612Y-104828572D01*
X145041674Y-105227511D01*
X145026429Y-105240022D01*
X145021596Y-105243251D01*
X145021593Y-105243254D01*
X145013357Y-105248757D01*
X144952552Y-105339758D01*
X144950619Y-105349474D01*
X144950619Y-105349475D01*
X144942561Y-105389987D01*
X144936200Y-105421964D01*
X144936200Y-105421968D01*
X144931201Y-105447100D01*
X144933134Y-105456818D01*
X144933134Y-105456819D01*
X144934267Y-105462515D01*
X144936200Y-105482140D01*
X144936200Y-105605622D01*
X144916987Y-105664753D01*
X144866687Y-105701298D01*
X144804513Y-105701298D01*
X144764465Y-105676757D01*
X143235838Y-104148131D01*
X143222460Y-104131566D01*
X143220917Y-104129176D01*
X143220916Y-104129175D01*
X143216406Y-104122190D01*
X143190319Y-104101625D01*
X143186076Y-104097855D01*
X143186062Y-104097872D01*
X143182898Y-104095191D01*
X143179962Y-104092255D01*
X143176586Y-104089842D01*
X143176582Y-104089839D01*
X143165545Y-104081952D01*
X143161753Y-104079105D01*
X143144918Y-104065833D01*
X143110377Y-104014137D01*
X143106600Y-103986831D01*
X143106600Y-103728600D01*
X143094763Y-103669093D01*
X143061055Y-103618645D01*
X143010607Y-103584937D01*
X143000891Y-103583004D01*
X143000890Y-103583004D01*
X142986601Y-103580162D01*
X142951100Y-103573100D01*
X141681100Y-103573100D01*
X141645599Y-103580162D01*
X141631310Y-103583004D01*
X141631309Y-103583004D01*
X141621593Y-103584937D01*
X141571145Y-103618645D01*
X141537437Y-103669093D01*
X141525600Y-103728600D01*
X141525600Y-103909300D01*
X141506387Y-103968431D01*
X141456087Y-104004976D01*
X141425000Y-104009900D01*
X140667200Y-104009900D01*
X140608069Y-103990687D01*
X140571524Y-103940387D01*
X140566600Y-103909300D01*
X140566600Y-103728600D01*
X140554763Y-103669093D01*
X140521055Y-103618645D01*
X140470607Y-103584937D01*
X140460891Y-103583004D01*
X140460890Y-103583004D01*
X140446601Y-103580162D01*
X140411100Y-103573100D01*
X139141100Y-103573100D01*
X139105599Y-103580162D01*
X139091310Y-103583004D01*
X139091309Y-103583004D01*
X139081593Y-103584937D01*
X139031145Y-103618645D01*
X138997437Y-103669093D01*
X138985600Y-103728600D01*
X138985600Y-103909300D01*
X138966387Y-103968431D01*
X138916087Y-104004976D01*
X138885000Y-104009900D01*
X137931699Y-104009900D01*
X137872568Y-103990687D01*
X137836023Y-103940387D01*
X137831099Y-103909300D01*
X137831100Y-103749387D01*
X137831100Y-103497090D01*
X137815804Y-103420193D01*
X137758007Y-103333694D01*
X137760955Y-103331724D01*
X137740676Y-103291924D01*
X137750402Y-103230516D01*
X137794366Y-103186552D01*
X137801539Y-103183245D01*
X137849640Y-103163321D01*
X137860972Y-103156778D01*
X137969076Y-103073827D01*
X137978324Y-103064579D01*
X138061280Y-102956471D01*
X138067819Y-102945143D01*
X138119967Y-102819247D01*
X138123352Y-102806617D01*
X138136570Y-102706216D01*
X138136999Y-102699666D01*
X138136999Y-102575733D01*
X138132811Y-102562843D01*
X138128622Y-102559800D01*
X137464302Y-102559799D01*
X137464296Y-102559800D01*
X136351133Y-102559799D01*
X136338243Y-102563987D01*
X136335200Y-102568176D01*
X136335200Y-102699665D01*
X136335629Y-102706215D01*
X136348847Y-102806616D01*
X136352232Y-102819246D01*
X136404379Y-102945139D01*
X136410922Y-102956472D01*
X136493872Y-103064575D01*
X136503124Y-103073827D01*
X136611227Y-103156777D01*
X136622557Y-103163319D01*
X136670662Y-103183245D01*
X136717939Y-103223624D01*
X136732453Y-103284081D01*
X136712399Y-103332494D01*
X136714194Y-103333693D01*
X136656397Y-103420192D01*
X136641101Y-103497089D01*
X136641101Y-103591800D01*
X136621888Y-103650931D01*
X136571588Y-103687476D01*
X136540501Y-103692400D01*
X135391700Y-103692400D01*
X135332569Y-103673187D01*
X135296024Y-103622887D01*
X135291100Y-103591800D01*
X135291100Y-103497090D01*
X135275804Y-103420193D01*
X135218007Y-103333694D01*
X135220955Y-103331724D01*
X135200676Y-103291924D01*
X135210402Y-103230516D01*
X135254366Y-103186552D01*
X135261539Y-103183245D01*
X135309640Y-103163321D01*
X135320972Y-103156778D01*
X135429076Y-103073827D01*
X135438324Y-103064579D01*
X135521280Y-102956471D01*
X135527819Y-102945143D01*
X135579967Y-102819247D01*
X135583352Y-102806617D01*
X135596570Y-102706216D01*
X135596999Y-102699666D01*
X135596999Y-102575733D01*
X135592811Y-102562843D01*
X135588622Y-102559800D01*
X134924302Y-102559799D01*
X134924296Y-102559800D01*
X133811133Y-102559799D01*
X133798243Y-102563987D01*
X133795200Y-102568176D01*
X133795200Y-102699665D01*
X133795629Y-102706215D01*
X133808847Y-102806616D01*
X133812232Y-102819246D01*
X133864379Y-102945139D01*
X133870922Y-102956472D01*
X133953872Y-103064575D01*
X133963124Y-103073827D01*
X134071227Y-103156777D01*
X134082557Y-103163319D01*
X134130662Y-103183245D01*
X134177939Y-103223624D01*
X134192453Y-103284081D01*
X134172399Y-103332494D01*
X134174194Y-103333693D01*
X134116397Y-103420192D01*
X134101101Y-103497089D01*
X134101100Y-104214110D01*
X134102065Y-104218961D01*
X134102065Y-104218962D01*
X134103586Y-104226610D01*
X134116396Y-104291007D01*
X134174193Y-104377506D01*
X134260692Y-104435303D01*
X134311110Y-104445332D01*
X134332737Y-104449634D01*
X134332738Y-104449634D01*
X134337589Y-104450599D01*
X134696100Y-104450600D01*
X135054610Y-104450600D01*
X135059461Y-104449635D01*
X135059462Y-104449635D01*
X135081089Y-104445333D01*
X135131507Y-104435304D01*
X135139746Y-104429799D01*
X135139748Y-104429798D01*
X135159270Y-104416754D01*
X135215160Y-104399800D01*
X136717041Y-104399800D01*
X136772931Y-104416754D01*
X136792454Y-104429799D01*
X136792456Y-104429800D01*
X136800692Y-104435303D01*
X136810408Y-104437236D01*
X136810409Y-104437236D01*
X136872737Y-104449634D01*
X136872738Y-104449634D01*
X136877589Y-104450599D01*
X137098722Y-104450599D01*
X137157853Y-104469812D01*
X137169856Y-104480063D01*
X137224481Y-104534689D01*
X137268861Y-104579069D01*
X137282238Y-104595632D01*
X137283783Y-104598025D01*
X137283786Y-104598028D01*
X137288294Y-104605010D01*
X137307834Y-104620414D01*
X137314382Y-104625576D01*
X137318621Y-104629343D01*
X137318635Y-104629327D01*
X137321806Y-104632014D01*
X137324737Y-104634945D01*
X137328105Y-104637352D01*
X137328110Y-104637356D01*
X137330575Y-104639117D01*
X137339182Y-104645267D01*
X137342941Y-104648090D01*
X137357056Y-104659216D01*
X137374265Y-104672784D01*
X137374268Y-104672786D01*
X137380795Y-104677931D01*
X137388233Y-104680543D01*
X137389379Y-104681138D01*
X137395793Y-104685722D01*
X137403754Y-104688103D01*
X137403758Y-104688105D01*
X137441971Y-104699533D01*
X137446479Y-104700998D01*
X137485957Y-104714862D01*
X137485959Y-104714862D01*
X137491929Y-104716959D01*
X137495866Y-104717300D01*
X137498039Y-104717300D01*
X137500208Y-104717394D01*
X137500201Y-104717563D01*
X137502807Y-104717727D01*
X137508642Y-104719472D01*
X137561920Y-104717378D01*
X137565870Y-104717300D01*
X138885000Y-104717300D01*
X138944131Y-104736513D01*
X138980676Y-104786813D01*
X138985600Y-104817900D01*
X138985600Y-104998600D01*
X138997437Y-105058107D01*
X139031145Y-105108555D01*
X139081593Y-105142263D01*
X139091309Y-105144196D01*
X139091310Y-105144196D01*
X139105599Y-105147038D01*
X139141100Y-105154100D01*
X140411100Y-105154100D01*
X140446601Y-105147038D01*
X140460890Y-105144196D01*
X140460891Y-105144196D01*
X140470607Y-105142263D01*
X140521055Y-105108555D01*
X140554763Y-105058107D01*
X140566600Y-104998600D01*
X140566600Y-104817900D01*
X140585813Y-104758769D01*
X140636113Y-104722224D01*
X140667200Y-104717300D01*
X141425000Y-104717300D01*
X141484131Y-104736513D01*
X141520676Y-104786813D01*
X141525600Y-104817900D01*
X141525600Y-104998600D01*
X141537437Y-105058107D01*
X141571145Y-105108555D01*
X141621593Y-105142263D01*
X141631309Y-105144196D01*
X141631310Y-105144196D01*
X141645599Y-105147038D01*
X141681100Y-105154100D01*
X142951100Y-105154100D01*
X142986601Y-105147038D01*
X143000890Y-105144196D01*
X143000891Y-105144196D01*
X143010607Y-105142263D01*
X143061055Y-105108555D01*
X143061288Y-105108206D01*
X143111348Y-105082700D01*
X143172756Y-105092426D01*
X143198220Y-105110926D01*
X143993146Y-105905853D01*
X144777736Y-106690443D01*
X144805962Y-106745841D01*
X144807201Y-106761577D01*
X144807200Y-107748537D01*
X144823552Y-107830743D01*
X144884357Y-107921743D01*
X144975357Y-107982548D01*
X145023453Y-107992115D01*
X145052711Y-107997935D01*
X145052712Y-107997935D01*
X145057563Y-107998900D01*
X145357836Y-107998900D01*
X145362687Y-107997935D01*
X145362688Y-107997935D01*
X145391946Y-107992115D01*
X145440042Y-107982548D01*
X145476807Y-107957982D01*
X145536647Y-107941105D01*
X145588589Y-107957981D01*
X145617116Y-107977042D01*
X145617118Y-107977043D01*
X145625357Y-107982548D01*
X145673453Y-107992115D01*
X145702711Y-107997935D01*
X145702712Y-107997935D01*
X145707563Y-107998900D01*
X146007836Y-107998900D01*
X146012687Y-107997935D01*
X146012688Y-107997935D01*
X146041946Y-107992115D01*
X146090042Y-107982548D01*
X146126807Y-107957982D01*
X146186647Y-107941105D01*
X146238589Y-107957981D01*
X146267116Y-107977042D01*
X146267118Y-107977043D01*
X146275357Y-107982548D01*
X146323453Y-107992115D01*
X146352711Y-107997935D01*
X146352712Y-107997935D01*
X146357563Y-107998900D01*
X146657836Y-107998900D01*
X146662687Y-107997935D01*
X146662688Y-107997935D01*
X146728686Y-107984807D01*
X146790429Y-107992115D01*
X146836085Y-108034319D01*
X146848215Y-108095298D01*
X146819447Y-108154609D01*
X146802621Y-108171435D01*
X146747223Y-108199661D01*
X146731486Y-108200900D01*
X144906454Y-108200900D01*
X144902195Y-108200587D01*
X144897368Y-108198930D01*
X144846800Y-108200829D01*
X144843025Y-108200900D01*
X144829254Y-108200900D01*
X144825685Y-108201564D01*
X144823590Y-108201700D01*
X144803276Y-108202463D01*
X144803274Y-108202463D01*
X144793994Y-108202812D01*
X144785460Y-108206478D01*
X144785457Y-108206479D01*
X144785149Y-108206611D01*
X144763866Y-108213078D01*
X144754401Y-108214841D01*
X144734014Y-108227408D01*
X144720948Y-108234195D01*
X144698946Y-108243647D01*
X144695937Y-108246119D01*
X144691855Y-108250201D01*
X144675345Y-108263252D01*
X144674244Y-108264250D01*
X144666339Y-108269123D01*
X144660720Y-108276512D01*
X144660718Y-108276514D01*
X144649533Y-108291224D01*
X144640590Y-108301466D01*
X144085882Y-108856174D01*
X144082651Y-108858963D01*
X144078066Y-108861204D01*
X144071748Y-108868015D01*
X144043659Y-108898296D01*
X144041040Y-108901016D01*
X144031295Y-108910761D01*
X144029243Y-108913752D01*
X144027861Y-108915326D01*
X144007714Y-108937046D01*
X144004272Y-108945673D01*
X144004271Y-108945675D01*
X144004148Y-108945983D01*
X143993666Y-108965615D01*
X143988224Y-108973548D01*
X143986080Y-108982583D01*
X143982696Y-108996843D01*
X143978252Y-109010892D01*
X143969380Y-109033130D01*
X143969000Y-109037006D01*
X143969000Y-109042781D01*
X143966555Y-109063674D01*
X143966482Y-109065166D01*
X143964338Y-109074201D01*
X143968081Y-109101702D01*
X143969000Y-109115269D01*
X143969000Y-109134586D01*
X143949787Y-109193717D01*
X143939535Y-109205721D01*
X143350521Y-109794735D01*
X143295123Y-109822961D01*
X143279386Y-109824200D01*
X142696702Y-109824199D01*
X142696696Y-109824200D01*
X141583533Y-109824199D01*
X141570643Y-109828387D01*
X141567600Y-109832576D01*
X141567600Y-109964065D01*
X141568029Y-109970615D01*
X141581247Y-110071016D01*
X141584632Y-110083646D01*
X141636779Y-110209539D01*
X141643322Y-110220872D01*
X141726272Y-110328975D01*
X141735524Y-110338227D01*
X141843627Y-110421177D01*
X141854957Y-110427719D01*
X141903062Y-110447645D01*
X141950339Y-110488024D01*
X141964853Y-110548481D01*
X141944799Y-110596894D01*
X141946594Y-110598093D01*
X141888797Y-110684592D01*
X141887240Y-110692421D01*
X141847649Y-110738776D01*
X141795086Y-110753600D01*
X141520215Y-110753600D01*
X141461084Y-110734387D01*
X141449080Y-110724135D01*
X140552965Y-109828021D01*
X140524739Y-109772623D01*
X140523500Y-109756886D01*
X140523500Y-109237490D01*
X140521600Y-109227934D01*
X141567601Y-109227934D01*
X141567601Y-109351867D01*
X141571789Y-109364757D01*
X141575978Y-109367800D01*
X142224367Y-109367801D01*
X142237257Y-109363613D01*
X142240300Y-109359424D01*
X142240300Y-109351867D01*
X142696699Y-109351867D01*
X142700887Y-109364757D01*
X142705076Y-109367800D01*
X143353467Y-109367801D01*
X143366357Y-109363613D01*
X143369400Y-109359424D01*
X143369400Y-109227935D01*
X143368971Y-109221385D01*
X143355753Y-109120984D01*
X143352368Y-109108354D01*
X143300220Y-108982458D01*
X143293681Y-108971130D01*
X143210725Y-108863022D01*
X143201477Y-108853774D01*
X143093373Y-108770823D01*
X143082040Y-108764280D01*
X142956147Y-108712133D01*
X142943517Y-108708748D01*
X142843116Y-108695530D01*
X142836566Y-108695101D01*
X142712633Y-108695101D01*
X142699743Y-108699289D01*
X142696700Y-108703478D01*
X142696699Y-109351867D01*
X142240300Y-109351867D01*
X142240301Y-108711033D01*
X142236113Y-108698143D01*
X142231924Y-108695100D01*
X142100435Y-108695100D01*
X142093885Y-108695529D01*
X141993484Y-108708747D01*
X141980854Y-108712132D01*
X141854961Y-108764279D01*
X141843628Y-108770822D01*
X141735524Y-108853773D01*
X141726276Y-108863021D01*
X141643320Y-108971129D01*
X141636781Y-108982457D01*
X141584633Y-109108353D01*
X141581248Y-109120983D01*
X141568030Y-109221384D01*
X141567601Y-109227934D01*
X140521600Y-109227934D01*
X140520297Y-109221385D01*
X140514793Y-109193717D01*
X140508204Y-109160593D01*
X140456627Y-109083403D01*
X140455911Y-109082331D01*
X140455910Y-109082330D01*
X140450407Y-109074094D01*
X140363908Y-109016296D01*
X140302229Y-109004027D01*
X140291863Y-109001965D01*
X140291862Y-109001965D01*
X140287011Y-109001000D01*
X139569990Y-109001000D01*
X139565139Y-109001965D01*
X139565138Y-109001965D01*
X139554772Y-109004027D01*
X139493093Y-109016296D01*
X139406594Y-109074093D01*
X139348796Y-109160592D01*
X139346863Y-109170311D01*
X139336704Y-109221384D01*
X139333500Y-109237489D01*
X139333500Y-109954510D01*
X139334465Y-109959361D01*
X139334465Y-109959362D01*
X139336704Y-109970616D01*
X139348796Y-110031407D01*
X139375262Y-110071016D01*
X139401089Y-110109668D01*
X139406593Y-110117906D01*
X139493092Y-110175704D01*
X139543510Y-110185733D01*
X139565137Y-110190035D01*
X139565138Y-110190035D01*
X139569989Y-110191000D01*
X140089386Y-110191000D01*
X140148517Y-110210213D01*
X140160521Y-110220465D01*
X140293321Y-110353265D01*
X140321547Y-110408663D01*
X140311821Y-110470071D01*
X140267857Y-110514035D01*
X140222186Y-110525000D01*
X139569990Y-110525000D01*
X139565139Y-110525965D01*
X139565138Y-110525965D01*
X139544200Y-110530130D01*
X139493093Y-110540296D01*
X139433613Y-110580040D01*
X139418600Y-110590071D01*
X139406594Y-110598093D01*
X139348796Y-110684592D01*
X139347238Y-110692423D01*
X139307645Y-110738777D01*
X139255085Y-110753600D01*
X138061915Y-110753600D01*
X138002784Y-110734387D01*
X137969782Y-110692525D01*
X137968204Y-110684593D01*
X137910407Y-110598094D01*
X137913355Y-110596124D01*
X137893076Y-110556324D01*
X137902802Y-110494916D01*
X137946766Y-110450952D01*
X137953939Y-110447645D01*
X138002040Y-110427721D01*
X138013372Y-110421178D01*
X138121476Y-110338227D01*
X138130724Y-110328979D01*
X138213680Y-110220871D01*
X138220219Y-110209543D01*
X138272367Y-110083647D01*
X138275752Y-110071017D01*
X138288970Y-109970616D01*
X138289399Y-109964066D01*
X138289399Y-109840133D01*
X138285211Y-109827243D01*
X138281022Y-109824200D01*
X137616702Y-109824199D01*
X137616696Y-109824200D01*
X136503533Y-109824199D01*
X136490643Y-109828387D01*
X136487600Y-109832576D01*
X136487600Y-109964065D01*
X136488029Y-109970615D01*
X136501247Y-110071016D01*
X136504632Y-110083646D01*
X136556779Y-110209539D01*
X136563322Y-110220872D01*
X136646272Y-110328975D01*
X136655524Y-110338227D01*
X136763627Y-110421177D01*
X136774957Y-110427719D01*
X136823062Y-110447645D01*
X136870339Y-110488024D01*
X136884853Y-110548481D01*
X136864799Y-110596894D01*
X136866594Y-110598093D01*
X136808797Y-110684592D01*
X136807240Y-110692421D01*
X136767649Y-110738776D01*
X136715086Y-110753600D01*
X135521915Y-110753600D01*
X135462784Y-110734387D01*
X135429782Y-110692525D01*
X135428204Y-110684593D01*
X135393298Y-110632353D01*
X135375911Y-110606331D01*
X135375910Y-110606330D01*
X135370407Y-110598094D01*
X135283908Y-110540296D01*
X135232801Y-110530130D01*
X135211863Y-110525965D01*
X135211862Y-110525965D01*
X135207011Y-110525000D01*
X134567514Y-110525000D01*
X134508383Y-110505787D01*
X134471838Y-110455487D01*
X134471838Y-110393313D01*
X134496379Y-110353265D01*
X134629179Y-110220465D01*
X134684577Y-110192239D01*
X134700314Y-110191000D01*
X135207010Y-110191000D01*
X135211861Y-110190035D01*
X135211862Y-110190035D01*
X135233489Y-110185733D01*
X135283907Y-110175704D01*
X135370406Y-110117907D01*
X135428204Y-110031408D01*
X135438233Y-109980990D01*
X135442535Y-109959363D01*
X135442535Y-109959362D01*
X135443500Y-109954511D01*
X135443500Y-109237490D01*
X135441600Y-109227934D01*
X136487601Y-109227934D01*
X136487601Y-109351867D01*
X136491789Y-109364757D01*
X136495978Y-109367800D01*
X137144367Y-109367801D01*
X137157257Y-109363613D01*
X137160300Y-109359424D01*
X137160300Y-109351867D01*
X137616699Y-109351867D01*
X137620887Y-109364757D01*
X137625076Y-109367800D01*
X138273467Y-109367801D01*
X138286357Y-109363613D01*
X138289400Y-109359424D01*
X138289400Y-109227935D01*
X138288971Y-109221385D01*
X138275753Y-109120984D01*
X138272368Y-109108354D01*
X138220220Y-108982458D01*
X138213681Y-108971130D01*
X138130725Y-108863022D01*
X138121477Y-108853774D01*
X138013373Y-108770823D01*
X138002040Y-108764280D01*
X137876147Y-108712133D01*
X137863517Y-108708748D01*
X137763116Y-108695530D01*
X137756566Y-108695101D01*
X137632633Y-108695101D01*
X137619743Y-108699289D01*
X137616700Y-108703478D01*
X137616699Y-109351867D01*
X137160300Y-109351867D01*
X137160301Y-108711033D01*
X137156113Y-108698143D01*
X137151924Y-108695100D01*
X137020435Y-108695100D01*
X137013885Y-108695529D01*
X136913484Y-108708747D01*
X136900854Y-108712132D01*
X136774961Y-108764279D01*
X136763628Y-108770822D01*
X136655524Y-108853773D01*
X136646276Y-108863021D01*
X136563320Y-108971129D01*
X136556781Y-108982457D01*
X136504633Y-109108353D01*
X136501248Y-109120983D01*
X136488030Y-109221384D01*
X136487601Y-109227934D01*
X135441600Y-109227934D01*
X135440297Y-109221385D01*
X135434793Y-109193717D01*
X135428204Y-109160593D01*
X135376627Y-109083403D01*
X135375911Y-109082331D01*
X135375910Y-109082330D01*
X135370407Y-109074094D01*
X135283908Y-109016296D01*
X135222229Y-109004027D01*
X135211863Y-109001965D01*
X135211862Y-109001965D01*
X135207011Y-109001000D01*
X134489990Y-109001000D01*
X134485139Y-109001965D01*
X134485138Y-109001965D01*
X134474772Y-109004027D01*
X134413093Y-109016296D01*
X134326594Y-109074093D01*
X134268796Y-109160592D01*
X134266863Y-109170311D01*
X134256704Y-109221384D01*
X134253500Y-109237489D01*
X134253500Y-109769586D01*
X134234287Y-109828717D01*
X134224035Y-109840721D01*
X133900482Y-110164274D01*
X133897249Y-110167064D01*
X133892667Y-110169304D01*
X133872541Y-110191000D01*
X133858254Y-110206402D01*
X133855635Y-110209121D01*
X133845895Y-110218861D01*
X133843840Y-110221857D01*
X133842460Y-110223428D01*
X133822315Y-110245145D01*
X133818874Y-110253769D01*
X133818873Y-110253771D01*
X133818747Y-110254087D01*
X133808270Y-110273709D01*
X133802824Y-110281648D01*
X133800680Y-110290682D01*
X133800678Y-110290687D01*
X133797293Y-110304950D01*
X133792852Y-110318994D01*
X133783981Y-110341229D01*
X133783601Y-110345105D01*
X133783601Y-110350880D01*
X133781156Y-110371775D01*
X133781083Y-110373261D01*
X133778938Y-110382301D01*
X132359300Y-110382301D01*
X132359300Y-101963534D01*
X133795201Y-101963534D01*
X133795201Y-102087467D01*
X133799389Y-102100357D01*
X133803578Y-102103400D01*
X134451967Y-102103401D01*
X134464857Y-102099213D01*
X134467900Y-102095024D01*
X134467900Y-102087467D01*
X134924299Y-102087467D01*
X134928487Y-102100357D01*
X134932676Y-102103400D01*
X135581067Y-102103401D01*
X135593957Y-102099213D01*
X135597000Y-102095024D01*
X135597000Y-101963535D01*
X135597000Y-101963534D01*
X136335201Y-101963534D01*
X136335201Y-102087467D01*
X136339389Y-102100357D01*
X136343578Y-102103400D01*
X136991967Y-102103401D01*
X137004857Y-102099213D01*
X137007900Y-102095024D01*
X137007900Y-102087467D01*
X137464299Y-102087467D01*
X137468487Y-102100357D01*
X137472676Y-102103400D01*
X138121067Y-102103401D01*
X138133957Y-102099213D01*
X138137000Y-102095024D01*
X138137000Y-102060176D01*
X138679700Y-102060176D01*
X138679700Y-102457641D01*
X138679736Y-102459549D01*
X138680814Y-102488384D01*
X138682036Y-102497662D01*
X138709918Y-102619821D01*
X138715364Y-102633696D01*
X138776594Y-102739750D01*
X138785888Y-102751404D01*
X138875660Y-102834702D01*
X138887974Y-102843097D01*
X138998309Y-102896230D01*
X139012555Y-102900625D01*
X139137368Y-102919438D01*
X139144871Y-102920000D01*
X139531967Y-102920000D01*
X139544857Y-102915812D01*
X139547900Y-102911623D01*
X139547900Y-102904067D01*
X140004299Y-102904067D01*
X140008487Y-102916957D01*
X140012676Y-102920000D01*
X140410141Y-102920000D01*
X140412049Y-102919964D01*
X140440884Y-102918886D01*
X140450162Y-102917664D01*
X140572321Y-102889782D01*
X140586196Y-102884336D01*
X140692250Y-102823106D01*
X140703904Y-102813812D01*
X140787202Y-102724040D01*
X140795597Y-102711726D01*
X140848730Y-102601391D01*
X140853125Y-102587145D01*
X140871938Y-102462332D01*
X140872500Y-102454829D01*
X140872500Y-102067733D01*
X140870045Y-102060176D01*
X141219700Y-102060176D01*
X141219700Y-102457641D01*
X141219736Y-102459549D01*
X141220814Y-102488384D01*
X141222036Y-102497662D01*
X141249918Y-102619821D01*
X141255364Y-102633696D01*
X141316594Y-102739750D01*
X141325888Y-102751404D01*
X141415660Y-102834702D01*
X141427974Y-102843097D01*
X141538309Y-102896230D01*
X141552555Y-102900625D01*
X141677368Y-102919438D01*
X141684871Y-102920000D01*
X142071967Y-102920000D01*
X142084857Y-102915812D01*
X142087900Y-102911623D01*
X142087900Y-102904067D01*
X142544299Y-102904067D01*
X142548487Y-102916957D01*
X142552676Y-102920000D01*
X142950141Y-102920000D01*
X142952049Y-102919964D01*
X142980884Y-102918886D01*
X142990162Y-102917664D01*
X143112321Y-102889782D01*
X143126196Y-102884336D01*
X143232250Y-102823106D01*
X143243904Y-102813812D01*
X143327202Y-102724040D01*
X143335597Y-102711726D01*
X143388730Y-102601391D01*
X143393125Y-102587145D01*
X143411938Y-102462332D01*
X143412500Y-102454829D01*
X143412500Y-102067733D01*
X143408312Y-102054843D01*
X143404123Y-102051800D01*
X142560233Y-102051799D01*
X142547343Y-102055987D01*
X142544300Y-102060176D01*
X142544299Y-102904067D01*
X142087900Y-102904067D01*
X142087901Y-102067733D01*
X142083713Y-102054843D01*
X142079524Y-102051800D01*
X141235633Y-102051799D01*
X141222743Y-102055987D01*
X141219700Y-102060176D01*
X140870045Y-102060176D01*
X140868312Y-102054843D01*
X140864123Y-102051800D01*
X140020233Y-102051799D01*
X140007343Y-102055987D01*
X140004300Y-102060176D01*
X140004299Y-102904067D01*
X139547900Y-102904067D01*
X139547901Y-102067733D01*
X139543713Y-102054843D01*
X139539524Y-102051800D01*
X138695633Y-102051799D01*
X138682743Y-102055987D01*
X138679700Y-102060176D01*
X138137000Y-102060176D01*
X138137000Y-101963535D01*
X138136571Y-101956985D01*
X138123353Y-101856584D01*
X138119968Y-101843954D01*
X138067820Y-101718058D01*
X138061281Y-101706730D01*
X137978325Y-101598622D01*
X137969077Y-101589374D01*
X137860973Y-101506423D01*
X137849640Y-101499880D01*
X137723747Y-101447733D01*
X137711117Y-101444348D01*
X137610716Y-101431130D01*
X137604166Y-101430701D01*
X137480233Y-101430701D01*
X137467343Y-101434889D01*
X137464300Y-101439078D01*
X137464299Y-102087467D01*
X137007900Y-102087467D01*
X137007901Y-101446633D01*
X137003713Y-101433743D01*
X136999524Y-101430700D01*
X136868035Y-101430700D01*
X136861485Y-101431129D01*
X136761084Y-101444347D01*
X136748454Y-101447732D01*
X136622561Y-101499879D01*
X136611228Y-101506422D01*
X136503124Y-101589373D01*
X136493876Y-101598621D01*
X136410920Y-101706729D01*
X136404381Y-101718057D01*
X136352233Y-101843953D01*
X136348848Y-101856583D01*
X136335630Y-101956984D01*
X136335201Y-101963534D01*
X135597000Y-101963534D01*
X135596571Y-101956985D01*
X135583353Y-101856584D01*
X135579968Y-101843954D01*
X135527820Y-101718058D01*
X135521281Y-101706730D01*
X135438325Y-101598622D01*
X135429077Y-101589374D01*
X135320973Y-101506423D01*
X135309640Y-101499880D01*
X135183747Y-101447733D01*
X135171117Y-101444348D01*
X135070716Y-101431130D01*
X135064166Y-101430701D01*
X134940233Y-101430701D01*
X134927343Y-101434889D01*
X134924300Y-101439078D01*
X134924299Y-102087467D01*
X134467900Y-102087467D01*
X134467901Y-101446633D01*
X134463713Y-101433743D01*
X134459524Y-101430700D01*
X134328035Y-101430700D01*
X134321485Y-101431129D01*
X134221084Y-101444347D01*
X134208454Y-101447732D01*
X134082561Y-101499879D01*
X134071228Y-101506422D01*
X133963124Y-101589373D01*
X133953876Y-101598621D01*
X133870920Y-101706729D01*
X133864381Y-101718057D01*
X133812233Y-101843953D01*
X133808848Y-101856583D01*
X133795630Y-101956984D01*
X133795201Y-101963534D01*
X132359300Y-101963534D01*
X132359300Y-101192372D01*
X138679700Y-101192372D01*
X138679700Y-101579467D01*
X138683888Y-101592357D01*
X138688077Y-101595400D01*
X139531967Y-101595401D01*
X139544857Y-101591213D01*
X139547900Y-101587024D01*
X139547900Y-101579467D01*
X140004299Y-101579467D01*
X140008487Y-101592357D01*
X140012676Y-101595400D01*
X140856567Y-101595401D01*
X140869457Y-101591213D01*
X140872500Y-101587024D01*
X140872500Y-101192372D01*
X141219700Y-101192372D01*
X141219700Y-101579467D01*
X141223888Y-101592357D01*
X141228077Y-101595400D01*
X142071967Y-101595401D01*
X142084857Y-101591213D01*
X142087900Y-101587024D01*
X142087900Y-101579467D01*
X142544299Y-101579467D01*
X142548487Y-101592357D01*
X142552676Y-101595400D01*
X143396567Y-101595401D01*
X143409457Y-101591213D01*
X143412500Y-101587024D01*
X143412500Y-101189559D01*
X143412464Y-101187651D01*
X143411386Y-101158816D01*
X143410164Y-101149538D01*
X143382282Y-101027379D01*
X143376836Y-101013504D01*
X143315606Y-100907450D01*
X143306312Y-100895796D01*
X143216540Y-100812498D01*
X143204226Y-100804103D01*
X143093891Y-100750970D01*
X143079645Y-100746575D01*
X142954832Y-100727762D01*
X142947328Y-100727200D01*
X142560233Y-100727200D01*
X142547343Y-100731388D01*
X142544300Y-100735577D01*
X142544299Y-101579467D01*
X142087900Y-101579467D01*
X142087901Y-100743133D01*
X142083713Y-100730243D01*
X142079524Y-100727200D01*
X141682059Y-100727200D01*
X141680151Y-100727236D01*
X141651316Y-100728314D01*
X141642038Y-100729536D01*
X141519879Y-100757418D01*
X141506004Y-100762864D01*
X141399950Y-100824094D01*
X141388296Y-100833388D01*
X141304998Y-100923160D01*
X141296603Y-100935474D01*
X141243470Y-101045809D01*
X141239075Y-101060055D01*
X141220262Y-101184868D01*
X141219700Y-101192372D01*
X140872500Y-101192372D01*
X140872500Y-101189559D01*
X140872464Y-101187651D01*
X140871386Y-101158816D01*
X140870164Y-101149538D01*
X140842282Y-101027379D01*
X140836836Y-101013504D01*
X140775606Y-100907450D01*
X140766312Y-100895796D01*
X140676540Y-100812498D01*
X140664226Y-100804103D01*
X140553891Y-100750970D01*
X140539645Y-100746575D01*
X140414832Y-100727762D01*
X140407328Y-100727200D01*
X140020233Y-100727200D01*
X140007343Y-100731388D01*
X140004300Y-100735577D01*
X140004299Y-101579467D01*
X139547900Y-101579467D01*
X139547901Y-100743133D01*
X139543713Y-100730243D01*
X139539524Y-100727200D01*
X139142059Y-100727200D01*
X139140151Y-100727236D01*
X139111316Y-100728314D01*
X139102038Y-100729536D01*
X138979879Y-100757418D01*
X138966004Y-100762864D01*
X138859950Y-100824094D01*
X138848296Y-100833388D01*
X138764998Y-100923160D01*
X138756603Y-100935474D01*
X138703470Y-101045809D01*
X138699075Y-101060055D01*
X138680262Y-101184868D01*
X138679700Y-101192372D01*
X132359300Y-101192372D01*
X132359300Y-94269835D01*
X132362182Y-94245927D01*
X132362618Y-94244143D01*
X132363971Y-94238614D01*
X132365679Y-94116064D01*
X132365852Y-94111408D01*
X132365852Y-94111407D01*
X132369756Y-94046876D01*
X132370303Y-94040853D01*
X132396549Y-93824710D01*
X132397459Y-93818729D01*
X132406813Y-93767687D01*
X132408083Y-93761772D01*
X132430955Y-93668973D01*
X133234414Y-93668973D01*
X133234716Y-93673579D01*
X133234716Y-93673581D01*
X133235754Y-93689399D01*
X133235752Y-93689405D01*
X133235754Y-93689405D01*
X133248875Y-93889604D01*
X133250008Y-93894065D01*
X133293808Y-94066525D01*
X133303301Y-94103905D01*
X133395868Y-94304700D01*
X133523478Y-94485263D01*
X133526783Y-94488482D01*
X133526785Y-94488485D01*
X133594989Y-94554926D01*
X133681855Y-94639548D01*
X133865697Y-94762387D01*
X134068846Y-94849666D01*
X134284498Y-94898464D01*
X134358863Y-94901386D01*
X134500823Y-94906963D01*
X134500824Y-94906963D01*
X134505432Y-94907144D01*
X134509989Y-94906483D01*
X134509994Y-94906483D01*
X134614841Y-94891280D01*
X134724249Y-94875417D01*
X134933619Y-94804346D01*
X135126532Y-94696309D01*
X135194780Y-94639548D01*
X135292979Y-94557876D01*
X135296526Y-94554926D01*
X135375060Y-94460500D01*
X135434961Y-94388477D01*
X135434963Y-94388475D01*
X135437909Y-94384932D01*
X135461093Y-94343534D01*
X137605200Y-94343534D01*
X137605200Y-94467467D01*
X137609388Y-94480357D01*
X137613577Y-94483400D01*
X138261967Y-94483400D01*
X138274857Y-94479212D01*
X138277900Y-94475023D01*
X138277901Y-93826633D01*
X138275447Y-93819077D01*
X138734300Y-93819077D01*
X138734300Y-94467467D01*
X138738488Y-94480357D01*
X138742677Y-94483400D01*
X139391067Y-94483401D01*
X139403957Y-94479213D01*
X139407000Y-94475024D01*
X139407000Y-94343535D01*
X139406571Y-94336985D01*
X139393353Y-94236584D01*
X139389968Y-94223954D01*
X139337821Y-94098059D01*
X139331278Y-94086727D01*
X139248328Y-93978624D01*
X139239076Y-93969372D01*
X139130973Y-93886422D01*
X139119640Y-93879879D01*
X138993747Y-93827732D01*
X138981117Y-93824347D01*
X138880716Y-93811129D01*
X138874166Y-93810700D01*
X138750233Y-93810700D01*
X138737343Y-93814888D01*
X138734300Y-93819077D01*
X138275447Y-93819077D01*
X138273713Y-93813743D01*
X138269524Y-93810700D01*
X138138035Y-93810700D01*
X138131485Y-93811129D01*
X138031084Y-93824347D01*
X138018454Y-93827732D01*
X137892559Y-93879879D01*
X137881227Y-93886422D01*
X137773123Y-93969373D01*
X137763875Y-93978621D01*
X137680919Y-94086729D01*
X137674380Y-94098057D01*
X137622232Y-94223953D01*
X137618847Y-94236583D01*
X137605629Y-94336984D01*
X137605200Y-94343534D01*
X135461093Y-94343534D01*
X135545946Y-94192019D01*
X135617017Y-93982649D01*
X135639479Y-93827732D01*
X135648319Y-93766767D01*
X135648320Y-93766758D01*
X135648744Y-93763832D01*
X135649953Y-93717701D01*
X135650323Y-93703556D01*
X135650323Y-93703549D01*
X135650400Y-93700600D01*
X135647495Y-93668973D01*
X161428414Y-93668973D01*
X161428716Y-93673579D01*
X161428716Y-93673581D01*
X161429754Y-93689399D01*
X161429752Y-93689405D01*
X161429754Y-93689405D01*
X161442875Y-93889604D01*
X161444008Y-93894065D01*
X161487808Y-94066525D01*
X161497301Y-94103905D01*
X161589868Y-94304700D01*
X161717478Y-94485263D01*
X161720783Y-94488482D01*
X161720785Y-94488485D01*
X161788989Y-94554926D01*
X161875855Y-94639548D01*
X162059697Y-94762387D01*
X162262846Y-94849666D01*
X162478498Y-94898464D01*
X162552863Y-94901386D01*
X162694823Y-94906963D01*
X162694824Y-94906963D01*
X162699432Y-94907144D01*
X162703989Y-94906483D01*
X162703994Y-94906483D01*
X162808841Y-94891280D01*
X162918249Y-94875417D01*
X163127619Y-94804346D01*
X163320532Y-94696309D01*
X163388780Y-94639548D01*
X163486979Y-94557876D01*
X163490526Y-94554926D01*
X163569060Y-94460500D01*
X163628961Y-94388477D01*
X163628963Y-94388475D01*
X163631909Y-94384932D01*
X163739946Y-94192019D01*
X163811017Y-93982649D01*
X163833479Y-93827732D01*
X163842319Y-93766767D01*
X163842320Y-93766758D01*
X163842744Y-93763832D01*
X163843953Y-93717701D01*
X163844323Y-93703556D01*
X163844323Y-93703549D01*
X163844400Y-93700600D01*
X163841073Y-93664390D01*
X163824591Y-93485011D01*
X163824590Y-93485006D01*
X163824169Y-93480423D01*
X163764152Y-93267620D01*
X163751836Y-93242645D01*
X163668403Y-93073459D01*
X163668401Y-93073456D01*
X163666360Y-93069317D01*
X163534068Y-92892156D01*
X163512859Y-92872550D01*
X163375093Y-92745201D01*
X163375094Y-92745201D01*
X163371706Y-92742070D01*
X163367806Y-92739609D01*
X163367803Y-92739607D01*
X163188620Y-92626552D01*
X163188617Y-92626550D01*
X163184711Y-92624086D01*
X162979347Y-92542154D01*
X162762491Y-92499019D01*
X162650263Y-92497549D01*
X162546019Y-92496184D01*
X162546015Y-92496184D01*
X162541406Y-92496124D01*
X162536861Y-92496905D01*
X162328043Y-92532786D01*
X162328038Y-92532787D01*
X162323495Y-92533568D01*
X162219776Y-92571832D01*
X162120387Y-92608498D01*
X162120385Y-92608499D01*
X162116056Y-92610096D01*
X162112088Y-92612457D01*
X161930002Y-92720787D01*
X161929997Y-92720791D01*
X161926038Y-92723146D01*
X161922572Y-92726185D01*
X161922570Y-92726187D01*
X161763270Y-92865889D01*
X161763267Y-92865892D01*
X161759803Y-92868930D01*
X161756950Y-92872549D01*
X161756949Y-92872550D01*
X161721510Y-92917504D01*
X161622918Y-93042567D01*
X161519969Y-93238242D01*
X161510847Y-93267620D01*
X161468485Y-93404048D01*
X161454402Y-93449401D01*
X161428414Y-93668973D01*
X135647495Y-93668973D01*
X135647073Y-93664390D01*
X135630591Y-93485011D01*
X135630590Y-93485006D01*
X135630169Y-93480423D01*
X135570152Y-93267620D01*
X135557836Y-93242645D01*
X135474403Y-93073459D01*
X135474401Y-93073456D01*
X135472360Y-93069317D01*
X135340068Y-92892156D01*
X135318859Y-92872550D01*
X135181093Y-92745201D01*
X135181094Y-92745201D01*
X135177706Y-92742070D01*
X135173806Y-92739609D01*
X135173803Y-92739607D01*
X134994620Y-92626552D01*
X134994617Y-92626550D01*
X134990711Y-92624086D01*
X134785347Y-92542154D01*
X134568491Y-92499019D01*
X134456263Y-92497549D01*
X134352019Y-92496184D01*
X134352015Y-92496184D01*
X134347406Y-92496124D01*
X134342861Y-92496905D01*
X134134043Y-92532786D01*
X134134038Y-92532787D01*
X134129495Y-92533568D01*
X134025776Y-92571832D01*
X133926387Y-92608498D01*
X133926385Y-92608499D01*
X133922056Y-92610096D01*
X133918088Y-92612457D01*
X133736002Y-92720787D01*
X133735997Y-92720791D01*
X133732038Y-92723146D01*
X133728572Y-92726185D01*
X133728570Y-92726187D01*
X133569270Y-92865889D01*
X133569267Y-92865892D01*
X133565803Y-92868930D01*
X133562950Y-92872549D01*
X133562949Y-92872550D01*
X133527510Y-92917504D01*
X133428918Y-93042567D01*
X133325969Y-93238242D01*
X133316847Y-93267620D01*
X133274485Y-93404048D01*
X133260402Y-93449401D01*
X133234414Y-93668973D01*
X132430955Y-93668973D01*
X132460179Y-93550409D01*
X132461811Y-93544556D01*
X132477257Y-93494987D01*
X132479239Y-93489242D01*
X132556420Y-93285734D01*
X132558746Y-93280119D01*
X132580053Y-93232777D01*
X132582713Y-93227314D01*
X132657655Y-93084522D01*
X132683863Y-93034587D01*
X132686844Y-93029303D01*
X132713720Y-92984847D01*
X132717018Y-92979746D01*
X132840639Y-92800650D01*
X132844240Y-92795755D01*
X132876280Y-92754859D01*
X132880171Y-92750191D01*
X133024485Y-92587294D01*
X133028650Y-92582869D01*
X133065363Y-92546156D01*
X133069788Y-92541990D01*
X133232723Y-92397644D01*
X133237378Y-92393765D01*
X133278260Y-92361736D01*
X133283140Y-92358146D01*
X133462261Y-92234508D01*
X133467363Y-92231209D01*
X133469085Y-92230168D01*
X133511818Y-92204335D01*
X133517081Y-92201367D01*
X133622128Y-92146234D01*
X133709808Y-92100216D01*
X133715271Y-92097556D01*
X133762624Y-92076244D01*
X133768239Y-92073918D01*
X133971736Y-91996742D01*
X133977478Y-91994761D01*
X134027070Y-91979306D01*
X134032908Y-91977678D01*
X134179299Y-91941596D01*
X134244248Y-91925588D01*
X134250187Y-91924313D01*
X134253737Y-91923662D01*
X134301261Y-91914953D01*
X134307217Y-91914047D01*
X134399331Y-91902862D01*
X134523353Y-91887804D01*
X134529402Y-91887255D01*
X134568798Y-91884871D01*
X134593928Y-91883351D01*
X134598563Y-91883179D01*
X134663796Y-91882270D01*
X134715272Y-91881553D01*
X134715275Y-91881553D01*
X134720917Y-91881474D01*
X134726399Y-91880143D01*
X134726406Y-91880142D01*
X134728469Y-91879641D01*
X134752207Y-91876800D01*
X162249865Y-91876800D01*
X162273773Y-91879682D01*
G37*
G04 #@! TD.AperFunction*
G04 #@! TA.AperFunction,Conductor*
G36*
X151108617Y-104660313D02*
G01*
X151120621Y-104670565D01*
X151253421Y-104803365D01*
X151281647Y-104858763D01*
X151271921Y-104920171D01*
X151227957Y-104964135D01*
X151182286Y-104975100D01*
X150748447Y-104975100D01*
X150744192Y-104974788D01*
X150739367Y-104973131D01*
X150730088Y-104973479D01*
X150730085Y-104973479D01*
X150688812Y-104975029D01*
X150685038Y-104975100D01*
X150671254Y-104975100D01*
X150667684Y-104975765D01*
X150665593Y-104975901D01*
X150635993Y-104977012D01*
X150627463Y-104980677D01*
X150627457Y-104980678D01*
X150627148Y-104980811D01*
X150605864Y-104987278D01*
X150596401Y-104989041D01*
X150588493Y-104993915D01*
X150588494Y-104993915D01*
X150576018Y-105001605D01*
X150562943Y-105008397D01*
X150547466Y-105015046D01*
X150547462Y-105015048D01*
X150540946Y-105017848D01*
X150537936Y-105020320D01*
X150533855Y-105024401D01*
X150517345Y-105037452D01*
X150516244Y-105038450D01*
X150508339Y-105043323D01*
X150502720Y-105050712D01*
X150502718Y-105050714D01*
X150491533Y-105065424D01*
X150482590Y-105075666D01*
X150258082Y-105300174D01*
X150254849Y-105302964D01*
X150250267Y-105305204D01*
X150225855Y-105331521D01*
X150215854Y-105342302D01*
X150213235Y-105345021D01*
X150203495Y-105354761D01*
X150201440Y-105357757D01*
X150200060Y-105359328D01*
X150179915Y-105381045D01*
X150176474Y-105389669D01*
X150176473Y-105389671D01*
X150176347Y-105389987D01*
X150165870Y-105409609D01*
X150160424Y-105417548D01*
X150158281Y-105426580D01*
X150158278Y-105426586D01*
X150156646Y-105433464D01*
X150124298Y-105486560D01*
X150066918Y-105510502D01*
X150032731Y-105507406D01*
X150027931Y-105506120D01*
X150001699Y-105502667D01*
X149988369Y-105505137D01*
X149987114Y-105506460D01*
X149985900Y-105511826D01*
X149985900Y-106654267D01*
X149999391Y-106695788D01*
X150002277Y-106699760D01*
X150007201Y-106730845D01*
X150007200Y-106902795D01*
X150007200Y-107072973D01*
X149987988Y-107132104D01*
X149985900Y-107134978D01*
X149985899Y-108280280D01*
X149990087Y-108293170D01*
X149991563Y-108294242D01*
X149997044Y-108294746D01*
X150027933Y-108290680D01*
X150040561Y-108287296D01*
X150169804Y-108233761D01*
X150181132Y-108227222D01*
X150292115Y-108142061D01*
X150301360Y-108132816D01*
X150327889Y-108098243D01*
X150379129Y-108063028D01*
X150441281Y-108064655D01*
X150487512Y-108098244D01*
X150514041Y-108132818D01*
X150523284Y-108142061D01*
X150634267Y-108227222D01*
X150645595Y-108233761D01*
X150774838Y-108287296D01*
X150787466Y-108290680D01*
X150813701Y-108294133D01*
X150827031Y-108291663D01*
X150828286Y-108290340D01*
X150829500Y-108284974D01*
X150829500Y-108280280D01*
X151285899Y-108280280D01*
X151290087Y-108293170D01*
X151291563Y-108294242D01*
X151297044Y-108294746D01*
X151327933Y-108290680D01*
X151340561Y-108287296D01*
X151469804Y-108233761D01*
X151481132Y-108227222D01*
X151592115Y-108142061D01*
X151601360Y-108132816D01*
X151686521Y-108021833D01*
X151693060Y-108010505D01*
X151746594Y-107881265D01*
X151749979Y-107868632D01*
X151763671Y-107764640D01*
X151764100Y-107758091D01*
X151764100Y-107142533D01*
X151759912Y-107129643D01*
X151755723Y-107126600D01*
X151301833Y-107126600D01*
X151288943Y-107130788D01*
X151285900Y-107134977D01*
X151285899Y-108280280D01*
X150829500Y-108280280D01*
X150829500Y-107142533D01*
X150816009Y-107101012D01*
X150813123Y-107097040D01*
X150808199Y-107065952D01*
X150808200Y-106770800D01*
X150827413Y-106711669D01*
X150877713Y-106675124D01*
X150908800Y-106670200D01*
X151285900Y-106670200D01*
X151748167Y-106670201D01*
X151761057Y-106666013D01*
X151764100Y-106661824D01*
X151764100Y-106141114D01*
X151783313Y-106081983D01*
X151833613Y-106045438D01*
X151895787Y-106045438D01*
X151935835Y-106069979D01*
X152701472Y-106835616D01*
X152704263Y-106838850D01*
X152706504Y-106843434D01*
X152713312Y-106849749D01*
X152743616Y-106877860D01*
X152746335Y-106880479D01*
X152756060Y-106890204D01*
X152759051Y-106892256D01*
X152760619Y-106893632D01*
X152782345Y-106913786D01*
X152790971Y-106917228D01*
X152790975Y-106917230D01*
X152791289Y-106917355D01*
X152810908Y-106927831D01*
X152811184Y-106928021D01*
X152811191Y-106928024D01*
X152818847Y-106933276D01*
X152827882Y-106935420D01*
X152827884Y-106935421D01*
X152842138Y-106938803D01*
X152856189Y-106943247D01*
X152863254Y-106946066D01*
X152871836Y-106949490D01*
X152871839Y-106949491D01*
X152878429Y-106952120D01*
X152882305Y-106952500D01*
X152888079Y-106952500D01*
X152908972Y-106954945D01*
X152910464Y-106955018D01*
X152919499Y-106957162D01*
X152947003Y-106953419D01*
X152960568Y-106952500D01*
X155630786Y-106952500D01*
X155689917Y-106971713D01*
X155727679Y-107026043D01*
X155728931Y-107030528D01*
X155729860Y-107037630D01*
X155786773Y-107166974D01*
X155877700Y-107275145D01*
X155883664Y-107279115D01*
X155989367Y-107349478D01*
X155989369Y-107349479D01*
X155995333Y-107353449D01*
X156130215Y-107395589D01*
X156199046Y-107396850D01*
X156264336Y-107398047D01*
X156264338Y-107398047D01*
X156271503Y-107398178D01*
X156407839Y-107361009D01*
X156413945Y-107357260D01*
X156413947Y-107357259D01*
X156522158Y-107290817D01*
X156522159Y-107290817D01*
X156528262Y-107287069D01*
X156623092Y-107182302D01*
X156626215Y-107175856D01*
X156626217Y-107175853D01*
X156681583Y-107061577D01*
X156681584Y-107061574D01*
X156684706Y-107055130D01*
X156701973Y-106952500D01*
X156707507Y-106919607D01*
X156707507Y-106919602D01*
X156708151Y-106915777D01*
X156708300Y-106903600D01*
X156688267Y-106763716D01*
X156653994Y-106688336D01*
X156647009Y-106626558D01*
X156677672Y-106572471D01*
X156734270Y-106546737D01*
X156745572Y-106546100D01*
X156764486Y-106546100D01*
X156823617Y-106565313D01*
X156835621Y-106575565D01*
X159624035Y-109363979D01*
X159652261Y-109419377D01*
X159653500Y-109435114D01*
X159653500Y-109954510D01*
X159654465Y-109959361D01*
X159654465Y-109959362D01*
X159656704Y-109970616D01*
X159668796Y-110031407D01*
X159695262Y-110071016D01*
X159721089Y-110109668D01*
X159726593Y-110117906D01*
X159813092Y-110175704D01*
X159863510Y-110185733D01*
X159885137Y-110190035D01*
X159885138Y-110190035D01*
X159889989Y-110191000D01*
X160409386Y-110191000D01*
X160468517Y-110210213D01*
X160480521Y-110220465D01*
X160613321Y-110353265D01*
X160641547Y-110408663D01*
X160631821Y-110470071D01*
X160587857Y-110514035D01*
X160542186Y-110525000D01*
X159889990Y-110525000D01*
X159885139Y-110525965D01*
X159885138Y-110525965D01*
X159864200Y-110530130D01*
X159813093Y-110540296D01*
X159753613Y-110580040D01*
X159738600Y-110590071D01*
X159726594Y-110598093D01*
X159668796Y-110684592D01*
X159666863Y-110694311D01*
X159656704Y-110745384D01*
X159653500Y-110761489D01*
X159653500Y-111357086D01*
X159634287Y-111416217D01*
X159624035Y-111428221D01*
X156835621Y-114216635D01*
X156780223Y-114244861D01*
X156764486Y-114246100D01*
X155869140Y-114246100D01*
X155810009Y-114226887D01*
X155773464Y-114176587D01*
X155773464Y-114114413D01*
X155778606Y-114101637D01*
X155805283Y-114046577D01*
X155805284Y-114046574D01*
X155808406Y-114040130D01*
X155826769Y-113930985D01*
X155831207Y-113904607D01*
X155831207Y-113904602D01*
X155831851Y-113900777D01*
X155832000Y-113888600D01*
X155811967Y-113748716D01*
X155753478Y-113620077D01*
X155661236Y-113513024D01*
X155542655Y-113436164D01*
X155535790Y-113434111D01*
X155535788Y-113434110D01*
X155414134Y-113397727D01*
X155414131Y-113397727D01*
X155407268Y-113395674D01*
X155400103Y-113395630D01*
X155400101Y-113395630D01*
X155337446Y-113395248D01*
X155265959Y-113394811D01*
X155259070Y-113396780D01*
X155259069Y-113396780D01*
X155255756Y-113397727D01*
X155130088Y-113433643D01*
X155010577Y-113509049D01*
X155005832Y-113514422D01*
X154950482Y-113577094D01*
X154896939Y-113608696D01*
X154875079Y-113611100D01*
X134439200Y-113611100D01*
X134380069Y-113591887D01*
X134343524Y-113541587D01*
X134338600Y-113510500D01*
X134338600Y-111807468D01*
X134357813Y-111748337D01*
X134408113Y-111711792D01*
X134458825Y-111708801D01*
X134489989Y-111715000D01*
X135207010Y-111715000D01*
X135211861Y-111714035D01*
X135211862Y-111714035D01*
X135238174Y-111708801D01*
X135283907Y-111699704D01*
X135343387Y-111659960D01*
X135362169Y-111647411D01*
X135362170Y-111647410D01*
X135370406Y-111641907D01*
X135428204Y-111555408D01*
X135439853Y-111496847D01*
X135442535Y-111483363D01*
X135442535Y-111483362D01*
X135443500Y-111478511D01*
X135443500Y-111409200D01*
X135462713Y-111350069D01*
X135513013Y-111313524D01*
X135544100Y-111308600D01*
X136692900Y-111308600D01*
X136752031Y-111327813D01*
X136788576Y-111378113D01*
X136793500Y-111409200D01*
X136793500Y-111478510D01*
X136794465Y-111483359D01*
X136794465Y-111483362D01*
X136798767Y-111504989D01*
X136808796Y-111555407D01*
X136866593Y-111641906D01*
X136953092Y-111699703D01*
X136998830Y-111708801D01*
X137025137Y-111714034D01*
X137025138Y-111714034D01*
X137029989Y-111714999D01*
X137388500Y-111715000D01*
X137747010Y-111715000D01*
X137751861Y-111714035D01*
X137751862Y-111714035D01*
X137778174Y-111708801D01*
X137823907Y-111699704D01*
X137910406Y-111641907D01*
X137968203Y-111555408D01*
X137979852Y-111496847D01*
X137982534Y-111483363D01*
X137982534Y-111483362D01*
X137983499Y-111478511D01*
X137983499Y-111409200D01*
X138002712Y-111350069D01*
X138053012Y-111313524D01*
X138084099Y-111308600D01*
X139232900Y-111308600D01*
X139292031Y-111327813D01*
X139328576Y-111378113D01*
X139333500Y-111409200D01*
X139333500Y-111478510D01*
X139334465Y-111483359D01*
X139334465Y-111483362D01*
X139338767Y-111504989D01*
X139348796Y-111555407D01*
X139356228Y-111566529D01*
X139401089Y-111633668D01*
X139406593Y-111641906D01*
X139493092Y-111699704D01*
X139538825Y-111708801D01*
X139565137Y-111714035D01*
X139565138Y-111714035D01*
X139569989Y-111715000D01*
X140287010Y-111715000D01*
X140291861Y-111714035D01*
X140291862Y-111714035D01*
X140318174Y-111708801D01*
X140363907Y-111699704D01*
X140423387Y-111659960D01*
X140442169Y-111647411D01*
X140442170Y-111647410D01*
X140450406Y-111641907D01*
X140508204Y-111555408D01*
X140519853Y-111496847D01*
X140522535Y-111483363D01*
X140522535Y-111483362D01*
X140523500Y-111478511D01*
X140523500Y-110826315D01*
X140542713Y-110767184D01*
X140593013Y-110730639D01*
X140655187Y-110730639D01*
X140695235Y-110755180D01*
X141131774Y-111191719D01*
X141134564Y-111194952D01*
X141136804Y-111199534D01*
X141143611Y-111205848D01*
X141173902Y-111233947D01*
X141176621Y-111236566D01*
X141186360Y-111246305D01*
X141189353Y-111248359D01*
X141190925Y-111249739D01*
X141212645Y-111269886D01*
X141221272Y-111273328D01*
X141221274Y-111273329D01*
X141221582Y-111273452D01*
X141241214Y-111283934D01*
X141249147Y-111289376D01*
X141272444Y-111294905D01*
X141286492Y-111299348D01*
X141308729Y-111308220D01*
X141312605Y-111308600D01*
X141318380Y-111308600D01*
X141339273Y-111311045D01*
X141340765Y-111311118D01*
X141349800Y-111313262D01*
X141377304Y-111309519D01*
X141390869Y-111308600D01*
X141772900Y-111308600D01*
X141832031Y-111327813D01*
X141868576Y-111378113D01*
X141873500Y-111409200D01*
X141873500Y-111478510D01*
X141874465Y-111483359D01*
X141874465Y-111483362D01*
X141878767Y-111504989D01*
X141888796Y-111555407D01*
X141946593Y-111641906D01*
X142033092Y-111699703D01*
X142078830Y-111708801D01*
X142105137Y-111714034D01*
X142105138Y-111714034D01*
X142109989Y-111714999D01*
X142468500Y-111715000D01*
X142827010Y-111715000D01*
X142831861Y-111714035D01*
X142831862Y-111714035D01*
X142858174Y-111708801D01*
X142903907Y-111699704D01*
X142990406Y-111641907D01*
X143048203Y-111555408D01*
X143059852Y-111496847D01*
X143062534Y-111483363D01*
X143062534Y-111483362D01*
X143063499Y-111478511D01*
X143063500Y-110908314D01*
X143082713Y-110849183D01*
X143092965Y-110837179D01*
X143168655Y-110761489D01*
X144413500Y-110761489D01*
X144413500Y-111478510D01*
X144414465Y-111483359D01*
X144414465Y-111483362D01*
X144418767Y-111504989D01*
X144428796Y-111555407D01*
X144436228Y-111566529D01*
X144481089Y-111633668D01*
X144486593Y-111641906D01*
X144573092Y-111699704D01*
X144618825Y-111708801D01*
X144645137Y-111714035D01*
X144645138Y-111714035D01*
X144649989Y-111715000D01*
X145105886Y-111715000D01*
X145165017Y-111734213D01*
X145177021Y-111744465D01*
X146211772Y-112779216D01*
X146214563Y-112782450D01*
X146216804Y-112787034D01*
X146223612Y-112793349D01*
X146253916Y-112821460D01*
X146256635Y-112824079D01*
X146266360Y-112833804D01*
X146269351Y-112835856D01*
X146270919Y-112837232D01*
X146292645Y-112857386D01*
X146301271Y-112860828D01*
X146301275Y-112860830D01*
X146301589Y-112860955D01*
X146321208Y-112871431D01*
X146321484Y-112871621D01*
X146321491Y-112871624D01*
X146329147Y-112876876D01*
X146338182Y-112879020D01*
X146338184Y-112879021D01*
X146352438Y-112882403D01*
X146366489Y-112886847D01*
X146373554Y-112889666D01*
X146382136Y-112893090D01*
X146382139Y-112893091D01*
X146388729Y-112895720D01*
X146392605Y-112896100D01*
X146398379Y-112896100D01*
X146419272Y-112898545D01*
X146420764Y-112898618D01*
X146429799Y-112900762D01*
X146457303Y-112897019D01*
X146470868Y-112896100D01*
X154013252Y-112896100D01*
X154017507Y-112896412D01*
X154022332Y-112898069D01*
X154031611Y-112897721D01*
X154031614Y-112897721D01*
X154072887Y-112896171D01*
X154076661Y-112896100D01*
X154090446Y-112896100D01*
X154094014Y-112895435D01*
X154096115Y-112895299D01*
X154105140Y-112894960D01*
X154125705Y-112894188D01*
X154134234Y-112890524D01*
X154134242Y-112890522D01*
X154134555Y-112890387D01*
X154155835Y-112883922D01*
X154156163Y-112883861D01*
X154156165Y-112883860D01*
X154165299Y-112882159D01*
X154185677Y-112869598D01*
X154198756Y-112862804D01*
X154214227Y-112856157D01*
X154214228Y-112856156D01*
X154220753Y-112853353D01*
X154223763Y-112850881D01*
X154227845Y-112846799D01*
X154244355Y-112833748D01*
X154245456Y-112832750D01*
X154253361Y-112827877D01*
X154258980Y-112820488D01*
X154258982Y-112820486D01*
X154270167Y-112805776D01*
X154279110Y-112795534D01*
X155330179Y-111744465D01*
X155385577Y-111716239D01*
X155401314Y-111715000D01*
X155654010Y-111715000D01*
X155658861Y-111714035D01*
X155658862Y-111714035D01*
X155685174Y-111708801D01*
X155730907Y-111699704D01*
X155817406Y-111641907D01*
X155875203Y-111555408D01*
X155886852Y-111496847D01*
X155889534Y-111483363D01*
X155889534Y-111483362D01*
X155890499Y-111478511D01*
X155890499Y-111409200D01*
X155909712Y-111350069D01*
X155960012Y-111313524D01*
X155991099Y-111308600D01*
X157139900Y-111308600D01*
X157199031Y-111327813D01*
X157235576Y-111378113D01*
X157240500Y-111409200D01*
X157240500Y-111478510D01*
X157241465Y-111483359D01*
X157241465Y-111483362D01*
X157245767Y-111504989D01*
X157255796Y-111555407D01*
X157263228Y-111566529D01*
X157308089Y-111633668D01*
X157313593Y-111641906D01*
X157400092Y-111699704D01*
X157445825Y-111708801D01*
X157472137Y-111714035D01*
X157472138Y-111714035D01*
X157476989Y-111715000D01*
X158194010Y-111715000D01*
X158198861Y-111714035D01*
X158198862Y-111714035D01*
X158225174Y-111708801D01*
X158270907Y-111699704D01*
X158330387Y-111659960D01*
X158349169Y-111647411D01*
X158349170Y-111647410D01*
X158357406Y-111641907D01*
X158415204Y-111555408D01*
X158426853Y-111496847D01*
X158429535Y-111483363D01*
X158429535Y-111483362D01*
X158430500Y-111478511D01*
X158430500Y-110761490D01*
X158427297Y-110745385D01*
X158423849Y-110728053D01*
X158415204Y-110684593D01*
X158375460Y-110625113D01*
X158362911Y-110606331D01*
X158362910Y-110606330D01*
X158357407Y-110598094D01*
X158270908Y-110540296D01*
X158219801Y-110530130D01*
X158198863Y-110525965D01*
X158198862Y-110525965D01*
X158194011Y-110525000D01*
X157518608Y-110525000D01*
X157459477Y-110505787D01*
X157422932Y-110455487D01*
X157418410Y-110415418D01*
X157418707Y-110412103D01*
X157419351Y-110408277D01*
X157419500Y-110396100D01*
X157418200Y-110387021D01*
X157413361Y-110353229D01*
X157423998Y-110291972D01*
X157441810Y-110267834D01*
X157489179Y-110220465D01*
X157544577Y-110192239D01*
X157560314Y-110191000D01*
X158194010Y-110191000D01*
X158198861Y-110190035D01*
X158198862Y-110190035D01*
X158220489Y-110185733D01*
X158270907Y-110175704D01*
X158357406Y-110117907D01*
X158415204Y-110031408D01*
X158425233Y-109980990D01*
X158429535Y-109959363D01*
X158429535Y-109959362D01*
X158430500Y-109954511D01*
X158430500Y-109237490D01*
X158427297Y-109221385D01*
X158421793Y-109193717D01*
X158415204Y-109160593D01*
X158363627Y-109083403D01*
X158362911Y-109082331D01*
X158362910Y-109082330D01*
X158357407Y-109074094D01*
X158270908Y-109016296D01*
X158209229Y-109004027D01*
X158198863Y-109001965D01*
X158198862Y-109001965D01*
X158194011Y-109001000D01*
X157476990Y-109001000D01*
X157472139Y-109001965D01*
X157472138Y-109001965D01*
X157461772Y-109004027D01*
X157400093Y-109016296D01*
X157313594Y-109074093D01*
X157255796Y-109160592D01*
X157253863Y-109170311D01*
X157243704Y-109221384D01*
X157240500Y-109237489D01*
X157240500Y-109642586D01*
X157221287Y-109701717D01*
X157211035Y-109713721D01*
X157051139Y-109873617D01*
X156995741Y-109901843D01*
X156979390Y-109903080D01*
X156948280Y-109902890D01*
X156853459Y-109902311D01*
X156846570Y-109904280D01*
X156846569Y-109904280D01*
X156828840Y-109909347D01*
X156717588Y-109941143D01*
X156711528Y-109944966D01*
X156711527Y-109944967D01*
X156696401Y-109954511D01*
X156598077Y-110016549D01*
X156577677Y-110039648D01*
X156515837Y-110109669D01*
X156504534Y-110122467D01*
X156501489Y-110128952D01*
X156501488Y-110128954D01*
X156482544Y-110169304D01*
X156444478Y-110250382D01*
X156441761Y-110267834D01*
X156424643Y-110377773D01*
X156422737Y-110390011D01*
X156428154Y-110431438D01*
X156437965Y-110506459D01*
X156441060Y-110530130D01*
X156477297Y-110612485D01*
X156483527Y-110674345D01*
X156452205Y-110728053D01*
X156395296Y-110753094D01*
X156385217Y-110753600D01*
X155968915Y-110753600D01*
X155909784Y-110734387D01*
X155876782Y-110692525D01*
X155875204Y-110684593D01*
X155817407Y-110598094D01*
X155820355Y-110596124D01*
X155800076Y-110556324D01*
X155809802Y-110494916D01*
X155853766Y-110450952D01*
X155860939Y-110447645D01*
X155909040Y-110427721D01*
X155920372Y-110421178D01*
X156028476Y-110338227D01*
X156037724Y-110328979D01*
X156120680Y-110220871D01*
X156127219Y-110209543D01*
X156179367Y-110083647D01*
X156182752Y-110071017D01*
X156195970Y-109970616D01*
X156196399Y-109964066D01*
X156196399Y-109840133D01*
X156192211Y-109827243D01*
X156188022Y-109824200D01*
X155523702Y-109824199D01*
X155523696Y-109824200D01*
X154410533Y-109824199D01*
X154397643Y-109828387D01*
X154394600Y-109832576D01*
X154394600Y-109964065D01*
X154395029Y-109970615D01*
X154408247Y-110071016D01*
X154411632Y-110083646D01*
X154463779Y-110209539D01*
X154470322Y-110220872D01*
X154553272Y-110328975D01*
X154562524Y-110338227D01*
X154670627Y-110421177D01*
X154681957Y-110427719D01*
X154730062Y-110447645D01*
X154777339Y-110488024D01*
X154791853Y-110548481D01*
X154771799Y-110596894D01*
X154773594Y-110598093D01*
X154715797Y-110684592D01*
X154713864Y-110694311D01*
X154703705Y-110745384D01*
X154700501Y-110761489D01*
X154700500Y-111478510D01*
X154708384Y-111518144D01*
X154701077Y-111579885D01*
X154680852Y-111608904D01*
X153978121Y-112311635D01*
X153922723Y-112339861D01*
X153906986Y-112341100D01*
X149836640Y-112341100D01*
X149777509Y-112321887D01*
X149740964Y-112271587D01*
X149740964Y-112209413D01*
X149746106Y-112196637D01*
X149772783Y-112141577D01*
X149772784Y-112141574D01*
X149775906Y-112135130D01*
X149786681Y-112071085D01*
X149798707Y-111999607D01*
X149798707Y-111999602D01*
X149799351Y-111995777D01*
X149799500Y-111983600D01*
X149798628Y-111977511D01*
X149793361Y-111940729D01*
X149803998Y-111879472D01*
X149821810Y-111855334D01*
X149932679Y-111744465D01*
X149988077Y-111716239D01*
X150003814Y-111715000D01*
X150447010Y-111715000D01*
X150451861Y-111714035D01*
X150451862Y-111714035D01*
X150478174Y-111708801D01*
X150523907Y-111699704D01*
X150583387Y-111659960D01*
X150602169Y-111647411D01*
X150602170Y-111647410D01*
X150610406Y-111641907D01*
X150668204Y-111555408D01*
X150679853Y-111496847D01*
X150682535Y-111483363D01*
X150682535Y-111483362D01*
X150683500Y-111478511D01*
X150683500Y-111356576D01*
X151727600Y-111356576D01*
X151727600Y-111488065D01*
X151728029Y-111494615D01*
X151741247Y-111595016D01*
X151744632Y-111607646D01*
X151796780Y-111733544D01*
X151803319Y-111744871D01*
X151886275Y-111852979D01*
X151895523Y-111862227D01*
X152003627Y-111945178D01*
X152014960Y-111951721D01*
X152140853Y-112003868D01*
X152153483Y-112007253D01*
X152253884Y-112020471D01*
X152260434Y-112020900D01*
X152384367Y-112020900D01*
X152397257Y-112016712D01*
X152400300Y-112012523D01*
X152400300Y-112004967D01*
X152856699Y-112004967D01*
X152860887Y-112017857D01*
X152865076Y-112020900D01*
X152996565Y-112020900D01*
X153003115Y-112020471D01*
X153103516Y-112007253D01*
X153116146Y-112003868D01*
X153242041Y-111951721D01*
X153253373Y-111945178D01*
X153361477Y-111862227D01*
X153370725Y-111852979D01*
X153453681Y-111744871D01*
X153460220Y-111733543D01*
X153512368Y-111607647D01*
X153515753Y-111595017D01*
X153528971Y-111494616D01*
X153529400Y-111488066D01*
X153529400Y-111364133D01*
X153525212Y-111351243D01*
X153521023Y-111348200D01*
X152872633Y-111348200D01*
X152859743Y-111352388D01*
X152856700Y-111356577D01*
X152856699Y-112004967D01*
X152400300Y-112004967D01*
X152400300Y-111364133D01*
X152396112Y-111351243D01*
X152391923Y-111348200D01*
X151743533Y-111348199D01*
X151730643Y-111352387D01*
X151727600Y-111356576D01*
X150683500Y-111356576D01*
X150683500Y-110761490D01*
X150680297Y-110745385D01*
X150676849Y-110728053D01*
X150668204Y-110684593D01*
X150628460Y-110625113D01*
X150615911Y-110606331D01*
X150615910Y-110606330D01*
X150610407Y-110598094D01*
X150523908Y-110540296D01*
X150472801Y-110530130D01*
X150451863Y-110525965D01*
X150451862Y-110525965D01*
X150447011Y-110525000D01*
X149729990Y-110525000D01*
X149725139Y-110525965D01*
X149725138Y-110525965D01*
X149704200Y-110530130D01*
X149653093Y-110540296D01*
X149593613Y-110580040D01*
X149578600Y-110590071D01*
X149566594Y-110598093D01*
X149508796Y-110684592D01*
X149506863Y-110694311D01*
X149496704Y-110745384D01*
X149493500Y-110761489D01*
X149493500Y-111357086D01*
X149474287Y-111416217D01*
X149464035Y-111428221D01*
X149431139Y-111461117D01*
X149375741Y-111489343D01*
X149359390Y-111490580D01*
X149328280Y-111490390D01*
X149233459Y-111489811D01*
X149226570Y-111491780D01*
X149226569Y-111491780D01*
X149208840Y-111496847D01*
X149097588Y-111528643D01*
X148978077Y-111604049D01*
X148973332Y-111609422D01*
X148891891Y-111701637D01*
X148884534Y-111709967D01*
X148881489Y-111716452D01*
X148881488Y-111716454D01*
X148866519Y-111748337D01*
X148824478Y-111837882D01*
X148823375Y-111844967D01*
X148806753Y-111951721D01*
X148802737Y-111977511D01*
X148821060Y-112117630D01*
X148857297Y-112199985D01*
X148863527Y-112261845D01*
X148832205Y-112315553D01*
X148775296Y-112340594D01*
X148765217Y-112341100D01*
X146600214Y-112341100D01*
X146541083Y-112321887D01*
X146529079Y-112311635D01*
X145632965Y-111415521D01*
X145604739Y-111360123D01*
X145604460Y-111356576D01*
X146647600Y-111356576D01*
X146647600Y-111488065D01*
X146648029Y-111494615D01*
X146661247Y-111595016D01*
X146664632Y-111607646D01*
X146716780Y-111733544D01*
X146723319Y-111744871D01*
X146806275Y-111852979D01*
X146815523Y-111862227D01*
X146923627Y-111945178D01*
X146934960Y-111951721D01*
X147060853Y-112003868D01*
X147073483Y-112007253D01*
X147173884Y-112020471D01*
X147180434Y-112020900D01*
X147304367Y-112020900D01*
X147317257Y-112016712D01*
X147320300Y-112012523D01*
X147320300Y-112004967D01*
X147776699Y-112004967D01*
X147780887Y-112017857D01*
X147785076Y-112020900D01*
X147916565Y-112020900D01*
X147923115Y-112020471D01*
X148023516Y-112007253D01*
X148036146Y-112003868D01*
X148162041Y-111951721D01*
X148173373Y-111945178D01*
X148281477Y-111862227D01*
X148290725Y-111852979D01*
X148373681Y-111744871D01*
X148380220Y-111733543D01*
X148432368Y-111607647D01*
X148435753Y-111595017D01*
X148448971Y-111494616D01*
X148449400Y-111488066D01*
X148449400Y-111364133D01*
X148445212Y-111351243D01*
X148441023Y-111348200D01*
X147792633Y-111348200D01*
X147779743Y-111352388D01*
X147776700Y-111356577D01*
X147776699Y-112004967D01*
X147320300Y-112004967D01*
X147320300Y-111364133D01*
X147316112Y-111351243D01*
X147311923Y-111348200D01*
X146663533Y-111348199D01*
X146650643Y-111352387D01*
X146647600Y-111356576D01*
X145604460Y-111356576D01*
X145603500Y-111344386D01*
X145603500Y-110761490D01*
X145600297Y-110745385D01*
X145596849Y-110728053D01*
X145588204Y-110684593D01*
X145548460Y-110625113D01*
X145535911Y-110606331D01*
X145535910Y-110606330D01*
X145530407Y-110598094D01*
X145443908Y-110540296D01*
X145392801Y-110530130D01*
X145371863Y-110525965D01*
X145371862Y-110525965D01*
X145367011Y-110525000D01*
X144649990Y-110525000D01*
X144645139Y-110525965D01*
X144645138Y-110525965D01*
X144624200Y-110530130D01*
X144573093Y-110540296D01*
X144513613Y-110580040D01*
X144498600Y-110590071D01*
X144486594Y-110598093D01*
X144428796Y-110684592D01*
X144426863Y-110694311D01*
X144416704Y-110745384D01*
X144413500Y-110761489D01*
X143168655Y-110761489D01*
X144241765Y-109688379D01*
X144297163Y-109660153D01*
X144358571Y-109669879D01*
X144402535Y-109713843D01*
X144413500Y-109759514D01*
X144413500Y-109954510D01*
X144414465Y-109959361D01*
X144414465Y-109959362D01*
X144416704Y-109970616D01*
X144428796Y-110031407D01*
X144455262Y-110071016D01*
X144481089Y-110109668D01*
X144486593Y-110117906D01*
X144573092Y-110175704D01*
X144623510Y-110185733D01*
X144645137Y-110190035D01*
X144645138Y-110190035D01*
X144649989Y-110191000D01*
X145367010Y-110191000D01*
X145371861Y-110190035D01*
X145371862Y-110190035D01*
X145393489Y-110185733D01*
X145443907Y-110175704D01*
X145530406Y-110117907D01*
X145588204Y-110031408D01*
X145598233Y-109980990D01*
X145602535Y-109959363D01*
X145602535Y-109959362D01*
X145603500Y-109954511D01*
X145603500Y-109821700D01*
X145622713Y-109762569D01*
X145673013Y-109726024D01*
X145704100Y-109721100D01*
X146852900Y-109721100D01*
X146912031Y-109740313D01*
X146948576Y-109790613D01*
X146953500Y-109821700D01*
X146953500Y-109954510D01*
X146954465Y-109959361D01*
X146954465Y-109959362D01*
X146956704Y-109970616D01*
X146968796Y-110031407D01*
X146995262Y-110071016D01*
X147026593Y-110117906D01*
X147023645Y-110119876D01*
X147043924Y-110159676D01*
X147034198Y-110221084D01*
X146990234Y-110265048D01*
X146983060Y-110268356D01*
X146934955Y-110288281D01*
X146923627Y-110294822D01*
X146815523Y-110377773D01*
X146806275Y-110387021D01*
X146723319Y-110495129D01*
X146716780Y-110506457D01*
X146664632Y-110632353D01*
X146661247Y-110644983D01*
X146648029Y-110745384D01*
X146647600Y-110751934D01*
X146647600Y-110875867D01*
X146651788Y-110888757D01*
X146655977Y-110891800D01*
X147776700Y-110891800D01*
X148433467Y-110891801D01*
X148446357Y-110887613D01*
X148449400Y-110883424D01*
X148449400Y-110751935D01*
X148448971Y-110745385D01*
X148435753Y-110644984D01*
X148432368Y-110632354D01*
X148380221Y-110506459D01*
X148373678Y-110495127D01*
X148290728Y-110387024D01*
X148281476Y-110377772D01*
X148173373Y-110294822D01*
X148162043Y-110288280D01*
X148113938Y-110268354D01*
X148066661Y-110227975D01*
X148052147Y-110167518D01*
X148072201Y-110119106D01*
X148070406Y-110117907D01*
X148122698Y-110039648D01*
X148128204Y-110031408D01*
X148138233Y-109980990D01*
X148142535Y-109959363D01*
X148142535Y-109959362D01*
X148143500Y-109954511D01*
X148143500Y-109237490D01*
X148140297Y-109221385D01*
X148134793Y-109193717D01*
X148128204Y-109160593D01*
X148076627Y-109083403D01*
X148075911Y-109082331D01*
X148075910Y-109082330D01*
X148070407Y-109074094D01*
X148035809Y-109050976D01*
X147997318Y-109002150D01*
X147991100Y-108967331D01*
X147991100Y-108453529D01*
X148010313Y-108394398D01*
X148060613Y-108357853D01*
X148122787Y-108357853D01*
X148152594Y-108373453D01*
X148161419Y-108380164D01*
X148171660Y-108389105D01*
X148434274Y-108651719D01*
X148437064Y-108654952D01*
X148439304Y-108659534D01*
X148446111Y-108665848D01*
X148476402Y-108693947D01*
X148479121Y-108696566D01*
X148488860Y-108706305D01*
X148491853Y-108708359D01*
X148493425Y-108709739D01*
X148515145Y-108729886D01*
X148523772Y-108733328D01*
X148523774Y-108733329D01*
X148524082Y-108733452D01*
X148543714Y-108743934D01*
X148551647Y-108749376D01*
X148574944Y-108754905D01*
X148588992Y-108759348D01*
X148611229Y-108768220D01*
X148615105Y-108768600D01*
X148620880Y-108768600D01*
X148641773Y-108771045D01*
X148643265Y-108771118D01*
X148652300Y-108773262D01*
X148679804Y-108769519D01*
X148693369Y-108768600D01*
X148826986Y-108768600D01*
X148886117Y-108787813D01*
X148898121Y-108798065D01*
X149464035Y-109363979D01*
X149492261Y-109419377D01*
X149493500Y-109435114D01*
X149493500Y-109954510D01*
X149494465Y-109959361D01*
X149494465Y-109959362D01*
X149496704Y-109970616D01*
X149508796Y-110031407D01*
X149535262Y-110071016D01*
X149561089Y-110109668D01*
X149566593Y-110117906D01*
X149653092Y-110175704D01*
X149703510Y-110185733D01*
X149725137Y-110190035D01*
X149725138Y-110190035D01*
X149729989Y-110191000D01*
X150447010Y-110191000D01*
X150451861Y-110190035D01*
X150451862Y-110190035D01*
X150473489Y-110185733D01*
X150523907Y-110175704D01*
X150610406Y-110117907D01*
X150668204Y-110031408D01*
X150678233Y-109980990D01*
X150682535Y-109959363D01*
X150682535Y-109959362D01*
X150683500Y-109954511D01*
X150683500Y-109821700D01*
X150702713Y-109762569D01*
X150753013Y-109726024D01*
X150784100Y-109721100D01*
X151932900Y-109721100D01*
X151992031Y-109740313D01*
X152028576Y-109790613D01*
X152033500Y-109821700D01*
X152033500Y-109954510D01*
X152034465Y-109959361D01*
X152034465Y-109959362D01*
X152036704Y-109970616D01*
X152048796Y-110031407D01*
X152075262Y-110071016D01*
X152106593Y-110117906D01*
X152103645Y-110119876D01*
X152123924Y-110159676D01*
X152114198Y-110221084D01*
X152070234Y-110265048D01*
X152063060Y-110268356D01*
X152014955Y-110288281D01*
X152003627Y-110294822D01*
X151895523Y-110377773D01*
X151886275Y-110387021D01*
X151803319Y-110495129D01*
X151796780Y-110506457D01*
X151744632Y-110632353D01*
X151741247Y-110644983D01*
X151728029Y-110745384D01*
X151727600Y-110751934D01*
X151727600Y-110875867D01*
X151731788Y-110888757D01*
X151735977Y-110891800D01*
X152856700Y-110891800D01*
X153513467Y-110891801D01*
X153526357Y-110887613D01*
X153529400Y-110883424D01*
X153529400Y-110751935D01*
X153528971Y-110745385D01*
X153515753Y-110644984D01*
X153512368Y-110632354D01*
X153460221Y-110506459D01*
X153453678Y-110495127D01*
X153370728Y-110387024D01*
X153361476Y-110377772D01*
X153253373Y-110294822D01*
X153242043Y-110288280D01*
X153193938Y-110268354D01*
X153146661Y-110227975D01*
X153132147Y-110167518D01*
X153152201Y-110119106D01*
X153150406Y-110117907D01*
X153202698Y-110039648D01*
X153208204Y-110031408D01*
X153218233Y-109980990D01*
X153222535Y-109959363D01*
X153222535Y-109959362D01*
X153223500Y-109954511D01*
X153223500Y-109237490D01*
X153221600Y-109227934D01*
X154394601Y-109227934D01*
X154394601Y-109351867D01*
X154398789Y-109364757D01*
X154402978Y-109367800D01*
X155051367Y-109367801D01*
X155064257Y-109363613D01*
X155067300Y-109359424D01*
X155067300Y-109351867D01*
X155523699Y-109351867D01*
X155527887Y-109364757D01*
X155532076Y-109367800D01*
X156180467Y-109367801D01*
X156193357Y-109363613D01*
X156196400Y-109359424D01*
X156196400Y-109227935D01*
X156195971Y-109221385D01*
X156182753Y-109120984D01*
X156179368Y-109108354D01*
X156127220Y-108982458D01*
X156120681Y-108971130D01*
X156037725Y-108863022D01*
X156028477Y-108853774D01*
X155920373Y-108770823D01*
X155909040Y-108764280D01*
X155783147Y-108712133D01*
X155770517Y-108708748D01*
X155670116Y-108695530D01*
X155663566Y-108695101D01*
X155539633Y-108695101D01*
X155526743Y-108699289D01*
X155523700Y-108703478D01*
X155523699Y-109351867D01*
X155067300Y-109351867D01*
X155067301Y-108711033D01*
X155063113Y-108698143D01*
X155058924Y-108695100D01*
X154927435Y-108695100D01*
X154920885Y-108695529D01*
X154820484Y-108708747D01*
X154807854Y-108712132D01*
X154681961Y-108764279D01*
X154670628Y-108770822D01*
X154562524Y-108853773D01*
X154553276Y-108863021D01*
X154470320Y-108971129D01*
X154463781Y-108982457D01*
X154411633Y-109108353D01*
X154408248Y-109120983D01*
X154395030Y-109221384D01*
X154394601Y-109227934D01*
X153221600Y-109227934D01*
X153220297Y-109221385D01*
X153214793Y-109193717D01*
X153208204Y-109160593D01*
X153156627Y-109083403D01*
X153155911Y-109082331D01*
X153155910Y-109082330D01*
X153150407Y-109074094D01*
X153063908Y-109016296D01*
X153002229Y-109004027D01*
X152991863Y-109001965D01*
X152991862Y-109001965D01*
X152987011Y-109001000D01*
X152269990Y-109001000D01*
X152265139Y-109001965D01*
X152265138Y-109001965D01*
X152254772Y-109004027D01*
X152193093Y-109016296D01*
X152106594Y-109074093D01*
X152075262Y-109120984D01*
X152074990Y-109121391D01*
X152026164Y-109159882D01*
X151991345Y-109166100D01*
X150725656Y-109166100D01*
X150666525Y-109146887D01*
X150642010Y-109121391D01*
X150615911Y-109082331D01*
X150615910Y-109082330D01*
X150610407Y-109074094D01*
X150523908Y-109016296D01*
X150462229Y-109004027D01*
X150451863Y-109001965D01*
X150451862Y-109001965D01*
X150447011Y-109001000D01*
X149927614Y-109001000D01*
X149868483Y-108981787D01*
X149856479Y-108971535D01*
X149315890Y-108430946D01*
X149287664Y-108375548D01*
X149297390Y-108314140D01*
X149341354Y-108270176D01*
X149402762Y-108260450D01*
X149425523Y-108266869D01*
X149474838Y-108287296D01*
X149487466Y-108290680D01*
X149513701Y-108294133D01*
X149527031Y-108291663D01*
X149528286Y-108290340D01*
X149529500Y-108284974D01*
X149529500Y-106670200D01*
X149529501Y-105516520D01*
X149525313Y-105503630D01*
X149523837Y-105502558D01*
X149518359Y-105502055D01*
X149489229Y-105505889D01*
X149428096Y-105494557D01*
X149385299Y-105449457D01*
X149375500Y-105406149D01*
X149375500Y-105040814D01*
X149394713Y-104981683D01*
X149404965Y-104969679D01*
X149704079Y-104670565D01*
X149759477Y-104642339D01*
X149775214Y-104641100D01*
X151049486Y-104641100D01*
X151108617Y-104660313D01*
G37*
G04 #@! TD.AperFunction*
M02*
